<svg xmlns="http://www.w3.org/2000/svg" xmlns:xlink="http://www.w3.org/1999/xlink" xmlns:lucid="lucid" width="2468.76" height="1264.02"><g transform="translate(0 0)" lucid:page-tab-id="2_ma37URT6u7"><path d="M0 0h2468.76v1264.02H0z" fill="#fff"/><path d="M439.33 249.6a8 8 0 0 1 8-8H562a8 8 0 0 1 8 8v4.94a17.07 17.07 0 0 1-5 12.07 17.07 17.07 0 0 1-12.08 5h-105.6a8 8 0 0 1-8-8z" fill="#fff"/><path d="M570 241.6v20l-10 10H439.32" stroke="#333" fill="none"/><path d="M439.33 249.6a8 8 0 0 1 8-8H2276.6a8 8 0 0 1 8 8v737.33a8 8 0 0 1-8 8H447.33a8 8 0 0 1-8-8z" stroke="#333" fill="none"/><use xlink:href="#a" transform="matrix(1,0,0,1,447.3343934522903,241.6059988569333) translate(0 18.6)"/><use xlink:href="#b" transform="matrix(1,0,0,1,447.3343934522903,241.6059988569333) translate(46 18.6)"/><path d="M220.7 578.27c17.68 0 32 17.9 32 40s-14.32 40-32 40h-96c-17.67 0-32-17.9-32-40s14.33-40 32-40z" stroke="#000" stroke-opacity="0" fill="#5358d3"/><use xlink:href="#c" transform="matrix(1,0,0,1,97.70181978199922,583.2660352583564) translate(17.271604938271604 28.359722222222224)"/><use xlink:href="#d" transform="matrix(1,0,0,1,97.70181978199922,583.2660352583564) translate(59.69135802469137 28.359722222222224)"/><use xlink:href="#e" transform="matrix(1,0,0,1,97.70181978199922,583.2660352583564) translate(79.44444444444446 28.359722222222224)"/><use xlink:href="#f" transform="matrix(1,0,0,1,97.70181978199922,583.2660352583564) translate(34.580246913580254 49.69305555555555)"/><use xlink:href="#g" transform="matrix(1,0,0,1,97.70181978199922,583.2660352583564) translate(79.0246913580247 49.69305555555555)"/><path d="M253.2 618.27h169.25" stroke="#333" fill="none"/><path d="M253.22 618.77h-.55l.03-.5-.02-.5h.53z" stroke="#333" stroke-width=".05" fill="#333"/><path d="M437.2 618.27l-14.25 4.63v-9.27z" stroke="#333" fill="#333"/><path d="M1102.36 544a11.22 11.22 0 0 1 13.02 0l122.6 87.4a5.7 5.7 0 0 1 0 9.3l-122.6 87.4a11.22 11.22 0 0 1-13.02 0l-122.6-87.4a5.7 5.7 0 0 1 0-9.3z" stroke="#323580" stroke-width="4" fill="#fff"/><use xlink:href="#h" transform="matrix(1,0,0,1,978.0349895959364,544.16680236078) translate(77.22104938271605 51.922222222222224)"/><use xlink:href="#i" transform="matrix(1,0,0,1,978.0349895959364,544.16680236078) translate(113.71487654320988 51.922222222222224)"/><use xlink:href="#j" transform="matrix(1,0,0,1,978.0349895959364,544.16680236078) translate(127.49265432098765 51.922222222222224)"/><use xlink:href="#k" transform="matrix(1,0,0,1,978.0349895959364,544.16680236078) translate(171.9370987654321 51.922222222222224)"/><use xlink:href="#l" transform="matrix(1,0,0,1,978.0349895959364,544.16680236078) translate(50.60376543209875 73.25555555555556)"/><use xlink:href="#m" transform="matrix(1,0,0,1,978.0349895959364,544.16680236078) translate(105.863024691358 73.25555555555556)"/><use xlink:href="#n" transform="matrix(1,0,0,1,978.0349895959364,544.16680236078) translate(152.2333950617284 73.25555555555556)"/><use xlink:href="#o" transform="matrix(1,0,0,1,978.0349895959364,544.16680236078) translate(181.86302469135802 73.25555555555556)"/><use xlink:href="#p" transform="matrix(1,0,0,1,978.0349895959364,544.16680236078) translate(21.518518518518515 94.5888888888889)"/><use xlink:href="#q" transform="matrix(1,0,0,1,978.0349895959364,544.16680236078) translate(48.08641975308642 94.5888888888889)"/><use xlink:href="#r" transform="matrix(1,0,0,1,978.0349895959364,544.16680236078) translate(86.50617283950618 94.5888888888889)"/><use xlink:href="#j" transform="matrix(1,0,0,1,978.0349895959364,544.16680236078) translate(120.08641975308643 94.5888888888889)"/><use xlink:href="#s" transform="matrix(1,0,0,1,978.0349895959364,544.16680236078) translate(164.5308641975309 94.5888888888889)"/><use xlink:href="#t" transform="matrix(1,0,0,1,978.0349895959364,544.16680236078) translate(47.64697530864196 115.92222222222225)"/><use xlink:href="#u" transform="matrix(1,0,0,1,978.0349895959364,544.16680236078) translate(68.33833333333332 115.92222222222225)"/><use xlink:href="#l" transform="matrix(1,0,0,1,978.0349895959364,544.16680236078) translate(85.12845679012345 115.92222222222225)"/><use xlink:href="#m" transform="matrix(1,0,0,1,978.0349895959364,544.16680236078) translate(140.38771604938273 115.92222222222225)"/><use xlink:href="#v" transform="matrix(1,0,0,1,978.0349895959364,544.16680236078) translate(186.7580864197531 115.92222222222225)"/><use xlink:href="#w" transform="matrix(1,0,0,1,978.0349895959364,544.16680236078) translate(76.28895061728396 137.2555555555556)"/><use xlink:href="#x" transform="matrix(1,0,0,1,978.0349895959364,544.16680236078) translate(134.51117283950617 137.2555555555556)"/><path d="M884.12 292.5a17.5 17.5 0 0 1 14.55 0l121.08 55.38a3.66 3.66 0 0 1 0 6.65l-121.08 55.4a17.5 17.5 0 0 1-14.55 0l-121.1-55.4a3.66 3.66 0 0 1 0-6.65z" stroke="#323580" stroke-width="4" fill="#fff"/><use xlink:href="#y" transform="matrix(1,0,0,1,760.5571571881421,293.96275736814715) translate(21.301296296296268 60.547222222222224)"/><use xlink:href="#z" transform="matrix(1,0,0,1,760.5571571881421,293.96275736814715) translate(184.95561728395063 60.547222222222224)"/><use xlink:href="#A" transform="matrix(1,0,0,1,760.5571571881421,293.96275736814715) translate(200.2642592592593 60.547222222222224)"/><a xlink:href="http://List.isAnnualReview" target="_blank" transform="matrix(1,0,0,1,760.5571571881421,293.96275736814715)"><path class="lucid-link lucid-hotspot lucid-overlay-hotspot" fill-opacity="0" d="M21.3 46.33h158.72v21.33H21.3z"/></a><path d="M892.4 624l.13 1.77.4 1.68.66 1.6.9 1.47 1.12 1.3 1.3 1.13 1.48.9 1.6.66 1.67.4 1.76.15h53.42v2h-53.5l-2-.15-1.98-.48-1.88-.78-1.75-1.07-1.55-1.32-1.33-1.55-1.06-1.75-.77-1.88-.48-1.98-.16-2V478.95h2zm0-166.64h-2V414.5h2z" stroke="#e81313" stroke-width=".05" fill="#e81313"/><path d="M891.4 413.5l1-.04v1.07h-2v-1.07z" fill="#e81313"/><path d="M891.4 413.48l1.02-.04v1.12h-2.05v-1.12zm-.98 1.03h1.95v-1l-.98.03-.98-.04z" stroke="#e81313" stroke-width=".05" fill="#e81313"/><path d="M972.1 636.05l-14.25 4.64v-9.28z" fill="#e81313"/><path d="M975.35 636.05l-18.5 6v-12zm-16.5 3.26l10.03-3.25-10.03-3.26z" stroke="#e81313" stroke-width=".05" fill="#e81313"/><use xlink:href="#B" transform="matrix(1,0,0,1,879.9172742258717,457.3578762761119) translate(0.005000000000000782 14.4)"/><path d="M1208.05 352.2H1024.9v-2h183.14zm195 0h-165.65v-2h165.63z" stroke="#008a0e" stroke-width=".05" fill="#008a0e"/><path d="M1024.93 352.2h-1.14l.1-1-.1-1h1.13z" fill="#008a0e"/><path d="M1024.95 352.23h-1.2l.13-1.03-.12-1.02h1.2zm-1.13-2l.1.97-.1.98h1.08v-1.95z" stroke="#008a0e" stroke-width=".05" fill="#008a0e"/><path d="M1418.3 351.2l-14.26 4.64v-9.27z" fill="#008a0e"/><path d="M1421.54 351.2l-18.5 6.02V345.2zm-16.5 3.26l10.03-3.25-10.03-3.25z" stroke="#008a0e" stroke-width=".05" fill="#008a0e"/><use xlink:href="#C" transform="matrix(1,0,0,1,1208.0454782182794,340.4049742835703) translate(0.005000000000000782 14.4)"/><path d="M1549.54 311.2c17.67 0 32 17.9 32 40s-14.33 40-32 40h-96c-17.67 0-32-17.9-32-40s14.33-40 32-40z" stroke="#000" stroke-opacity="0" fill="#5358d3"/><use xlink:href="#D" transform="matrix(1,0,0,1,1426.5383698373685,316.2049742835705) translate(60.20987654320989 39.297222222222224)"/><path d="M1314.52 637.05h-71.13v-2h71.12zm148.74 0h-119.4v-2h119.4z" stroke="#008a0e" stroke-width=".05" fill="#008a0e"/><path d="M1243.42 637.05h-1.12l.1-1-.1-1h1.12z" fill="#008a0e"/><path d="M1243.44 637.08h-1.17l.1-1.03-.1-1.02h1.17zm-1.12-2l.1.97-.1.98h1.07v-1.95z" stroke="#008a0e" stroke-width=".05" fill="#008a0e"/><path d="M1478.52 636.05l-14.26 4.64v-9.28z" fill="#008a0e"/><path d="M1481.76 636.05l-18.5 6v-12zm-16.5 3.26l10.02-3.25-10.02-3.26z" stroke="#008a0e" stroke-width=".05" fill="#008a0e"/><g><use xlink:href="#C" transform="matrix(1,0,0,1,1314.5212945088551,625.2515766419492) translate(0.005000000000000782 14.4)"/></g><path d="M1109.87 840.35h-2V786.3h2zm0-75.64h-2V733.2h2z" stroke="#e81313" stroke-width=".05" fill="#e81313"/><path d="M1108.87 732.18l1-.06v1.1h-2v-1.1z" fill="#e81313"/><path d="M1108.87 732.16l1.03-.07v1.13h-2.06v-1.14zm-.97 1.02h1.94v-1.03l-.97.06-.97-.06z" stroke="#e81313" stroke-width=".05" fill="#e81313"/><path d="M1108.87 855.62l-4.63-14.27h9.27z" fill="#e81313"/><path d="M1108.87 858.86l-6-18.5h12zm-3.26-16.5l3.27 10.02 3.26-10.03z" stroke="#e81313" stroke-width=".05" fill="#e81313"/><g><use xlink:href="#B" transform="matrix(1,0,0,1,1097.395106853387,764.7121832804984) translate(0.005000000000000782 14.4)"/></g><path d="M1482.26 584.05a8 8 0 0 1 8-8h335.72a8 8 0 0 1 8 8v104a8 8 0 0 1-8 8h-335.72a8 8 0 0 1-8-8z" stroke="#fff" fill="#5358d3"/><g><use xlink:href="#E" transform="matrix(1,0,0,1,1494.2564651435634,588.0515766419492) translate(8.225000000000023 50.4)"/><use xlink:href="#F" transform="matrix(1,0,0,1,1494.2564651435634,588.0515766419492) translate(40.22500000000002 50.4)"/></g><g transform="matrix(1,0,0,1,1494.2564651435634,588.0515766419492)"><a xlink:href="http://List.jsonData.currentAnnualReview" target="_blank"><path class="lucid-link lucid-hotspot lucid-overlay-hotspot" fill-opacity="0" d="M40.23 36h279.55v21.6H40.23z"/></a></g><path d="M2163.17 587.95c17.67 0 32 17.9 32 40s-14.33 40-32 40h-96c-17.68 0-32-17.9-32-40s14.32-40 32-40z" stroke="#000" stroke-opacity="0" fill="#5358d3"/><g><use xlink:href="#D" transform="matrix(1,0,0,1,2040.166543540749,592.9507220317884) translate(60.20987654320989 39.297222222222224)"/></g><path d="M1834.98 636.05h184.53" stroke="#333" fill="none"/><path d="M1835 636.55h-.52v-1h.5z" stroke="#333" stroke-width=".05" fill="#333"/><path d="M2034.28 636.05L2020 640.7v-9.28z" stroke="#333" fill="#333"/><path d="M650.57 311.2c17.67 0 32 17.9 32 40s-14.33 40-32 40h-96c-17.67 0-32-17.9-32-40s14.33-40 32-40z" stroke="#000" stroke-opacity="0" fill="#5358d3"/><g><use xlink:href="#G" transform="matrix(1,0,0,1,527.5711807327057,316.2049742835705) translate(56.25925925925927 39.297222222222224)"/></g><path d="M683.07 351.2H742.5" stroke="#333" fill="none"/><path d="M683.08 351.7h-.54l.03-.5-.02-.5h.53z" stroke="#333" stroke-width=".05" fill="#333"/><path d="M757.26 351.2L743 355.84v-9.27z" stroke="#333" fill="#333"/><path d="M16.4 21.22a8 8 0 0 1 8-8h350.45a8 8 0 0 1 8 8v65.5a8 8 0 0 1-8 8H24.4a8 8 0 0 1-8-8z" stroke="#000" stroke-opacity="0" fill="#fff" fill-opacity="0"/><g><use xlink:href="#H" transform="matrix(1,0,0,1,21.40032682728355,18.223747984780104) translate(0 26.844444444444434)"/><use xlink:href="#I" transform="matrix(1,0,0,1,21.40032682728355,18.223747984780104) translate(95.07407407407405 26.844444444444434)"/><use xlink:href="#J" transform="matrix(1,0,0,1,21.40032682728355,18.223747984780104) translate(0 59.99999999999997)"/><use xlink:href="#K" transform="matrix(1,0,0,1,21.40032682728355,18.223747984780104) translate(67.14814814814811 59.99999999999997)"/><use xlink:href="#L" transform="matrix(1,0,0,1,21.40032682728355,18.223747984780104) translate(102.7092592592592 59.99999999999997)"/><use xlink:href="#M" transform="matrix(1,0,0,1,21.40032682728355,18.223747984780104) translate(183.35555555555544 59.99999999999997)"/><use xlink:href="#N" transform="matrix(1,0,0,1,21.40032682728355,18.223747984780104) translate(178.5 96.71111111111107)"/><use xlink:href="#O" transform="matrix(1,0,0,1,21.40032682728355,18.223747984780104) translate(178.5 136.9777777777777)"/></g><path d="M1156.87 858.86c17.67 0 32 17.9 32 40s-14.33 40-32 40h-96c-17.67 0-32-17.9-32-40s14.33-40 32-40z" stroke="#000" stroke-opacity="0" fill="#5358d3"/><g><use xlink:href="#D" transform="matrix(1,0,0,1,1033.870106853387,863.8559622015035) translate(60.20987654320989 39.297222222222224)"/></g><defs><path d="M30 0v-248h187v28H63v79h144v27H63v87h162V0H30" id="P"/><path d="M141-36C126-15 110 5 73 4 37 3 15-17 15-53c-1-64 63-63 125-63 3-35-9-54-41-54-24 1-41 7-42 31l-33-3c5-37 33-52 76-52 45 0 72 20 72 64v82c-1 20 7 32 28 27v20c-31 9-61-2-59-35zM48-53c0 20 12 33 32 33 41-3 63-29 60-74-43 2-92-5-92 41" id="Q"/><path d="M96-169c-40 0-48 33-48 73s9 75 48 75c24 0 41-14 43-38l32 2c-6 37-31 61-74 61-59 0-76-41-82-99-10-93 101-131 147-64 4 7 5 14 7 22l-32 3c-4-21-16-35-41-35" id="R"/><path d="M106-169C34-169 62-67 57 0H25v-261h32l-1 103c12-21 28-36 61-36 89 0 53 116 60 194h-32v-121c2-32-8-49-39-48" id="S"/><g id="a"><use transform="matrix(0.05,0,0,0.05,0,0)" xlink:href="#P"/><use transform="matrix(0.05,0,0,0.05,12,0)" xlink:href="#Q"/><use transform="matrix(0.05,0,0,0.05,22,0)" xlink:href="#R"/><use transform="matrix(0.05,0,0,0.05,31,0)" xlink:href="#S"/></g><path d="M24 0v-261h32V0H24" id="T"/><path d="M24-231v-30h32v30H24zM24 0v-190h32V0H24" id="U"/><path d="M135-143c-3-34-86-38-87 0 15 53 115 12 119 90S17 21 10-45l28-5c4 36 97 45 98 0-10-56-113-15-118-90-4-57 82-63 122-42 12 7 21 19 24 35" id="V"/><path d="M59-47c-2 24 18 29 38 22v24C64 9 27 4 27-40v-127H5v-23h24l9-43h21v43h35v23H59v120" id="W"/><g id="b"><use transform="matrix(0.05,0,0,0.05,0,0)" xlink:href="#T"/><use transform="matrix(0.05,0,0,0.05,3.95,0)" xlink:href="#U"/><use transform="matrix(0.05,0,0,0.05,7.9,0)" xlink:href="#V"/><use transform="matrix(0.05,0,0,0.05,16.9,0)" xlink:href="#W"/></g><path fill="#fff" d="M185-189c-5-48-123-54-124 2 14 75 158 14 163 119 3 78-121 87-175 55-17-10-28-26-33-46l33-7c5 56 141 63 141-1 0-78-155-14-162-118-5-82 145-84 179-34 5 7 8 16 11 25" id="X"/><path fill="#fff" d="M59-47c-2 24 18 29 38 22v24C64 9 27 4 27-40v-127H5v-23h24l9-43h21v43h35v23H59v120" id="Y"/><path fill="#fff" d="M141-36C126-15 110 5 73 4 37 3 15-17 15-53c-1-64 63-63 125-63 3-35-9-54-41-54-24 1-41 7-42 31l-33-3c5-37 33-52 76-52 45 0 72 20 72 64v82c-1 20 7 32 28 27v20c-31 9-61-2-59-35zM48-53c0 20 12 33 32 33 41-3 63-29 60-74-43 2-92-5-92 41" id="Z"/><path fill="#fff" d="M114-163C36-179 61-72 57 0H25l-1-190h30c1 12-1 29 2 39 6-27 23-49 58-41v29" id="aa"/><g id="c"><use transform="matrix(0.04938271604938272,0,0,0.04938271604938272,0,0)" xlink:href="#X"/><use transform="matrix(0.04938271604938272,0,0,0.04938271604938272,11.851851851851853,0)" xlink:href="#Y"/><use transform="matrix(0.04938271604938272,0,0,0.04938271604938272,16.790123456790127,0)" xlink:href="#Z"/><use transform="matrix(0.04938271604938272,0,0,0.04938271604938272,26.666666666666668,0)" xlink:href="#aa"/><use transform="matrix(0.04938271604938272,0,0,0.04938271604938272,32.543209876543216,0)" xlink:href="#Y"/></g><g id="d"><use transform="matrix(0.04938271604938272,0,0,0.04938271604938272,0,0)" xlink:href="#Z"/><use transform="matrix(0.04938271604938272,0,0,0.04938271604938272,9.876543209876544,0)" xlink:href="#Y"/></g><path fill="#fff" d="M85-194c31 0 48 13 60 33l-1-100h32l1 261h-30c-2-10 0-23-3-31C134-8 116 4 85 4 32 4 16-35 15-94c0-66 23-100 70-100zm9 24c-40 0-46 34-46 75 0 40 6 74 45 74 42 0 51-32 51-76 0-42-9-74-50-73" id="ab"/><path fill="#fff" d="M100-194c63 0 86 42 84 106H49c0 40 14 67 53 68 26 1 43-12 49-29l28 8c-11 28-37 45-77 45C44 4 14-33 15-96c1-61 26-98 85-98zm52 81c6-60-76-77-97-28-3 7-6 17-6 28h103" id="ac"/><path fill="#fff" d="M101-234c-31-9-42 10-38 44h38v23H63V0H32v-167H5v-23h27c-7-52 17-82 69-68v24" id="ad"/><path fill="#fff" d="M84 4C-5 8 30-112 23-190h32v120c0 31 7 50 39 49 72-2 45-101 50-169h31l1 190h-30c-1-10 1-25-2-33-11 22-28 36-60 37" id="ae"/><path fill="#fff" d="M24 0v-261h32V0H24" id="af"/><g id="e"><use transform="matrix(0.04938271604938272,0,0,0.04938271604938272,0,0)" xlink:href="#ab"/><use transform="matrix(0.04938271604938272,0,0,0.04938271604938272,9.876543209876544,0)" xlink:href="#ac"/><use transform="matrix(0.04938271604938272,0,0,0.04938271604938272,19.75308641975309,0)" xlink:href="#ad"/><use transform="matrix(0.04938271604938272,0,0,0.04938271604938272,24.69135802469136,0)" xlink:href="#Z"/><use transform="matrix(0.04938271604938272,0,0,0.04938271604938272,34.567901234567906,0)" xlink:href="#ae"/><use transform="matrix(0.04938271604938272,0,0,0.04938271604938272,44.44444444444445,0)" xlink:href="#af"/><use transform="matrix(0.04938271604938272,0,0,0.04938271604938272,48.345679012345684,0)" xlink:href="#Y"/></g><path fill="#fff" d="M27 0v-27h64v-190l-56 39v-29l58-41h29v221h61V0H27" id="ag"/><path fill="#fff" d="M101-251c68 0 85 55 85 127S166 4 100 4C33 4 14-52 14-124c0-73 17-127 87-127zm-1 229c47 0 54-49 54-102s-4-102-53-102c-51 0-55 48-55 102 0 53 5 102 54 102" id="ah"/><path fill="#fff" d="M126-127c33 6 58 20 58 59 0 88-139 92-164 29-3-8-5-16-6-25l32-3c6 27 21 44 54 44 32 0 52-15 52-46 0-38-36-46-79-43v-28c39 1 72-4 72-42 0-27-17-43-46-43-28 0-47 15-49 41l-32-3c6-42 35-63 81-64 48-1 79 21 79 65 0 36-21 52-52 59" id="ai"/><g id="f"><use transform="matrix(0.04938271604938272,0,0,0.04938271604938272,0,0)" xlink:href="#ag"/><use transform="matrix(0.04938271604938272,0,0,0.04938271604938272,9.876543209876544,0)" xlink:href="#ah"/><use transform="matrix(0.04938271604938272,0,0,0.04938271604938272,19.75308641975309,0)" xlink:href="#ai"/><use transform="matrix(0.04938271604938272,0,0,0.04938271604938272,29.629629629629633,0)" xlink:href="#ah"/></g><path fill="#fff" d="M232-93c-1 65-40 97-104 97C67 4 28-28 28-90v-158h33c8 89-33 224 67 224 102 0 64-133 71-224h33v155" id="aj"/><path fill="#fff" d="M127-220V0H93v-220H8v-28h204v28h-85" id="ak"/><path fill="#fff" d="M212-179c-10-28-35-45-73-45-59 0-87 40-87 99 0 60 29 101 89 101 43 0 62-24 78-52l27 14C228-24 195 4 139 4 59 4 22-46 18-125c-6-104 99-153 187-111 19 9 31 26 39 46" id="al"/><g id="g"><use transform="matrix(0.04938271604938272,0,0,0.04938271604938272,0,0)" xlink:href="#aj"/><use transform="matrix(0.04938271604938272,0,0,0.04938271604938272,12.790123456790125,0)" xlink:href="#ak"/><use transform="matrix(0.04938271604938272,0,0,0.04938271604938272,23.60493827160494,0)" xlink:href="#al"/></g><path fill="#333" d="M197 0v-115H63V0H30v-248h33v105h134v-105h34V0h-34" id="am"/><path fill="#333" d="M141-36C126-15 110 5 73 4 37 3 15-17 15-53c-1-64 63-63 125-63 3-35-9-54-41-54-24 1-41 7-42 31l-33-3c5-37 33-52 76-52 45 0 72 20 72 64v82c-1 20 7 32 28 27v20c-31 9-61-2-59-35zM48-53c0 20 12 33 32 33 41-3 63-29 60-74-43 2-92-5-92 41" id="an"/><path fill="#333" d="M135-143c-3-34-86-38-87 0 15 53 115 12 119 90S17 21 10-45l28-5c4 36 97 45 98 0-10-56-113-15-118-90-4-57 82-63 122-42 12 7 21 19 24 35" id="ao"/><g id="h"><use transform="matrix(0.04938271604938272,0,0,0.04938271604938272,0,0)" xlink:href="#am"/><use transform="matrix(0.04938271604938272,0,0,0.04938271604938272,12.790123456790125,0)" xlink:href="#an"/><use transform="matrix(0.04938271604938272,0,0,0.04938271604938272,22.66666666666667,0)" xlink:href="#ao"/></g><path fill="#333" d="M24-231v-30h32v30H24zM24 0v-190h32V0H24" id="ap"/><path fill="#333" d="M59-47c-2 24 18 29 38 22v24C64 9 27 4 27-40v-127H5v-23h24l9-43h21v43h35v23H59v120" id="aq"/><g id="i"><use transform="matrix(0.04938271604938272,0,0,0.04938271604938272,0,0)" xlink:href="#ap"/><use transform="matrix(0.04938271604938272,0,0,0.04938271604938272,3.901234567901235,0)" xlink:href="#aq"/></g><path fill="#333" d="M115-194c53 0 69 39 70 98 0 66-23 100-70 100C84 3 66-7 56-30L54 0H23l1-261h32v101c10-23 28-34 59-34zm-8 174c40 0 45-34 45-75 0-40-5-75-45-74-42 0-51 32-51 76 0 43 10 73 51 73" id="ar"/><path fill="#333" d="M100-194c63 0 86 42 84 106H49c0 40 14 67 53 68 26 1 43-12 49-29l28 8c-11 28-37 45-77 45C44 4 14-33 15-96c1-61 26-98 85-98zm52 81c6-60-76-77-97-28-3 7-6 17-6 28h103" id="as"/><path fill="#333" d="M117-194c89-4 53 116 60 194h-32v-121c0-31-8-49-39-48C34-167 62-67 57 0H25l-1-190h30c1 10-1 24 2 32 11-22 29-35 61-36" id="at"/><g id="j"><use transform="matrix(0.04938271604938272,0,0,0.04938271604938272,0,0)" xlink:href="#ar"/><use transform="matrix(0.04938271604938272,0,0,0.04938271604938272,9.876543209876544,0)" xlink:href="#as"/><use transform="matrix(0.04938271604938272,0,0,0.04938271604938272,19.75308641975309,0)" xlink:href="#as"/><use transform="matrix(0.04938271604938272,0,0,0.04938271604938272,29.629629629629633,0)" xlink:href="#at"/></g><path fill="#333" d="M195 0l-74-108L45 0H8l94-129-87-119h37l69 98 67-98h37l-84 118L233 0h-38" id="au"/><use transform="matrix(0.04938271604938272,0,0,0.04938271604938272,0,0)" xlink:href="#au" id="k"/><path fill="#333" d="M206 0h-36l-40-164L89 0H53L-1-190h32L70-26l43-164h34l41 164 42-164h31" id="av"/><path fill="#333" d="M143 0L79-87 56-68V0H24v-261h32v163l83-92h37l-77 82L181 0h-38" id="aw"/><g id="l"><use transform="matrix(0.04938271604938272,0,0,0.04938271604938272,0,0)" xlink:href="#av"/><use transform="matrix(0.04938271604938272,0,0,0.04938271604938272,12.790123456790125,0)" xlink:href="#as"/><use transform="matrix(0.04938271604938272,0,0,0.04938271604938272,22.66666666666667,0)" xlink:href="#as"/><use transform="matrix(0.04938271604938272,0,0,0.04938271604938272,32.543209876543216,0)" xlink:href="#aw"/><use transform="matrix(0.04938271604938272,0,0,0.04938271604938272,41.4320987654321,0)" xlink:href="#ao"/></g><path fill="#333" d="M96-169c-40 0-48 33-48 73s9 75 48 75c24 0 41-14 43-38l32 2c-6 37-31 61-74 61-59 0-76-41-82-99-10-93 101-131 147-64 4 7 5 14 7 22l-32 3c-4-21-16-35-41-35" id="ax"/><g id="m"><use transform="matrix(0.04938271604938272,0,0,0.04938271604938272,0,0)" xlink:href="#ao"/><use transform="matrix(0.04938271604938272,0,0,0.04938271604938272,8.88888888888889,0)" xlink:href="#ap"/><use transform="matrix(0.04938271604938272,0,0,0.04938271604938272,12.790123456790125,0)" xlink:href="#at"/><use transform="matrix(0.04938271604938272,0,0,0.04938271604938272,22.666666666666668,0)" xlink:href="#ax"/><use transform="matrix(0.04938271604938272,0,0,0.04938271604938272,31.555555555555557,0)" xlink:href="#as"/></g><path fill="#333" d="M106-169C34-169 62-67 57 0H25v-261h32l-1 103c12-21 28-36 61-36 89 0 53 116 60 194h-32v-121c2-32-8-49-39-48" id="ay"/><g id="n"><use transform="matrix(0.04938271604938272,0,0,0.04938271604938272,0,0)" xlink:href="#aq"/><use transform="matrix(0.04938271604938272,0,0,0.04938271604938272,4.938271604938272,0)" xlink:href="#ay"/><use transform="matrix(0.04938271604938272,0,0,0.04938271604938272,14.814814814814817,0)" xlink:href="#as"/></g><path fill="#333" d="M101-234c-31-9-42 10-38 44h38v23H63V0H32v-167H5v-23h27c-7-52 17-82 69-68v24" id="az"/><path fill="#333" d="M114-163C36-179 61-72 57 0H25l-1-190h30c1 12-1 29 2 39 6-27 23-49 58-41v29" id="aA"/><g id="o"><use transform="matrix(0.04938271604938272,0,0,0.04938271604938272,0,0)" xlink:href="#az"/><use transform="matrix(0.04938271604938272,0,0,0.04938271604938272,4.938271604938272,0)" xlink:href="#ap"/><use transform="matrix(0.04938271604938272,0,0,0.04938271604938272,8.839506172839506,0)" xlink:href="#aA"/><use transform="matrix(0.04938271604938272,0,0,0.04938271604938272,14.71604938271605,0)" xlink:href="#ao"/><use transform="matrix(0.04938271604938272,0,0,0.04938271604938272,23.60493827160494,0)" xlink:href="#aq"/></g><path fill="#333" d="M24 0v-261h32V0H24" id="aB"/><g id="p"><use transform="matrix(0.04938271604938272,0,0,0.04938271604938272,0,0)" xlink:href="#aB"/><use transform="matrix(0.04938271604938272,0,0,0.04938271604938272,3.901234567901235,0)" xlink:href="#ap"/><use transform="matrix(0.04938271604938272,0,0,0.04938271604938272,7.80246913580247,0)" xlink:href="#ao"/><use transform="matrix(0.04938271604938272,0,0,0.04938271604938272,16.69135802469136,0)" xlink:href="#aq"/></g><path fill="#333" d="M210-169c-67 3-38 105-44 169h-31v-121c0-29-5-50-35-48C34-165 62-65 56 0H25l-1-190h30c1 10-1 24 2 32 10-44 99-50 107 0 11-21 27-35 58-36 85-2 47 119 55 194h-31v-121c0-29-5-49-35-48" id="aC"/><g id="q"><use transform="matrix(0.04938271604938272,0,0,0.04938271604938272,0,0)" xlink:href="#ap"/><use transform="matrix(0.04938271604938272,0,0,0.04938271604938272,3.901234567901235,0)" xlink:href="#aq"/><use transform="matrix(0.04938271604938272,0,0,0.04938271604938272,8.839506172839506,0)" xlink:href="#as"/><use transform="matrix(0.04938271604938272,0,0,0.04938271604938272,18.71604938271605,0)" xlink:href="#aC"/></g><g id="r"><use transform="matrix(0.04938271604938272,0,0,0.04938271604938272,0,0)" xlink:href="#ay"/><use transform="matrix(0.04938271604938272,0,0,0.04938271604938272,9.876543209876544,0)" xlink:href="#an"/><use transform="matrix(0.04938271604938272,0,0,0.04938271604938272,19.75308641975309,0)" xlink:href="#ao"/></g><path fill="#333" d="M115-194c55 1 70 41 70 98S169 2 115 4C84 4 66-9 55-30l1 105H24l-1-265h31l2 30c10-21 28-34 59-34zm-8 174c40 0 45-34 45-75s-6-73-45-74c-42 0-51 32-51 76 0 43 10 73 51 73" id="aD"/><path fill="#333" d="M84 4C-5 8 30-112 23-190h32v120c0 31 7 50 39 49 72-2 45-101 50-169h31l1 190h-30c-1-10 1-25-2-33-11 22-28 36-60 37" id="aE"/><path fill="#333" d="M85-194c31 0 48 13 60 33l-1-100h32l1 261h-30c-2-10 0-23-3-31C134-8 116 4 85 4 32 4 16-35 15-94c0-66 23-100 70-100zm9 24c-40 0-46 34-46 75 0 40 6 74 45 74 42 0 51-32 51-76 0-42-9-74-50-73" id="aF"/><g id="s"><use transform="matrix(0.04938271604938272,0,0,0.04938271604938272,0,0)" xlink:href="#aD"/><use transform="matrix(0.04938271604938272,0,0,0.04938271604938272,9.876543209876544,0)" xlink:href="#aE"/><use transform="matrix(0.04938271604938272,0,0,0.04938271604938272,19.75308641975309,0)" xlink:href="#ar"/><use transform="matrix(0.04938271604938272,0,0,0.04938271604938272,29.629629629629633,0)" xlink:href="#aB"/><use transform="matrix(0.04938271604938272,0,0,0.04938271604938272,33.53086419753087,0)" xlink:href="#ap"/><use transform="matrix(0.04938271604938272,0,0,0.04938271604938272,37.4320987654321,0)" xlink:href="#ao"/><use transform="matrix(0.04938271604938272,0,0,0.04938271604938272,46.32098765432099,0)" xlink:href="#ay"/><use transform="matrix(0.04938271604938272,0,0,0.04938271604938272,56.19753086419754,0)" xlink:href="#as"/><use transform="matrix(0.04938271604938272,0,0,0.04938271604938272,66.07407407407408,0)" xlink:href="#aF"/></g><path fill="#333" d="M100-194c62-1 85 37 85 99 1 63-27 99-86 99S16-35 15-95c0-66 28-99 85-99zM99-20c44 1 53-31 53-75 0-43-8-75-51-75s-53 32-53 75 10 74 51 75" id="aG"/><g id="t"><use transform="matrix(0.04938271604938272,0,0,0.04938271604938272,0,0)" xlink:href="#aG"/><use transform="matrix(0.04938271604938272,0,0,0.04938271604938272,9.876543209876544,0)" xlink:href="#aA"/></g><use transform="matrix(0.04938271604938272,0,0,0.04938271604938272,0,0)" xlink:href="#au" id="u"/><g id="v"><use transform="matrix(0.04938271604938272,0,0,0.04938271604938272,0,0)" xlink:href="#aB"/><use transform="matrix(0.04938271604938272,0,0,0.04938271604938272,3.901234567901235,0)" xlink:href="#an"/><use transform="matrix(0.04938271604938272,0,0,0.04938271604938272,13.777777777777779,0)" xlink:href="#ao"/><use transform="matrix(0.04938271604938272,0,0,0.04938271604938272,22.666666666666668,0)" xlink:href="#aq"/></g><g id="w"><use transform="matrix(0.04938271604938272,0,0,0.04938271604938272,0,0)" xlink:href="#an"/><use transform="matrix(0.04938271604938272,0,0,0.04938271604938272,9.876543209876544,0)" xlink:href="#at"/><use transform="matrix(0.04938271604938272,0,0,0.04938271604938272,19.75308641975309,0)" xlink:href="#at"/><use transform="matrix(0.04938271604938272,0,0,0.04938271604938272,29.629629629629633,0)" xlink:href="#aE"/><use transform="matrix(0.04938271604938272,0,0,0.04938271604938272,39.50617283950618,0)" xlink:href="#an"/><use transform="matrix(0.04938271604938272,0,0,0.04938271604938272,49.38271604938272,0)" xlink:href="#aB"/></g><path fill="#333" d="M108 0H70L1-190h34L89-25l56-165h34" id="aH"/><g id="x"><use transform="matrix(0.04938271604938272,0,0,0.04938271604938272,0,0)" xlink:href="#aA"/><use transform="matrix(0.04938271604938272,0,0,0.04938271604938272,5.8765432098765435,0)" xlink:href="#as"/><use transform="matrix(0.04938271604938272,0,0,0.04938271604938272,15.753086419753087,0)" xlink:href="#aH"/><use transform="matrix(0.04938271604938272,0,0,0.04938271604938272,24.641975308641978,0)" xlink:href="#ap"/><use transform="matrix(0.04938271604938272,0,0,0.04938271604938272,28.543209876543212,0)" xlink:href="#as"/><use transform="matrix(0.04938271604938272,0,0,0.04938271604938272,38.41975308641976,0)" xlink:href="#av"/></g><path fill="#333" d="M30 0v-248h33v221h125V0H30" id="aI"/><path fill="#333" d="M33 0v-38h34V0H33" id="aJ"/><path fill="#333" d="M205 0l-28-72H64L36 0H1l101-248h38L239 0h-34zm-38-99l-47-123c-12 45-31 82-46 123h93" id="aK"/><path fill="#333" d="M233-177c-1 41-23 64-60 70L243 0h-38l-65-103H63V0H30v-248c88 3 205-21 203 71zM63-129c60-2 137 13 137-47 0-61-80-42-137-45v92" id="aL"/><g id="y"><use transform="matrix(0.04938271604938272,0,0,0.04938271604938272,0,0)" xlink:href="#aI"/><use transform="matrix(0.04938271604938272,0,0,0.04938271604938272,9.876543209876544,0)" xlink:href="#ap"/><use transform="matrix(0.04938271604938272,0,0,0.04938271604938272,13.777777777777779,0)" xlink:href="#ao"/><use transform="matrix(0.04938271604938272,0,0,0.04938271604938272,22.666666666666668,0)" xlink:href="#aq"/><use transform="matrix(0.04938271604938272,0,0,0.04938271604938272,27.60493827160494,0)" xlink:href="#aJ"/><use transform="matrix(0.04938271604938272,0,0,0.04938271604938272,32.543209876543216,0)" xlink:href="#ap"/><use transform="matrix(0.04938271604938272,0,0,0.04938271604938272,36.44444444444445,0)" xlink:href="#ao"/><use transform="matrix(0.04938271604938272,0,0,0.04938271604938272,45.33333333333334,0)" xlink:href="#aK"/><use transform="matrix(0.04938271604938272,0,0,0.04938271604938272,57.185185185185205,0)" xlink:href="#at"/><use transform="matrix(0.04938271604938272,0,0,0.04938271604938272,67.06172839506175,0)" xlink:href="#at"/><use transform="matrix(0.04938271604938272,0,0,0.04938271604938272,76.9382716049383,0)" xlink:href="#aE"/><use transform="matrix(0.04938271604938272,0,0,0.04938271604938272,86.81481481481484,0)" xlink:href="#an"/><use transform="matrix(0.04938271604938272,0,0,0.04938271604938272,96.69135802469138,0)" xlink:href="#aB"/><use transform="matrix(0.04938271604938272,0,0,0.04938271604938272,100.59259259259262,0)" xlink:href="#aL"/><use transform="matrix(0.04938271604938272,0,0,0.04938271604938272,113.38271604938275,0)" xlink:href="#as"/><use transform="matrix(0.04938271604938272,0,0,0.04938271604938272,123.2592592592593,0)" xlink:href="#aH"/><use transform="matrix(0.04938271604938272,0,0,0.04938271604938272,132.14814814814818,0)" xlink:href="#ap"/><use transform="matrix(0.04938271604938272,0,0,0.04938271604938272,136.04938271604942,0)" xlink:href="#as"/><use transform="matrix(0.04938271604938272,0,0,0.04938271604938272,145.92592592592598,0)" xlink:href="#av"/><path fill="#8080ff" d="M-.9 1.23h160.5v1.3H-.9z"/></g><path fill="#333" d="M18-150v-26h174v26H18zm0 90v-26h174v26H18" id="aM"/><use transform="matrix(0.04938271604938272,0,0,0.04938271604938272,0,0)" xlink:href="#aM" id="z"/><path fill="#333" d="M103-251c84 0 111 97 45 133-19 10-37 24-39 52H78c0-63 77-55 77-114 0-30-21-42-52-43-32 0-53 17-56 46l-32-2c7-45 34-72 88-72zM77 0v-35h34V0H77" id="aN"/><g id="A"><use transform="matrix(0.04938271604938272,0,0,0.04938271604938272,0,0)" xlink:href="#aq"/><use transform="matrix(0.04938271604938272,0,0,0.04938271604938272,4.938271604938272,0)" xlink:href="#aA"/><use transform="matrix(0.04938271604938272,0,0,0.04938271604938272,10.814814814814817,0)" xlink:href="#aE"/><use transform="matrix(0.04938271604938272,0,0,0.04938271604938272,20.69135802469136,0)" xlink:href="#as"/><use transform="matrix(0.04938271604938272,0,0,0.04938271604938272,30.567901234567906,0)" xlink:href="#aN"/></g><path fill="#333" d="M190 0L58-211 59 0H30v-248h39L202-35l-2-213h31V0h-41" id="aO"/><g id="B"><use transform="matrix(0.05,0,0,0.05,0,0)" xlink:href="#aO"/><use transform="matrix(0.05,0,0,0.05,12.950000000000001,0)" xlink:href="#aG"/></g><path fill="#333" d="M137-103V0h-34v-103L8-248h37l75 118 75-118h37" id="aP"/><g id="C"><use transform="matrix(0.05,0,0,0.05,0,0)" xlink:href="#aP"/><use transform="matrix(0.05,0,0,0.05,10.35,0)" xlink:href="#as"/><use transform="matrix(0.05,0,0,0.05,20.35,0)" xlink:href="#ao"/></g><path fill="#fff" d="M30 0v-248h187v28H63v79h144v27H63v87h162V0H30" id="aQ"/><path fill="#fff" d="M141 0L90-78 38 0H4l68-98-65-92h35l48 74 47-74h35l-64 92 68 98h-35" id="aR"/><path fill="#fff" d="M24-231v-30h32v30H24zM24 0v-190h32V0H24" id="aS"/><g id="D"><use transform="matrix(0.04938271604938272,0,0,0.04938271604938272,0,0)" xlink:href="#aQ"/><use transform="matrix(0.04938271604938272,0,0,0.04938271604938272,11.851851851851853,0)" xlink:href="#aR"/><use transform="matrix(0.04938271604938272,0,0,0.04938271604938272,20.74074074074074,0)" xlink:href="#aS"/><use transform="matrix(0.04938271604938272,0,0,0.04938271604938272,24.641975308641975,0)" xlink:href="#Y"/></g><g id="E"><use transform="matrix(0.05,0,0,0.05,0,0)" xlink:href="#X"/><use transform="matrix(0.05,0,0,0.05,12,0)" xlink:href="#ac"/><use transform="matrix(0.05,0,0,0.05,22,0)" xlink:href="#Y"/></g><path fill="#fff" d="M30 0v-248h33v221h125V0H30" id="aT"/><path fill="#fff" d="M135-143c-3-34-86-38-87 0 15 53 115 12 119 90S17 21 10-45l28-5c4 36 97 45 98 0-10-56-113-15-118-90-4-57 82-63 122-42 12 7 21 19 24 35" id="aU"/><path fill="#fff" d="M33 0v-38h34V0H33" id="aV"/><path fill="#fff" d="M24-231v-30h32v30H24zM-9 49c24 4 33-6 33-30v-209h32V24c2 40-23 58-65 49V49" id="aW"/><path fill="#fff" d="M100-194c62-1 85 37 85 99 1 63-27 99-86 99S16-35 15-95c0-66 28-99 85-99zM99-20c44 1 53-31 53-75 0-43-8-75-51-75s-53 32-53 75 10 74 51 75" id="aX"/><path fill="#fff" d="M117-194c89-4 53 116 60 194h-32v-121c0-31-8-49-39-48C34-167 62-67 57 0H25l-1-190h30c1 10-1 24 2 32 11-22 29-35 61-36" id="aY"/><path fill="#fff" d="M30-248c118-7 216 8 213 122C240-48 200 0 122 0H30v-248zM63-27c89 8 146-16 146-99s-60-101-146-95v194" id="aZ"/><path fill="#fff" d="M96-169c-40 0-48 33-48 73s9 75 48 75c24 0 41-14 43-38l32 2c-6 37-31 61-74 61-59 0-76-41-82-99-10-93 101-131 147-64 4 7 5 14 7 22l-32 3c-4-21-16-35-41-35" id="ba"/><path fill="#fff" d="M205 0l-28-72H64L36 0H1l101-248h38L239 0h-34zm-38-99l-47-123c-12 45-31 82-46 123h93" id="bb"/><path fill="#fff" d="M233-177c-1 41-23 64-60 70L243 0h-38l-65-103H63V0H30v-248c88 3 205-21 203 71zM63-129c60-2 137 13 137-47 0-61-80-42-137-45v92" id="bc"/><path fill="#fff" d="M108 0H70L1-190h34L89-25l56-165h34" id="bd"/><path fill="#fff" d="M206 0h-36l-40-164L89 0H53L-1-190h32L70-26l43-164h34l41 164 42-164h31" id="be"/><g id="F"><use transform="matrix(0.05,0,0,0.05,0,0)" xlink:href="#aT"/><use transform="matrix(0.05,0,0,0.05,10,0)" xlink:href="#aS"/><use transform="matrix(0.05,0,0,0.05,13.949999999999998,0)" xlink:href="#aU"/><use transform="matrix(0.05,0,0,0.05,22.95,0)" xlink:href="#Y"/><use transform="matrix(0.05,0,0,0.05,27.950000000000003,0)" xlink:href="#aV"/><use transform="matrix(0.05,0,0,0.05,32.95,0)" xlink:href="#aW"/><use transform="matrix(0.05,0,0,0.05,36.900000000000006,0)" xlink:href="#aU"/><use transform="matrix(0.05,0,0,0.05,45.900000000000006,0)" xlink:href="#aX"/><use transform="matrix(0.05,0,0,0.05,55.900000000000006,0)" xlink:href="#aY"/><use transform="matrix(0.05,0,0,0.05,65.9,0)" xlink:href="#aZ"/><use transform="matrix(0.05,0,0,0.05,78.85000000000001,0)" xlink:href="#Z"/><use transform="matrix(0.05,0,0,0.05,88.85000000000001,0)" xlink:href="#Y"/><use transform="matrix(0.05,0,0,0.05,93.85000000000001,0)" xlink:href="#Z"/><use transform="matrix(0.05,0,0,0.05,103.85000000000001,0)" xlink:href="#aV"/><use transform="matrix(0.05,0,0,0.05,108.85000000000001,0)" xlink:href="#ba"/><use transform="matrix(0.05,0,0,0.05,117.85000000000001,0)" xlink:href="#ae"/><use transform="matrix(0.05,0,0,0.05,127.85000000000001,0)" xlink:href="#aa"/><use transform="matrix(0.05,0,0,0.05,133.8,0)" xlink:href="#aa"/><use transform="matrix(0.05,0,0,0.05,139.75,0)" xlink:href="#ac"/><use transform="matrix(0.05,0,0,0.05,149.75,0)" xlink:href="#aY"/><use transform="matrix(0.05,0,0,0.05,159.75,0)" xlink:href="#Y"/><use transform="matrix(0.05,0,0,0.05,164.75,0)" xlink:href="#bb"/><use transform="matrix(0.05,0,0,0.05,176.75,0)" xlink:href="#aY"/><use transform="matrix(0.05,0,0,0.05,186.75,0)" xlink:href="#aY"/><use transform="matrix(0.05,0,0,0.05,196.75,0)" xlink:href="#ae"/><use transform="matrix(0.05,0,0,0.05,206.75,0)" xlink:href="#Z"/><use transform="matrix(0.05,0,0,0.05,216.75,0)" xlink:href="#af"/><use transform="matrix(0.05,0,0,0.05,220.69999999999996,0)" xlink:href="#bc"/><use transform="matrix(0.05,0,0,0.05,233.64999999999998,0)" xlink:href="#ac"/><use transform="matrix(0.05,0,0,0.05,243.64999999999998,0)" xlink:href="#bd"/><use transform="matrix(0.05,0,0,0.05,252.64999999999998,0)" xlink:href="#aS"/><use transform="matrix(0.05,0,0,0.05,256.59999999999997,0)" xlink:href="#ac"/><use transform="matrix(0.05,0,0,0.05,266.59999999999997,0)" xlink:href="#be"/><path fill="#8080ff" d="M-.9 1.25h281.35v1.32H-.9z"/></g><g id="G"><use transform="matrix(0.04938271604938272,0,0,0.04938271604938272,0,0)" xlink:href="#X"/><use transform="matrix(0.04938271604938272,0,0,0.04938271604938272,11.851851851851853,0)" xlink:href="#Y"/><use transform="matrix(0.04938271604938272,0,0,0.04938271604938272,16.790123456790127,0)" xlink:href="#Z"/><use transform="matrix(0.04938271604938272,0,0,0.04938271604938272,26.666666666666668,0)" xlink:href="#aa"/><use transform="matrix(0.04938271604938272,0,0,0.04938271604938272,32.543209876543216,0)" xlink:href="#Y"/></g><path fill="#333" d="M160-131c35 5 61 23 61 61C221 17 115-2 30 0v-248c76 3 177-17 177 60 0 33-19 50-47 57zm-97-11c50-1 110 9 110-42 0-47-63-36-110-37v79zm0 115c55-2 124 14 124-45 0-56-70-42-124-44v89" id="bf"/><g id="H"><use transform="matrix(0.09320987654320984,0,0,0.09320987654320984,0,0)" xlink:href="#bf"/><use transform="matrix(0.09320987654320984,0,0,0.09320987654320984,22.37037037037036,0)" xlink:href="#an"/><use transform="matrix(0.09320987654320984,0,0,0.09320987654320984,41.01234567901233,0)" xlink:href="#aq"/><use transform="matrix(0.09320987654320984,0,0,0.09320987654320984,50.333333333333314,0)" xlink:href="#ax"/><use transform="matrix(0.09320987654320984,0,0,0.09320987654320984,67.11111111111109,0)" xlink:href="#ay"/></g><g id="I"><use transform="matrix(0.09320987654320984,0,0,0.09320987654320984,0,0)" xlink:href="#aD"/><use transform="matrix(0.09320987654320984,0,0,0.09320987654320984,18.641975308641968,0)" xlink:href="#aA"/><use transform="matrix(0.09320987654320984,0,0,0.09320987654320984,29.733950617283938,0)" xlink:href="#aG"/><use transform="matrix(0.09320987654320984,0,0,0.09320987654320984,48.375925925925905,0)" xlink:href="#ax"/><use transform="matrix(0.09320987654320984,0,0,0.09320987654320984,65.15370370370368,0)" xlink:href="#as"/><use transform="matrix(0.09320987654320984,0,0,0.09320987654320984,83.79567901234566,0)" xlink:href="#ao"/><use transform="matrix(0.09320987654320984,0,0,0.09320987654320984,100.57345679012343,0)" xlink:href="#ao"/></g><g id="J"><use transform="matrix(0.06851851851851848,0,0,0.06851851851851848,0,0)" xlink:href="#ao"/><use transform="matrix(0.06851851851851848,0,0,0.06851851851851848,12.333333333333327,0)" xlink:href="#as"/><use transform="matrix(0.06851851851851848,0,0,0.06851851851851848,26.037037037037027,0)" xlink:href="#aq"/><use transform="matrix(0.06851851851851848,0,0,0.06851851851851848,32.88888888888887,0)" xlink:href="#aE"/><use transform="matrix(0.06851851851851848,0,0,0.06851851851851848,46.59259259259257,0)" xlink:href="#aD"/></g><g id="K"><use transform="matrix(0.06851851851851848,0,0,0.06851851851851848,0,0)" xlink:href="#az"/><use transform="matrix(0.06851851851851848,0,0,0.06851851851851848,6.851851851851848,0)" xlink:href="#aG"/><use transform="matrix(0.06851851851851848,0,0,0.06851851851851848,20.555555555555543,0)" xlink:href="#aA"/></g><g id="L"><use transform="matrix(0.06851851851851848,0,0,0.06851851851851848,0,0)" xlink:href="#av"/><use transform="matrix(0.06851851851851848,0,0,0.06851851851851848,17.746296296296286,0)" xlink:href="#aG"/><use transform="matrix(0.06851851851851848,0,0,0.06851851851851848,31.44999999999998,0)" xlink:href="#aA"/><use transform="matrix(0.06851851851851848,0,0,0.06851851851851848,39.60370370370368,0)" xlink:href="#aw"/><use transform="matrix(0.06851851851851848,0,0,0.06851851851851848,51.93703703703701,0)" xlink:href="#as"/><use transform="matrix(0.06851851851851848,0,0,0.06851851851851848,65.64074074074071,0)" xlink:href="#aA"/></g><g id="M"><use transform="matrix(0.06851851851851848,0,0,0.06851851851851848,0,0)" xlink:href="#aD"/><use transform="matrix(0.06851851851851848,0,0,0.06851851851851848,13.703703703703695,0)" xlink:href="#aA"/><use transform="matrix(0.06851851851851848,0,0,0.06851851851851848,21.857407407407393,0)" xlink:href="#aG"/><use transform="matrix(0.06851851851851848,0,0,0.06851851851851848,35.56111111111109,0)" xlink:href="#ax"/><use transform="matrix(0.06851851851851848,0,0,0.06851851851851848,47.89444444444442,0)" xlink:href="#as"/><use transform="matrix(0.06851851851851848,0,0,0.06851851851851848,61.59814814814811,0)" xlink:href="#ao"/><use transform="matrix(0.06851851851851848,0,0,0.06851851851851848,73.93148148148144,0)" xlink:href="#ao"/></g></defs></g></svg>