<svg xmlns="http://www.w3.org/2000/svg" xmlns:xlink="http://www.w3.org/1999/xlink" xmlns:lucid="lucid" width="3251.17" height="2460.68"><g transform="translate(0 0)" lucid:page-tab-id="CyoaxV-i-LdT"><path d="M0 0h3251.17v2460.68H0z" fill="#fff"/><path d="M1564.98 1452.13a8 8 0 0 1 8-8h142.48a8 8 0 0 1 8 8v4.92a17.07 17.07 0 0 1-5 12.08 17.07 17.07 0 0 1-12.07 5h-133.42a8 8 0 0 1-8-8z" fill="#fff"/><path d="M1723.46 1444.13v20l-10 10h-148.48" stroke="#333" fill="none"/><path d="M1564.98 1452.13a8 8 0 0 1 8-8H3040.1a8 8 0 0 1 8 8v735.44a8 8 0 0 1-8 8H1573a8 8 0 0 1-8-8z" stroke="#333" fill="none"/><use xlink:href="#a" transform="matrix(1,0,0,1,1572.9819021565897,1444.1260067557284) translate(0 18.6)"/><use xlink:href="#b" transform="matrix(1,0,0,1,1572.9819021565897,1444.1260067557284) translate(46 18.6)"/><path d="M95.12 443.04a8 8 0 0 1 8-8h2293.05a8 8 0 0 1 8 8v736.23a8 8 0 0 1-8 8H103.12a8 8 0 0 1-8-8z" fill="#5a6c86" fill-opacity=".13"/><use xlink:href="#c" transform="matrix(1,0,0,1,95.11597401817016,455.0363036845424) translate(1116.8771604938272 26.844444444444434)"/><path d="M107.66 1346.58a8 8 0 0 1 8-8h2985.3a8 8 0 0 1 8 8v946.53a8 8 0 0 1-8 8H115.67a8 8 0 0 1-8-8z" fill="#5a6c86" fill-opacity=".13"/><use xlink:href="#d" transform="matrix(1,0,0,1,107.66447969734736,1358.5827336658906) translate(1419.254938271605 26.844444444444434)"/><path d="M1810.08 617.77c17.68 0 32 17.9 32 40s-14.32 40-32 40h-96c-17.67 0-32-17.9-32-40s14.33-40 32-40z" stroke="#000" stroke-opacity="0" fill="#5358d3"/><use xlink:href="#e" transform="matrix(1,0,0,1,1687.083858602506,622.7658468747916) translate(56.25925925925927 39.297222222222224)"/><path d="M249.3 595.84c17.68 0 32 17.9 32 40s-14.32 40-32 40h-96c-17.67 0-32-17.9-32-40s14.33-40 32-40z" stroke="#000" stroke-opacity="0" fill="#5358d3"/><use xlink:href="#e" transform="matrix(1,0,0,1,126.30778048154627,600.8366216208744) translate(56.25925925925927 39.297222222222224)"/><path d="M600.3 564.95a13.02 13.02 0 0 1 13.64 0l108.53 66.7a4.92 4.92 0 0 1 0 8.38l-108.53 66.7a13.02 13.02 0 0 1-13.63 0l-108.52-66.7a4.92 4.92 0 0 1 0-8.38z" stroke="#323580" stroke-width="4" fill="#fff"/><use xlink:href="#f" transform="matrix(1,0,0,1,489.76437380830185,565.5633045730588) translate(111.10993827160493 61.484722222222224)"/><use xlink:href="#g" transform="matrix(1,0,0,1,489.76437380830185,565.5633045730588) translate(50.46796296296296 82.81805555555556)"/><use xlink:href="#h" transform="matrix(1,0,0,1,489.76437380830185,565.5633045730588) translate(111.50500000000001 82.81805555555556)"/><use xlink:href="#i" transform="matrix(1,0,0,1,489.76437380830185,565.5633045730588) translate(137.18401234567904 82.81805555555556)"/><path d="M281.8 635.84h189.24" stroke="#333" fill="none"/><path d="M281.82 636.34h-.54l.03-.5v-.5h.52z" stroke="#333" stroke-width=".05" fill="#333"/><path d="M485.8 635.84l-14.26 4.63v-9.27z" stroke="#333" fill="#333"/><path d="M783.24 636.84h-55.4v-2h55.4zm67.25 0h-37.9v-2h37.9z" stroke="#008a0e" stroke-width=".05" fill="#008a0e"/><path d="M727.85 636.84h-1.13l.1-1-.1-1h1.13z" fill="#008a0e"/><path d="M727.88 636.86h-1.18l.1-1.02-.1-1.03h1.18zm-1.13-2l.1.98-.1.97h1.08v-1.94z" stroke="#008a0e" stroke-width=".05" fill="#008a0e"/><path d="M865.76 635.84l-14.27 4.63v-9.27z" fill="#008a0e"/><path d="M869 635.84l-18.5 6v-12zm-16.5 3.26l10.02-3.26-10.03-3.26z" stroke="#008a0e" stroke-width=".05" fill="#008a0e"/><use xlink:href="#j" transform="matrix(1,0,0,1,783.2361749739509,625.0366216208745) translate(0.005000000000000782 14.4)"/><path d="M976.08 556.75a11.04 11.04 0 0 1 12.95 0l102.68 74.4a5.8 5.8 0 0 1 0 9.38l-102.67 74.4a11.04 11.04 0 0 1-12.95 0l-102.68-74.4a5.8 5.8 0 0 1 0-9.4z" stroke="#323580" stroke-width="4" fill="#fff"/><use xlink:href="#k" transform="matrix(1,0,0,1,871.7233664959991,556.8611766059591) translate(44.95561728395061 81.60972222222223)"/><use xlink:href="#l" transform="matrix(1,0,0,1,871.7233664959991,556.8611766059591) translate(62.68401234567901 81.60972222222223)"/><use xlink:href="#m" transform="matrix(1,0,0,1,871.7233664959991,556.8611766059591) translate(123.72104938271606 81.60972222222223)"/><path d="M1351.92 634.84v2h-103.98v-2zm-254.8 2v-2h121.47v2z" stroke="#008a0e" stroke-width=".05" fill="#008a0e"/><path d="M1097.14 636.84h-1.12l.1-1-.1-1h1.12z" fill="#008a0e"/><path d="M1097.16 636.86H1096l.1-1.02-.1-1.03h1.16zm-1.12-2l.1.98-.1.97h1.07v-1.94z" stroke="#008a0e" stroke-width=".05" fill="#008a0e"/><path d="M1367.18 635.84l-14.26 4.63v-9.27z" fill="#008a0e"/><path d="M1370.42 635.84l-18.5 6v-12zm-16.5 3.26l10.03-3.26-10.03-3.26z" stroke="#008a0e" stroke-width=".05" fill="#008a0e"/><use xlink:href="#j" transform="matrix(1,0,0,1,1218.589816060005,625.0367635670157) translate(0.005000000000000782 14.4)"/><path d="M1842.58 657.77H1963.84" stroke="#333" fill="none"/><path d="M1842.6 658.27h-.55l.03-.5v-.5h.52z" stroke="#333" stroke-width=".05" fill="#333"/><path d="M1978.6 657.77l-14.25 4.63v-9.27z" stroke="#333" fill="#333"/><path d="M1661.94 558.55a8 8 0 0 1 8-8h142.48a8 8 0 0 1 8 8v4.93a17.07 17.07 0 0 1-5 12.07 17.07 17.07 0 0 1-12.07 5h-133.4a8 8 0 0 1-8-8z" fill="#fff"/><path d="M1820.42 550.55v20l-10 10h-148.48" stroke="#333" fill="none"/><path d="M1661.94 558.55a8 8 0 0 1 8-8h679.4a8 8 0 0 1 8 8V979.4a8 8 0 0 1-8 8h-679.4a8 8 0 0 1-8-8z" stroke="#333" fill="none"/><use xlink:href="#a" transform="matrix(1,0,0,1,1669.9420764668657,550.5548242093334) translate(0 18.6)"/><use xlink:href="#b" transform="matrix(1,0,0,1,1669.9420764668657,550.5548242093334) translate(46 18.6)"/><path d="M1980.73 615.98a8 8 0 0 1 8-8h168.1a8 8 0 0 1 8 8v83.57a8 8 0 0 1-8 8h-168.1a8 8 0 0 1-8-8z" stroke="#fff" fill="#5358d3"/><use xlink:href="#n" transform="matrix(1,0,0,1,1992.7301241511645,619.9797183369263) translate(0.625 40.525)"/><use xlink:href="#o" transform="matrix(1,0,0,1,1992.7301241511645,619.9797183369263) translate(32.625 40.525)"/><path d="M1370.92 593.06a8 8 0 0 1 8-8h168.1a8 8 0 0 1 8 8v83.57a8 8 0 0 1-8 8h-168.1a8 8 0 0 1-8-8z" stroke="#fff" fill="#5358d3"/><use xlink:href="#p" transform="matrix(1,0,0,1,1382.918709847831,597.0580368628733) translate(67 31.025)"/><use xlink:href="#q" transform="matrix(1,0,0,1,1382.918709847831,597.0580368628733) translate(0.15000000000000568 52.625)"/><path d="M1556.03 634.84h89.03" stroke="#333" fill="none"/><path d="M1556.04 635.34h-.5v-1h.5z" stroke="#333" stroke-width=".05" fill="#333"/><path d="M1659.82 634.84l-14.26 4.63v-9.27z" stroke="#333" fill="#333"/><path d="M1912.7 821.5a8 8 0 0 1 8-8h304.18a8 8 0 0 1 8 8v88.97a8 8 0 0 1-8 8h-304.2a8 8 0 0 1-8-8z" stroke="#fff" fill="#5358d3"/><use xlink:href="#r" transform="matrix(1,0,0,1,1924.690307866284,825.5101165412235) translate(76.55 21.99375)"/><use xlink:href="#s" transform="matrix(1,0,0,1,1924.690307866284,825.5101165412235) translate(111.55 21.99375)"/><use xlink:href="#t" transform="matrix(1,0,0,1,1924.690307866284,825.5101165412235) translate(25.575000000000017 43.59375)"/><use xlink:href="#u" transform="matrix(1,0,0,1,1924.690307866284,825.5101165412235) translate(86.14999999999999 65.19375000000001)"/><use xlink:href="#v" transform="matrix(1,0,0,1,1924.690307866284,825.5101165412235) translate(129 65.19375000000001)"/><path d="M2072.78 708.55v88.08" stroke="#333" fill="none"/><path d="M2073.28 708.57h-1v-.52h1z" stroke="#333" stroke-width=".05" fill="#333"/><path d="M2072.78 811.4l-4.63-14.27h9.27z" stroke="#333" fill="#333"/><path d="M980.2 803.88h-2V781.5h2zm3.35-43.98h-2v-39.88h2z" stroke="#e81313" stroke-width=".05" fill="#e81313"/><path d="M982.55 719.02l1-.06v1.1h-2v-1.1z" fill="#e81313"/><path d="M982.55 719l1.03-.07v1.14h-2.05v-1.14zm-.97 1.02h1.95V719l-.98.05-.97-.06z" stroke="#e81313" stroke-width=".05" fill="#e81313"/><path d="M979.2 819.15l-4.65-14.27h9.27z" fill="#e81313"/><path d="M979.2 822.38l-6.03-18.5h12.03zm-3.27-16.5l3.26 10.03 3.25-10.02z" stroke="#e81313" stroke-width=".05" fill="#e81313"/><use xlink:href="#w" transform="matrix(1,0,0,1,969.3949760957429,759.9022508623573) translate(0.005000000000000782 14.4)"/><path d="M972.42 826.34a12.65 12.65 0 0 1 13.53 0l98.74 62.43a5.06 5.06 0 0 1 0 8.55l-98.75 62.42a12.65 12.65 0 0 1-13.53 0l-98.74-62.42a5.06 5.06 0 0 1 0-8.55z" stroke="#323580" stroke-width="4" fill="#fff"/><use xlink:href="#x" transform="matrix(1,0,0,1,871.7233664959996,826.8683233386048) translate(44.36302469135803 71.45347222222223)"/><use xlink:href="#y" transform="matrix(1,0,0,1,871.7233664959996,826.8683233386048) translate(79.91858024691359 71.45347222222223)"/><use xlink:href="#z" transform="matrix(1,0,0,1,871.7233664959996,826.8683233386048) translate(127.22722222222222 71.45347222222223)"/><path d="M1810.08 756.92c17.68 0 32 17.9 32 40s-14.32 40-32 40h-96c-17.67 0-32-17.9-32-40s14.33-40 32-40z" stroke="#000" stroke-opacity="0" fill="#5358d3"/><use xlink:href="#A" transform="matrix(1,0,0,1,1687.083858602506,761.9225465617194) translate(56.25925925925927 28.359722222222224)"/><use xlink:href="#B" transform="matrix(1,0,0,1,1687.083858602506,761.9225465617194) translate(29.716049382716047 49.69305555555555)"/><use xlink:href="#C" transform="matrix(1,0,0,1,1687.083858602506,761.9225465617194) translate(72.03703703703704 49.69305555555555)"/><path d="M1842.58 796.92h37.14a12 12 0 0 0 12-12v-114.2a12 12 0 0 1 12-12h60.13" stroke="#333" fill="none"/><path d="M1842.6 797.42h-.55l.03-.5v-.5h.52z" stroke="#333" stroke-width=".05" fill="#333"/><path d="M1978.6 658.73l-14.25 4.63v-9.27z" stroke="#333" fill="#333"/><path d="M1360.6 894.04h-270.55v-2h270.54zm282.37 0h-253.03v-2h253.03z" stroke="#008a0e" stroke-width=".05" fill="#008a0e"/><path d="M1090.08 894.04h-1.13l.1-1-.1-1h1.13z" fill="#008a0e"/><path d="M1090.1 894.07h-1.18l.1-1.03-.1-1.02h1.18zm-1.12-2l.1.97-.1.98h1.07v-1.95z" stroke="#008a0e" stroke-width=".05" fill="#008a0e"/><path d="M1658.2 893.07l-14.27 4.6.02-9.26z" fill="#008a0e"/><path d="M1661.44 893.07l-18.5 6v-12.04zm-16.5 3.24l10.03-3.24-10.03-3.27z" stroke="#008a0e" stroke-width=".05" fill="#008a0e"/><use xlink:href="#j" transform="matrix(1,0,0,1,1360.5857308392203,882.244198905951) translate(0.005000000000000782 14.4)"/><path d="M1027.8 1044.87c17.67 0 32 17.9 32 40s-14.33 40-32 40h-96c-17.68 0-32-17.9-32-40s14.32-40 32-40z" stroke="#000" stroke-opacity="0" fill="#5358d3"/><use xlink:href="#D" transform="matrix(1,0,0,1,904.7946320611532,1049.8706682443592) translate(60.20987654320989 39.297222222222224)"/><path d="M980.2 1026.37h-2v-36.6h2zm0-58.2h-2v-3.46h2z" stroke="#e81313" stroke-width=".05" fill="#e81313"/><path d="M979.2 963.7l1-.05v1.08h-2v-1.08z" fill="#e81313"/><path d="M979.2 963.68l1-.06v1.14h-2.04v-1.14zm-1 1.03h1.96v-1.02l-.97.05-1-.05z" stroke="#e81313" stroke-width=".05" fill="#e81313"/><path d="M979.2 1041.63l-4.65-14.26h9.27z" fill="#e81313"/><path d="M979.2 1044.87l-6.03-18.5h12.03zm-3.27-16.5l3.26 10.03 3.25-10.03z" stroke="#e81313" stroke-width=".05" fill="#e81313"/><use xlink:href="#w" transform="matrix(1,0,0,1,967.7108222173658,968.1594846755866) translate(0.005000000000000782 14.4)"/><path d="M608.13 782.87h-2v-22.94h2zm0-44.53h-2v-26.7h2z" stroke="#e81313" stroke-width=".05" fill="#e81313"/><path d="M607.13 710.65l1-.05v1.08h-2v-1.08z" fill="#e81313"/><path d="M607.13 710.63l1.02-.06v1.13h-2.05v-1.13zm-.98 1.02h1.95v-1.03l-.97.06-.98-.06z" stroke="#e81313" stroke-width=".05" fill="#e81313"/><path d="M607.13 798.14l-4.64-14.27h9.26z" fill="#e81313"/><path d="M607.13 801.38l-6-18.5h12zm-3.26-16.5l3.26 10.02 3.25-10.03z" stroke="#e81313" stroke-width=".05" fill="#e81313"/><use xlink:href="#w" transform="matrix(1,0,0,1,595.6512601182511,738.3347879108906) translate(0.005000000000000782 14.4)"/><path d="M655.13 801.38c17.67 0 32 17.9 32 40s-14.33 40-32 40h-96c-17.68 0-32-17.9-32-40s14.32-40 32-40z" stroke="#000" stroke-opacity="0" fill="#5358d3"/><use xlink:href="#D" transform="matrix(1,0,0,1,532.1262601182511,806.3758412432664) translate(60.20987654320989 39.297222222222224)"/><path d="M256.92 1489.4c17.67 0 32 17.92 32 40 0 22.1-14.33 40-32 40h-96c-17.67 0-32-17.9-32-40 0-22.08 14.33-40 32-40z" stroke="#000" stroke-opacity="0" fill="#5358d3"/><use xlink:href="#e" transform="matrix(1,0,0,1,133.91848683108162,1494.4078041672676) translate(56.25925925925927 39.297222222222224)"/><path d="M503.35 1458.52a13.02 13.02 0 0 1 13.63 0l108.53 66.7a4.92 4.92 0 0 1 0 8.38L517 1600.3a13.02 13.02 0 0 1-13.63 0l-108.53-66.7a4.92 4.92 0 0 1 0-8.38z" stroke="#323580" stroke-width="4" fill="#fff"/><use xlink:href="#f" transform="matrix(1,0,0,1,392.804199498025,1459.1344871194528) translate(111.10993827160493 61.484722222222224)"/><use xlink:href="#E" transform="matrix(1,0,0,1,392.804199498025,1459.1344871194528) translate(27.751913580246903 82.81805555555556)"/><use xlink:href="#h" transform="matrix(1,0,0,1,392.804199498025,1459.1344871194528) translate(134.22104938271605 82.81805555555556)"/><use xlink:href="#i" transform="matrix(1,0,0,1,392.804199498025,1459.1344871194528) translate(159.9000617283951 82.81805555555556)"/><path d="M289.42 1529.4h84.65" stroke="#333" fill="none"/><path d="M289.43 1529.9h-.54l.02-.5-.02-.5h.53z" stroke="#333" stroke-width=".05" fill="#333"/><path d="M388.85 1529.4l-14.27 4.64v-9.27z" stroke="#333" fill="#333"/><path d="M686.28 1530.4h-55.4v-2h55.4zm67.25 0h-37.9v-2h37.9z" stroke="#008a0e" stroke-width=".05" fill="#008a0e"/><path d="M630.9 1530.4h-1.14l.1-1-.1-1h1.13z" fill="#008a0e"/><path d="M630.9 1530.43h-1.16l.1-1.02-.1-1.02h1.17zm-1.1-2l.1.98-.1.98h1.07v-1.95z" stroke="#008a0e" stroke-width=".05" fill="#008a0e"/><path d="M768.8 1529.4l-14.27 4.64v-9.27z" fill="#008a0e"/><path d="M772.04 1529.4l-18.5 6.02v-12.02zm-16.5 3.27l10.02-3.26-10.03-3.25z" stroke="#008a0e" stroke-width=".05" fill="#008a0e"/><use xlink:href="#j" transform="matrix(1,0,0,1,686.2760006636747,1518.6078041672686) translate(0.005000000000000782 14.4)"/><path d="M879.12 1450.33a11.04 11.04 0 0 1 12.95 0l102.68 74.38a5.8 5.8 0 0 1 0 9.4l-102.68 74.4a11.04 11.04 0 0 1-12.95 0l-102.68-74.4a5.8 5.8 0 0 1 0-9.4z" stroke="#323580" stroke-width="4" fill="#fff"/><use xlink:href="#k" transform="matrix(1,0,0,1,774.7631921857236,1450.4323591523532) translate(22.239567901234544 81.60972222222223)"/><use xlink:href="#F" transform="matrix(1,0,0,1,774.7631921857236,1450.4323591523532) translate(39.96796296296294 81.60972222222223)"/><use xlink:href="#m" transform="matrix(1,0,0,1,774.7631921857236,1450.4323591523532) translate(146.4370987654321 81.60972222222223)"/><path d="M883.23 1697.45h-2v-22.38h2zm3.36-43.98h-2v-39.88h2z" stroke="#e81313" stroke-width=".05" fill="#e81313"/><path d="M885.6 1612.6l1-.07v1.1h-2v-1.1z" fill="#e81313"/><path d="M885.6 1612.57l1.02-.07v1.14h-2.05v-1.14zm-.98 1.02h1.95v-1.04l-.98.06-.98-.06z" stroke="#e81313" stroke-width=".05" fill="#e81313"/><path d="M882.23 1712.72l-4.64-14.27h9.26z" fill="#e81313"/><path d="M882.23 1715.95l-6.02-18.5h12.04zm-3.26-16.5l3.26 10.03 3.25-10.03z" stroke="#e81313" stroke-width=".05" fill="#e81313"/><use xlink:href="#w" transform="matrix(1,0,0,1,872.4348017854669,1653.4734334087514) translate(0.005000000000000782 14.4)"/><path d="M875.46 1719.9a12.65 12.65 0 0 1 13.53 0l98.73 62.44a5.06 5.06 0 0 1 0 8.55L889 1853.3a12.65 12.65 0 0 1-13.54 0l-98.74-62.43a5.06 5.06 0 0 1 0-8.56z" stroke="#323580" stroke-width="4" fill="#fff"/><use xlink:href="#x" transform="matrix(1,0,0,1,774.7631921857228,1720.4395058849989) translate(44.36302469135803 71.45347222222223)"/><use xlink:href="#y" transform="matrix(1,0,0,1,774.7631921857228,1720.4395058849989) translate(79.91858024691359 71.45347222222223)"/><use xlink:href="#z" transform="matrix(1,0,0,1,774.7631921857228,1720.4395058849989) translate(127.22722222222222 71.45347222222223)"/><path d="M1250.3 1787.62H993.1v-2h257.2zm269.08 0h-239.72v-2h239.72z" stroke="#008a0e" stroke-width=".05" fill="#008a0e"/><path d="M993.12 1787.62H992l.1-1-.1-1h1.12z" fill="#008a0e"/><path d="M993.14 1787.64h-1.18l.1-1.03-.1-1h1.18zm-1.12-2l.1.97-.1 1h1.07v-1.96z" stroke="#008a0e" stroke-width=".05" fill="#008a0e"/><path d="M1534.64 1786.62l-14.26 4.63v-9.27z" fill="#008a0e"/><path d="M1537.88 1786.62l-18.5 6v-12.02zm-16.5 3.25l10.03-3.25-10.02-3.26z" stroke="#008a0e" stroke-width=".05" fill="#008a0e"/><use xlink:href="#j" transform="matrix(1,0,0,1,1250.3115423349916,1775.815381452345) translate(0.005000000000000782 14.4)"/><path d="M930.83 1938.44c17.68 0 32 17.9 32 40s-14.32 40-32 40h-96c-17.67 0-32-17.9-32-40s14.33-40 32-40z" stroke="#000" stroke-opacity="0" fill="#5358d3"/><use xlink:href="#D" transform="matrix(1,0,0,1,807.8344577508765,1943.4418507907524) translate(60.20987654320989 39.297222222222224)"/><path d="M883.23 1919.94h-2v-36.6h2zm0-58.2h-2v-3.46h2z" stroke="#e81313" stroke-width=".05" fill="#e81313"/><path d="M882.23 1857.28l1-.06v1.08h-2v-1.08z" fill="#e81313"/><path d="M882.23 1857.25l1.02-.06v1.13h-2.05v-1.13zm-.98 1.03h1.95v-1.03l-.97.05-.98-.05z" stroke="#e81313" stroke-width=".05" fill="#e81313"/><path d="M882.23 1935.2l-4.64-14.26h9.26z" fill="#e81313"/><path d="M882.23 1938.44l-6.02-18.5h12.04zm-3.26-16.5l3.26 10.03 3.25-10.03z" stroke="#e81313" stroke-width=".05" fill="#e81313"/><use xlink:href="#w" transform="matrix(1,0,0,1,870.750647907089,1861.7306672219804) translate(0.005000000000000782 14.4)"/><path d="M511.17 1676.44h-2v-22.93h2zm0-44.53h-2v-26.68h2z" stroke="#e81313" stroke-width=".05" fill="#e81313"/><path d="M510.17 1604.22l1-.05v1.08h-2v-1.08z" fill="#e81313"/><path d="M510.17 1604.2l1.02-.06v1.13h-2.06v-1.13zm-.98 1.02h1.94v-1.03l-.97.05-.98-.06z" stroke="#e81313" stroke-width=".05" fill="#e81313"/><path d="M510.17 1691.7l-4.64-14.26h9.27z" fill="#e81313"/><path d="M510.17 1694.95l-6.02-18.5h12.03zm-3.26-16.5l3.27 10.02 3.25-10.03z" stroke="#e81313" stroke-width=".05" fill="#e81313"/><use xlink:href="#w" transform="matrix(1,0,0,1,498.6910858079743,1631.9059704572842) translate(0.005000000000000782 14.4)"/><path d="M558.17 1694.95c17.67 0 32 17.9 32 40s-14.33 40-32 40h-96c-17.68 0-32-17.9-32-40s14.32-40 32-40z" stroke="#000" stroke-opacity="0" fill="#5358d3"/><use xlink:href="#D" transform="matrix(1,0,0,1,435.1660858079743,1699.9470237896596) translate(60.20987654320989 39.297222222222224)"/><path d="M1545.98 1532.54v2h-252.7v-2zm-545.83-2.13v-2h270.2v2z" stroke="#e81313" stroke-width=".05" fill="#e81313"/><path d="M1000.18 1530.4h-1.12l.1-1-.1-1h1.12z" fill="#e81313"/><path d="M1000.2 1530.43h-1.17l.1-1.02-.1-1.02h1.17zm-1.12-2l.1.98-.1.98h1.07v-1.95z" stroke="#e81313" stroke-width=".05" fill="#e81313"/><path d="M1561.25 1533.54l-14.27 4.63v-9.27z" fill="#e81313"/><path d="M1564.48 1533.54l-18.5 6v-12zm-16.5 3.26l10.03-3.26-10.02-3.26z" stroke="#e81313" stroke-width=".05" fill="#e81313"/><use xlink:href="#w" transform="matrix(1,0,0,1,1270.3413050002014,1520.6738458330613) translate(0.005000000000000782 14.4)"/><path d="M1723.18 1508.7a13.98 13.98 0 0 1 13.88 0l141.9 81.17a4.58 4.58 0 0 1 0 7.94l-141.9 81.2a13.98 13.98 0 0 1-13.88 0l-141.9-81.2a4.58 4.58 0 0 1 0-7.93z" stroke="#323580" stroke-width="4" fill="#fff"/><use xlink:href="#G" transform="matrix(1,0,0,1,1579.1438575485215,1509.519815301701) translate(70.63462962962961 64.95347222222223)"/><use xlink:href="#H" transform="matrix(1,0,0,1,1579.1438575485215,1509.519815301701) translate(201.74574074074076 64.95347222222223)"/><use xlink:href="#I" transform="matrix(1,0,0,1,1579.1438575485215,1509.519815301701) translate(118.43709876543211 86.28680555555556)"/><use xlink:href="#J" transform="matrix(1,0,0,1,1579.1438575485215,1509.519815301701) translate(170.78277777777777 86.28680555555556)"/><use xlink:href="#K" transform="matrix(1,0,0,1,1579.1438575485215,1509.519815301701) translate(53.42475308641975 107.6201388888889)"/><path d="M1957.4 1594.84h-73.13v-2h73.14zm85 0h-55.64v-2h55.64z" stroke="#008a0e" stroke-width=".05" fill="#008a0e"/><path d="M1884.3 1594.84h-1.14l.1-1-.1-1h1.13z" fill="#008a0e"/><path d="M1884.32 1594.87h-1.18l.1-1.03-.1-1.02h1.18zm-1.13-2l.1.97-.1.98h1.07v-1.95z" stroke="#008a0e" stroke-width=".05" fill="#008a0e"/><path d="M2057.66 1593.84l-14.26 4.63v-9.27z" fill="#008a0e"/><path d="M2060.9 1593.84l-18.5 6v-12zm-16.5 3.26l10.03-3.26-10.03-3.26z" stroke="#008a0e" stroke-width=".05" fill="#008a0e"/><use xlink:href="#j" transform="matrix(1,0,0,1,1957.4087734973318,1583.0399617160708) translate(0.005000000000000782 14.4)"/><path d="M2179.77 1523.3a13.78 13.78 0 0 1 13.84 0l114.56 66.52a4.65 4.65 0 0 1 0 8.04l-114.55 66.52a13.78 13.78 0 0 1-13.83 0l-114.55-66.52a4.65 4.65 0 0 1 0-8.04z" stroke="#323580" stroke-width="4" fill="#fff"/><use xlink:href="#L" transform="matrix(1,0,0,1,2063.3047062336386,1524.279888552761) translate(32.08 62.525)"/><use xlink:href="#M" transform="matrix(1,0,0,1,2063.3047062336386,1524.279888552761) translate(74.98 62.525)"/><use xlink:href="#N" transform="matrix(1,0,0,1,2063.3047062336386,1524.279888552761) translate(108.98 62.525)"/><use xlink:href="#O" transform="matrix(1,0,0,1,2063.3047062336386,1524.279888552761) translate(198.93 62.525)"/><use xlink:href="#P" transform="matrix(1,0,0,1,2063.3047062336386,1524.279888552761) translate(82.53 84.125)"/><use xlink:href="#Q" transform="matrix(1,0,0,1,2063.3047062336386,1524.279888552761) translate(125.48 84.125)"/><path d="M2665.72 1548.24c17.67 0 32 17.9 32 40s-14.33 40-32 40h-96c-17.68 0-32-17.9-32-40s14.32-40 32-40z" stroke="#000" stroke-opacity="0" fill="#5358d3"/><use xlink:href="#D" transform="matrix(1,0,0,1,2542.714835628271,1553.2394882856136) translate(60.20987654320989 39.297222222222224)"/><path d="M2410.62 1594.84h-97.14v-2h97.14zm109 0h-79.65v-2h79.64z" stroke="#008a0e" stroke-width=".05" fill="#008a0e"/><path d="M2313.5 1594.84h-1.13l.1-1-.1-1h1.14z" fill="#008a0e"/><path d="M2313.53 1594.87h-1.18l.1-1.03-.1-1.02h1.18zm-1.13-2l.1.97-.1.98h1.08v-1.95z" stroke="#008a0e" stroke-width=".05" fill="#008a0e"/><path d="M2534.87 1593.84l-14.26 4.63v-9.27z" fill="#008a0e"/><path d="M2538.1 1593.84l-18.5 6v-12zm-16.5 3.26l10.04-3.26-10.03-3.26z" stroke="#008a0e" stroke-width=".05" fill="#008a0e"/><use xlink:href="#j" transform="matrix(1,0,0,1,2410.620665647085,1583.0399616537645) translate(0.005000000000000782 14.4)"/><path d="M1731.12 1783.16h-2v-30.1h2zm0-51.7h-2v-47.62h2z" stroke="#e81313" stroke-width=".05" fill="#e81313"/><path d="M1730.12 1682.84l1-.06v1.08h-2v-1.08z" fill="#e81313"/><path d="M1730.12 1682.8l1.03-.04v1.13h-2.05v-1.14zm-.97 1.04h1.95v-1.03l-.98.06-.97-.05z" stroke="#e81313" stroke-width=".05" fill="#e81313"/><path d="M1730.12 1798.42l-4.63-14.26h9.26z" fill="#e81313"/><path d="M1730.12 1801.66l-6-18.5h12zm-3.26-16.5l3.26 10.03 3.26-10.04z" stroke="#e81313" stroke-width=".05" fill="#e81313"/><g><use xlink:href="#w" transform="matrix(1,0,0,1,1718.6456081644014,1731.448843316433) translate(0.005000000000000782 14.4)"/></g><path d="M2187.7 1838.6h-2v-65.13h2zm0-86.73h-2v-82.62h2z" stroke="#e81313" stroke-width=".05" fill="#e81313"/><path d="M2186.7 1668.25l1-.05v1.07h-2v-1.07z" fill="#e81313"/><path d="M2186.7 1668.22l1-.05v1.13h-2.04v-1.13zm-1 1.03h1.96v-1.03l-.97.05-1-.05z" stroke="#e81313" stroke-width=".05" fill="#e81313"/><path d="M2186.7 1853.85l-4.65-14.26h9.27z" fill="#e81313"/><path d="M2186.7 1857.1l-6.02-18.5h12.02zm-3.27-16.5l3.26 10.02 3.25-10.03z" stroke="#e81313" stroke-width=".05" fill="#e81313"/><g><use xlink:href="#w" transform="matrix(1,0,0,1,2175.2144282412055,1751.8697855979437) translate(0.005000000000000782 14.4)"/></g><path d="M1779 1801.66c17.67 0 32 17.9 32 40s-14.33 40-32 40h-96c-17.67 0-32-17.9-32-40s14.33-40 32-40z" stroke="#000" stroke-opacity="0" fill="#5358d3"/><g><use xlink:href="#D" transform="matrix(1,0,0,1,1656.0016035611889,1806.6615758704368) translate(60.20987654320989 39.297222222222224)"/></g><path d="M2078.75 1865.6a8 8 0 0 1 8-8h199.88a8 8 0 0 1 8 8v83.56a8 8 0 0 1-8 8h-199.88a8 8 0 0 1-8-8z" stroke="#fff" fill="#5358d3"/><g><use xlink:href="#R" transform="matrix(1,0,0,1,2090.7540167887432,1869.5912571145777) translate(13.824999999999989 40.525)"/><use xlink:href="#S" transform="matrix(1,0,0,1,2090.7540167887432,1869.5912571145777) translate(42.82499999999999 40.525)"/><use xlink:href="#T" transform="matrix(1,0,0,1,2090.7540167887432,1869.5912571145777) translate(124.725 40.525)"/><use xlink:href="#U" transform="matrix(1,0,0,1,2090.7540167887432,1869.5912571145777) translate(140.225 40.525)"/></g><path d="M2404.17 2026.44a8 8 0 0 1 8-8h173.2a8 8 0 0 1 8 8v71.93a8 8 0 0 1-8 8h-173.2a8 8 0 0 1-8-8z" stroke="#fff" fill="#5358d3"/><g><use xlink:href="#r" transform="matrix(1,0,0,1,2416.171811368246,2030.4418507907526) translate(11.049999999999997 34.4)"/><use xlink:href="#V" transform="matrix(1,0,0,1,2416.171811368246,2030.4418507907526) translate(46.05 34.4)"/></g><path d="M2914.03 1867.38c17.67 0 32 17.9 32 40s-14.33 40-32 40h-96c-17.67 0-32-17.9-32-40s14.33-40 32-40z" stroke="#000" stroke-opacity="0" fill="#5358d3"/><g><use xlink:href="#D" transform="matrix(1,0,0,1,2791.031454340978,1872.3773856524433) translate(60.20987654320989 39.297222222222224)"/></g><path d="M2371.7 1873.46a8 8 0 0 1 8-8h254.5a8 8 0 0 1 8 8v67.84a8 8 0 0 1-8 8h-254.5a8 8 0 0 1-8-8z" stroke="#fff" fill="#5358d3"/><g><use xlink:href="#R" transform="matrix(1,0,0,1,2383.708522708052,1877.4586561774022) translate(77.25 22.799999999999997)"/><use xlink:href="#W" transform="matrix(1,0,0,1,2383.708522708052,1877.4586561774022) translate(106.25 22.799999999999997)"/><use xlink:href="#X" transform="matrix(1,0,0,1,2383.708522708052,1877.4586561774022) translate(159.25 22.799999999999997)"/><use xlink:href="#Y" transform="matrix(1,0,0,1,2383.708522708052,1877.4586561774022) translate(-2.799999999999983 44.4)"/></g><path d="M2295.63 1907.38h59.19" stroke="#333" fill="none"/><path d="M2295.64 1907.88h-.5v-1h.5z" stroke="#333" stroke-width=".05" fill="#333"/><path d="M2369.6 1907.38l-14.28 4.63v-9.26z" stroke="#333" fill="#333"/><path d="M2506.95 1950.3V2001.57" stroke="#333" fill="none"/><path d="M2507.45 1950.3h-1v-.5h1z" stroke="#333" stroke-width=".05" fill="#333"/><path d="M2506.96 2016.32l-4.64-14.26h9.27z" stroke="#333" fill="#333"/><path d="M2643.2 1907.38h126.46" stroke="#333" fill="none"/><path d="M2643.2 1907.88h-.5v-1h.5z" stroke="#333" stroke-width=".05" fill="#333"/><path d="M2784.4 1907.38l-14.25 4.63v-9.26z" stroke="#333" fill="#333"/><path d="M30.13 47.28a8 8 0 0 1 8-8h1207.3a8 8 0 0 1 8 8v307.87a8 8 0 0 1-8 8H38.13a8 8 0 0 1-8-8z" stroke="#000" stroke-opacity="0" fill="#fff" fill-opacity="0"/><g><use xlink:href="#Z" transform="matrix(1,0,0,1,35.12477665432169,44.28074641488996) translate(0 33.95555555555553)"/><use xlink:href="#aa" transform="matrix(1,0,0,1,35.12477665432169,44.28074641488996) translate(155.5117283950616 33.95555555555553)"/><use xlink:href="#ab" transform="matrix(1,0,0,1,35.12477665432169,44.28074641488996) translate(266.3388888888886 33.95555555555553)"/><use xlink:href="#ac" transform="matrix(1,0,0,1,35.12477665432169,44.28074641488996) translate(0 77.77777777777773)"/><use xlink:href="#ad" transform="matrix(1,0,0,1,35.12477665432169,44.28074641488996) translate(143.4499999999999 77.77777777777773)"/><use xlink:href="#ae" transform="matrix(1,0,0,1,35.12477665432169,44.28074641488996) translate(225.47469135802456 77.77777777777773)"/><use xlink:href="#af" transform="matrix(1,0,0,1,35.12477665432169,44.28074641488996) translate(272.0796296296295 77.77777777777773)"/><use xlink:href="#ag" transform="matrix(1,0,0,1,35.12477665432169,44.28074641488996) translate(333.5049382716048 77.77777777777773)"/><use xlink:href="#ah" transform="matrix(1,0,0,1,35.12477665432169,44.28074641488996) translate(372.55987654320967 77.77777777777773)"/><use xlink:href="#ai" transform="matrix(1,0,0,1,35.12477665432169,44.28074641488996) translate(0 125.15555555555545)"/><use xlink:href="#aj" transform="matrix(1,0,0,1,35.12477665432169,44.28074641488996) translate(0 170.75555555555542)"/><use xlink:href="#ak" transform="matrix(1,0,0,1,35.12477665432169,44.28074641488996) translate(39.75308641975307 170.75555555555542)"/><use xlink:href="#al" transform="matrix(1,0,0,1,35.12477665432169,44.28074641488996) translate(125.12283950617277 170.75555555555542)"/><use xlink:href="#am" transform="matrix(1,0,0,1,35.12477665432169,44.28074641488996) translate(146.88765432098756 170.75555555555542)"/><use xlink:href="#an" transform="matrix(1,0,0,1,35.12477665432169,44.28074641488996) translate(228.38148148148136 170.75555555555542)"/><use xlink:href="#ao" transform="matrix(1,0,0,1,35.12477665432169,44.28074641488996) translate(281.84938271604926 170.75555555555542)"/><use xlink:href="#ap" transform="matrix(1,0,0,1,35.12477665432169,44.28074641488996) translate(377.05802469135784 170.75555555555542)"/><use xlink:href="#aq" transform="matrix(1,0,0,1,35.12477665432169,44.28074641488996) translate(444.53888888888866 170.75555555555542)"/><use xlink:href="#ar" transform="matrix(1,0,0,1,35.12477665432169,44.28074641488996) translate(561.7111111111108 170.75555555555542)"/><use xlink:href="#as" transform="matrix(1,0,0,1,35.12477665432169,44.28074641488996) translate(674.7092592592588 170.75555555555542)"/><use xlink:href="#at" transform="matrix(1,0,0,1,35.12477665432169,44.28074641488996) translate(0 213.68888888888875)"/><use xlink:href="#au" transform="matrix(1,0,0,1,35.12477665432169,44.28074641488996) translate(0 256.6222222222221)"/><use xlink:href="#av" transform="matrix(1,0,0,1,35.12477665432169,44.28074641488996) translate(39.75308641975307 256.6222222222221)"/><use xlink:href="#al" transform="matrix(1,0,0,1,35.12477665432169,44.28074641488996) translate(208.40555555555545 256.6222222222221)"/><use xlink:href="#am" transform="matrix(1,0,0,1,35.12477665432169,44.28074641488996) translate(230.17037037037025 256.6222222222221)"/><use xlink:href="#aw" transform="matrix(1,0,0,1,35.12477665432169,44.28074641488996) translate(311.66419753086404 256.6222222222221)"/><use xlink:href="#ap" transform="matrix(1,0,0,1,35.12477665432169,44.28074641488996) translate(589.7370370370368 256.6222222222221)"/><use xlink:href="#ax" transform="matrix(1,0,0,1,35.12477665432169,44.28074641488996) translate(657.2179012345676 256.6222222222221)"/><use xlink:href="#ay" transform="matrix(1,0,0,1,35.12477665432169,44.28074641488996) translate(820.0067901234564 256.6222222222221)"/><use xlink:href="#az" transform="matrix(1,0,0,1,35.12477665432169,44.28074641488996) translate(907.4635802469131 256.6222222222221)"/><use xlink:href="#aA" transform="matrix(1,0,0,1,35.12477665432169,44.28074641488996) translate(959.0432098765427 256.6222222222221)"/><use xlink:href="#aB" transform="matrix(1,0,0,1,35.12477665432169,44.28074641488996) translate(1008.7345679012341 256.6222222222221)"/><use xlink:href="#aC" transform="matrix(1,0,0,1,35.12477665432169,44.28074641488996) translate(0 299.55555555555543)"/><use xlink:href="#aD" transform="matrix(1,0,0,1,35.12477665432169,44.28074641488996) translate(91.43209876543206 299.55555555555543)"/><use xlink:href="#aE" transform="matrix(1,0,0,1,35.12477665432169,44.28074641488996) translate(221.22592592592582 299.55555555555543)"/><use xlink:href="#aF" transform="matrix(1,0,0,1,35.12477665432169,44.28074641488996) translate(346.8456790123455 299.55555555555543)"/></g><defs><path d="M30 0v-248h187v28H63v79h144v27H63v87h162V0H30" id="aG"/><path d="M141-36C126-15 110 5 73 4 37 3 15-17 15-53c-1-64 63-63 125-63 3-35-9-54-41-54-24 1-41 7-42 31l-33-3c5-37 33-52 76-52 45 0 72 20 72 64v82c-1 20 7 32 28 27v20c-31 9-61-2-59-35zM48-53c0 20 12 33 32 33 41-3 63-29 60-74-43 2-92-5-92 41" id="aH"/><path d="M96-169c-40 0-48 33-48 73s9 75 48 75c24 0 41-14 43-38l32 2c-6 37-31 61-74 61-59 0-76-41-82-99-10-93 101-131 147-64 4 7 5 14 7 22l-32 3c-4-21-16-35-41-35" id="aI"/><path d="M106-169C34-169 62-67 57 0H25v-261h32l-1 103c12-21 28-36 61-36 89 0 53 116 60 194h-32v-121c2-32-8-49-39-48" id="aJ"/><g id="a"><use transform="matrix(0.05,0,0,0.05,0,0)" xlink:href="#aG"/><use transform="matrix(0.05,0,0,0.05,12,0)" xlink:href="#aH"/><use transform="matrix(0.05,0,0,0.05,22,0)" xlink:href="#aI"/><use transform="matrix(0.05,0,0,0.05,31,0)" xlink:href="#aJ"/></g><path d="M24-231v-30h32v30H24zM24 0v-190h32V0H24" id="aK"/><path d="M59-47c-2 24 18 29 38 22v24C64 9 27 4 27-40v-127H5v-23h24l9-43h21v43h35v23H59v120" id="aL"/><path d="M100-194c63 0 86 42 84 106H49c0 40 14 67 53 68 26 1 43-12 49-29l28 8c-11 28-37 45-77 45C44 4 14-33 15-96c1-61 26-98 85-98zm52 81c6-60-76-77-97-28-3 7-6 17-6 28h103" id="aM"/><path d="M210-169c-67 3-38 105-44 169h-31v-121c0-29-5-50-35-48C34-165 62-65 56 0H25l-1-190h30c1 10-1 24 2 32 10-44 99-50 107 0 11-21 27-35 58-36 85-2 47 119 55 194h-31v-121c0-29-5-49-35-48" id="aN"/><g id="b"><use transform="matrix(0.05,0,0,0.05,0,0)" xlink:href="#aK"/><use transform="matrix(0.05,0,0,0.05,3.95,0)" xlink:href="#aL"/><use transform="matrix(0.05,0,0,0.05,8.95,0)" xlink:href="#aM"/><use transform="matrix(0.05,0,0,0.05,18.95,0)" xlink:href="#aN"/></g><path d="M169-182c-1-43-94-46-97-3 18 66 151 10 154 114 3 95-165 93-204 36-6-8-10-19-12-30l50-8c3 46 112 56 116 5-17-69-150-10-154-114-4-87 153-88 188-35 5 8 8 18 10 28" id="aO"/><path d="M115-3C79 11 28 4 28-45v-112H4v-33h27l15-45h31v45h36v33H77v99c-1 23 16 31 38 25v30" id="aP"/><path d="M133-34C117-15 103 5 69 4 32 3 11-16 11-54c-1-60 55-63 116-61 1-26-3-47-28-47-18 1-26 9-28 27l-52-2c7-38 36-58 82-57s74 22 75 68l1 82c-1 14 12 18 25 15v27c-30 8-71 5-69-32zm-48 3c29 0 43-24 42-57-32 0-66-3-65 30 0 17 8 27 23 27" id="aQ"/><path d="M135-150c-39-12-60 13-60 57V0H25l-1-190h47c2 13-1 29 3 40 6-28 27-53 61-41v41" id="aR"/><g id="c"><use transform="matrix(0.09320987654320984,0,0,0.09320987654320984,0,0)" xlink:href="#aO"/><use transform="matrix(0.09320987654320984,0,0,0.09320987654320984,22.37037037037036,0)" xlink:href="#aP"/><use transform="matrix(0.09320987654320984,0,0,0.09320987654320984,33.46234567901233,0)" xlink:href="#aQ"/><use transform="matrix(0.09320987654320984,0,0,0.09320987654320984,52.1043209876543,0)" xlink:href="#aR"/><use transform="matrix(0.09320987654320984,0,0,0.09320987654320984,65.15370370370367,0)" xlink:href="#aP"/></g><path d="M238-95c0 69-44 99-111 99C63 4 22-25 22-93v-155h51v151c-1 38 19 59 55 60 90 1 49-130 58-211h52v153" id="aS"/><path d="M135-194c87-1 58 113 63 194h-50c-7-57 23-157-34-157-59 0-34 97-39 157H25l-1-190h47c2 12-1 28 3 38 12-26 28-41 61-42" id="aT"/><path d="M135-194c53 0 70 44 70 98 0 56-19 98-73 100-31 1-45-17-59-34 3 33 2 69 2 105H25l-1-265h48c2 10 0 23 3 31 11-24 29-35 60-35zM114-30c33 0 39-31 40-66 0-38-9-64-40-64-56 0-55 130 0 130" id="aU"/><path d="M85 4C-2 5 27-109 22-190h50c7 57-23 150 33 157 60-5 35-97 40-157h50l1 190h-47c-2-12 1-28-3-38-12 25-28 42-61 42" id="aV"/><path d="M135-194c52 0 70 43 70 98 0 56-19 99-73 100-30 1-46-15-58-35L72 0H24l1-261h50v104c11-23 29-37 60-37zM114-30c31 0 40-27 40-66 0-37-7-63-39-63s-41 28-41 65c0 36 8 64 40 64" id="aW"/><path d="M25 0v-261h50V0H25" id="aX"/><path d="M25-224v-37h50v37H25zM25 0v-190h50V0H25" id="aY"/><path d="M137-138c1-29-70-34-71-4 15 46 118 7 119 86 1 83-164 76-172 9l43-7c4 19 20 25 44 25 33 8 57-30 24-41C81-84 22-81 20-136c-2-80 154-74 161-7" id="aZ"/><path d="M114-157C55-157 80-60 75 0H25v-261h50l-1 109c12-26 28-41 61-42 86-1 58 113 63 194h-50c-7-57 23-157-34-157" id="ba"/><g id="d"><use transform="matrix(0.09320987654320984,0,0,0.09320987654320984,0,0)" xlink:href="#aS"/><use transform="matrix(0.09320987654320984,0,0,0.09320987654320984,24.141358024691346,0)" xlink:href="#aT"/><use transform="matrix(0.09320987654320984,0,0,0.09320987654320984,44.5543209876543,0)" xlink:href="#aU"/><use transform="matrix(0.09320987654320984,0,0,0.09320987654320984,64.96728395061726,0)" xlink:href="#aV"/><use transform="matrix(0.09320987654320984,0,0,0.09320987654320984,85.38024691358021,0)" xlink:href="#aW"/><use transform="matrix(0.09320987654320984,0,0,0.09320987654320984,105.79320987654316,0)" xlink:href="#aX"/><use transform="matrix(0.09320987654320984,0,0,0.09320987654320984,115.11419753086415,0)" xlink:href="#aY"/><use transform="matrix(0.09320987654320984,0,0,0.09320987654320984,124.43518518518513,0)" xlink:href="#aZ"/><use transform="matrix(0.09320987654320984,0,0,0.09320987654320984,143.0771604938271,0)" xlink:href="#ba"/></g><path fill="#fff" d="M185-189c-5-48-123-54-124 2 14 75 158 14 163 119 3 78-121 87-175 55-17-10-28-26-33-46l33-7c5 56 141 63 141-1 0-78-155-14-162-118-5-82 145-84 179-34 5 7 8 16 11 25" id="bb"/><path fill="#fff" d="M59-47c-2 24 18 29 38 22v24C64 9 27 4 27-40v-127H5v-23h24l9-43h21v43h35v23H59v120" id="bc"/><path fill="#fff" d="M141-36C126-15 110 5 73 4 37 3 15-17 15-53c-1-64 63-63 125-63 3-35-9-54-41-54-24 1-41 7-42 31l-33-3c5-37 33-52 76-52 45 0 72 20 72 64v82c-1 20 7 32 28 27v20c-31 9-61-2-59-35zM48-53c0 20 12 33 32 33 41-3 63-29 60-74-43 2-92-5-92 41" id="bd"/><path fill="#fff" d="M114-163C36-179 61-72 57 0H25l-1-190h30c1 12-1 29 2 39 6-27 23-49 58-41v29" id="be"/><g id="e"><use transform="matrix(0.04938271604938272,0,0,0.04938271604938272,0,0)" xlink:href="#bb"/><use transform="matrix(0.04938271604938272,0,0,0.04938271604938272,11.851851851851853,0)" xlink:href="#bc"/><use transform="matrix(0.04938271604938272,0,0,0.04938271604938272,16.790123456790127,0)" xlink:href="#bd"/><use transform="matrix(0.04938271604938272,0,0,0.04938271604938272,26.666666666666668,0)" xlink:href="#be"/><use transform="matrix(0.04938271604938272,0,0,0.04938271604938272,32.543209876543216,0)" xlink:href="#bc"/></g><path fill="#333" d="M24-231v-30h32v30H24zM24 0v-190h32V0H24" id="bf"/><path fill="#333" d="M135-143c-3-34-86-38-87 0 15 53 115 12 119 90S17 21 10-45l28-5c4 36 97 45 98 0-10-56-113-15-118-90-4-57 82-63 122-42 12 7 21 19 24 35" id="bg"/><g id="f"><use transform="matrix(0.04938271604938272,0,0,0.04938271604938272,0,0)" xlink:href="#bf"/><use transform="matrix(0.04938271604938272,0,0,0.04938271604938272,3.901234567901235,0)" xlink:href="#bg"/></g><path fill="#333" d="M185-189c-5-48-123-54-124 2 14 75 158 14 163 119 3 78-121 87-175 55-17-10-28-26-33-46l33-7c5 56 141 63 141-1 0-78-155-14-162-118-5-82 145-84 179-34 5 7 8 16 11 25" id="bh"/><path fill="#333" d="M127-220V0H93v-220H8v-28h204v28h-85" id="bi"/><path fill="#333" d="M205 0l-28-72H64L36 0H1l101-248h38L239 0h-34zm-38-99l-47-123c-12 45-31 82-46 123h93" id="bj"/><path fill="#333" d="M233-177c-1 41-23 64-60 70L243 0h-38l-65-103H63V0H30v-248c88 3 205-21 203 71zM63-129c60-2 137 13 137-47 0-61-80-42-137-45v92" id="bk"/><g id="g"><use transform="matrix(0.04938271604938272,0,0,0.04938271604938272,0,0)" xlink:href="#bh"/><use transform="matrix(0.04938271604938272,0,0,0.04938271604938272,11.851851851851853,0)" xlink:href="#bi"/><use transform="matrix(0.04938271604938272,0,0,0.04938271604938272,21.333333333333336,0)" xlink:href="#bj"/><use transform="matrix(0.04938271604938272,0,0,0.04938271604938272,33.18518518518519,0)" xlink:href="#bk"/><use transform="matrix(0.04938271604938272,0,0,0.04938271604938272,45.62962962962964,0)" xlink:href="#bi"/></g><path fill="#333" d="M18-100v-36l175-74v27L42-118l151 64v27" id="bl"/><path fill="#333" d="M18-150v-26h174v26H18zm0 90v-26h174v26H18" id="bm"/><g id="h"><use transform="matrix(0.04938271604938272,0,0,0.04938271604938272,0,0)" xlink:href="#bl"/><use transform="matrix(0.04938271604938272,0,0,0.04938271604938272,10.370370370370372,0)" xlink:href="#bm"/></g><path fill="#333" d="M100-194c62-1 85 37 85 99 1 63-27 99-86 99S16-35 15-95c0-66 28-99 85-99zM99-20c44 1 53-31 53-75 0-43-8-75-51-75s-53 32-53 75 10 74 51 75" id="bn"/><path fill="#333" d="M85-194c31 0 48 13 60 33l-1-100h32l1 261h-30c-2-10 0-23-3-31C134-8 116 4 85 4 32 4 16-35 15-94c0-66 23-100 70-100zm9 24c-40 0-46 34-46 75 0 40 6 74 45 74 42 0 51-32 51-76 0-42-9-74-50-73" id="bo"/><path fill="#333" d="M141-36C126-15 110 5 73 4 37 3 15-17 15-53c-1-64 63-63 125-63 3-35-9-54-41-54-24 1-41 7-42 31l-33-3c5-37 33-52 76-52 45 0 72 20 72 64v82c-1 20 7 32 28 27v20c-31 9-61-2-59-35zM48-53c0 20 12 33 32 33 41-3 63-29 60-74-43 2-92-5-92 41" id="bp"/><path fill="#333" d="M179-190L93 31C79 59 56 82 12 73V49c39 6 53-20 64-50L1-190h34L92-34l54-156h33" id="bq"/><g id="i"><use transform="matrix(0.04938271604938272,0,0,0.04938271604938272,0,0)" xlink:href="#bi"/><use transform="matrix(0.04938271604938272,0,0,0.04938271604938272,8.839506172839506,0)" xlink:href="#bn"/><use transform="matrix(0.04938271604938272,0,0,0.04938271604938272,18.71604938271605,0)" xlink:href="#bo"/><use transform="matrix(0.04938271604938272,0,0,0.04938271604938272,28.592592592592595,0)" xlink:href="#bp"/><use transform="matrix(0.04938271604938272,0,0,0.04938271604938272,38.46913580246914,0)" xlink:href="#bq"/></g><path fill="#333" d="M137-103V0h-34v-103L8-248h37l75 118 75-118h37" id="br"/><path fill="#333" d="M100-194c63 0 86 42 84 106H49c0 40 14 67 53 68 26 1 43-12 49-29l28 8c-11 28-37 45-77 45C44 4 14-33 15-96c1-61 26-98 85-98zm52 81c6-60-76-77-97-28-3 7-6 17-6 28h103" id="bs"/><g id="j"><use transform="matrix(0.05,0,0,0.05,0,0)" xlink:href="#br"/><use transform="matrix(0.05,0,0,0.05,10.35,0)" xlink:href="#bs"/><use transform="matrix(0.05,0,0,0.05,20.35,0)" xlink:href="#bg"/></g><g id="k"><use transform="matrix(0.04938271604938272,0,0,0.04938271604938272,0,0)" xlink:href="#bf"/><use transform="matrix(0.04938271604938272,0,0,0.04938271604938272,3.901234567901235,0)" xlink:href="#bg"/></g><g id="l"><use transform="matrix(0.04938271604938272,0,0,0.04938271604938272,0,0)" xlink:href="#bh"/><use transform="matrix(0.04938271604938272,0,0,0.04938271604938272,11.851851851851853,0)" xlink:href="#bi"/><use transform="matrix(0.04938271604938272,0,0,0.04938271604938272,21.333333333333336,0)" xlink:href="#bj"/><use transform="matrix(0.04938271604938272,0,0,0.04938271604938272,33.18518518518519,0)" xlink:href="#bk"/><use transform="matrix(0.04938271604938272,0,0,0.04938271604938272,45.62962962962964,0)" xlink:href="#bi"/></g><path fill="#333" d="M59-47c-2 24 18 29 38 22v24C64 9 27 4 27-40v-127H5v-23h24l9-43h21v43h35v23H59v120" id="bt"/><path fill="#333" d="M103-251c84 0 111 97 45 133-19 10-37 24-39 52H78c0-63 77-55 77-114 0-30-21-42-52-43-32 0-53 17-56 46l-32-2c7-45 34-72 88-72zM77 0v-35h34V0H77" id="bu"/><g id="m"><use transform="matrix(0.04938271604938272,0,0,0.04938271604938272,0,0)" xlink:href="#bt"/><use transform="matrix(0.04938271604938272,0,0,0.04938271604938272,4.938271604938272,0)" xlink:href="#bn"/><use transform="matrix(0.04938271604938272,0,0,0.04938271604938272,14.814814814814817,0)" xlink:href="#bo"/><use transform="matrix(0.04938271604938272,0,0,0.04938271604938272,24.69135802469136,0)" xlink:href="#bp"/><use transform="matrix(0.04938271604938272,0,0,0.04938271604938272,34.567901234567906,0)" xlink:href="#bq"/><use transform="matrix(0.04938271604938272,0,0,0.04938271604938272,43.4567901234568,0)" xlink:href="#bu"/></g><path fill="#fff" d="M100-194c63 0 86 42 84 106H49c0 40 14 67 53 68 26 1 43-12 49-29l28 8c-11 28-37 45-77 45C44 4 14-33 15-96c1-61 26-98 85-98zm52 81c6-60-76-77-97-28-3 7-6 17-6 28h103" id="bv"/><g id="n"><use transform="matrix(0.05,0,0,0.05,0,0)" xlink:href="#bb"/><use transform="matrix(0.05,0,0,0.05,12,0)" xlink:href="#bv"/><use transform="matrix(0.05,0,0,0.05,22,0)" xlink:href="#bc"/></g><path fill="#fff" d="M24-231v-30h32v30H24zM24 0v-190h32V0H24" id="bw"/><path fill="#fff" d="M135-143c-3-34-86-38-87 0 15 53 115 12 119 90S17 21 10-45l28-5c4 36 97 45 98 0-10-56-113-15-118-90-4-57 82-63 122-42 12 7 21 19 24 35" id="bx"/><path fill="#fff" d="M205 0l-28-72H64L36 0H1l101-248h38L239 0h-34zm-38-99l-47-123c-12 45-31 82-46 123h93" id="by"/><path fill="#fff" d="M117-194c89-4 53 116 60 194h-32v-121c0-31-8-49-39-48C34-167 62-67 57 0H25l-1-190h30c1 10-1 24 2 32 11-22 29-35 61-36" id="bz"/><path fill="#fff" d="M84 4C-5 8 30-112 23-190h32v120c0 31 7 50 39 49 72-2 45-101 50-169h31l1 190h-30c-1-10 1-25-2-33-11 22-28 36-60 37" id="bA"/><path fill="#fff" d="M24 0v-261h32V0H24" id="bB"/><path fill="#fff" d="M233-177c-1 41-23 64-60 70L243 0h-38l-65-103H63V0H30v-248c88 3 205-21 203 71zM63-129c60-2 137 13 137-47 0-61-80-42-137-45v92" id="bC"/><path fill="#fff" d="M108 0H70L1-190h34L89-25l56-165h34" id="bD"/><path fill="#fff" d="M206 0h-36l-40-164L89 0H53L-1-190h32L70-26l43-164h34l41 164 42-164h31" id="bE"/><g id="o"><use transform="matrix(0.05,0,0,0.05,0,0)" xlink:href="#bw"/><use transform="matrix(0.05,0,0,0.05,3.95,0)" xlink:href="#bx"/><use transform="matrix(0.05,0,0,0.05,12.949999999999998,0)" xlink:href="#by"/><use transform="matrix(0.05,0,0,0.05,24.95,0)" xlink:href="#bz"/><use transform="matrix(0.05,0,0,0.05,34.95,0)" xlink:href="#bz"/><use transform="matrix(0.05,0,0,0.05,44.95,0)" xlink:href="#bA"/><use transform="matrix(0.05,0,0,0.05,54.95,0)" xlink:href="#bd"/><use transform="matrix(0.05,0,0,0.05,64.95,0)" xlink:href="#bB"/><use transform="matrix(0.05,0,0,0.05,68.9,0)" xlink:href="#bC"/><use transform="matrix(0.05,0,0,0.05,81.85000000000001,0)" xlink:href="#bv"/><use transform="matrix(0.05,0,0,0.05,91.85000000000001,0)" xlink:href="#bD"/><use transform="matrix(0.05,0,0,0.05,100.85000000000001,0)" xlink:href="#bw"/><use transform="matrix(0.05,0,0,0.05,104.80000000000001,0)" xlink:href="#bv"/><use transform="matrix(0.05,0,0,0.05,114.80000000000001,0)" xlink:href="#bE"/></g><g id="p"><use transform="matrix(0.05,0,0,0.05,0,0)" xlink:href="#bb"/><use transform="matrix(0.05,0,0,0.05,12,0)" xlink:href="#bv"/><use transform="matrix(0.05,0,0,0.05,22,0)" xlink:href="#bc"/></g><path fill="#fff" d="M30 0v-248h33v221h125V0H30" id="bF"/><path fill="#fff" d="M33 0v-38h34V0H33" id="bG"/><g id="q"><use transform="matrix(0.05,0,0,0.05,0,0)" xlink:href="#bF"/><use transform="matrix(0.05,0,0,0.05,10,0)" xlink:href="#bw"/><use transform="matrix(0.05,0,0,0.05,13.949999999999998,0)" xlink:href="#bx"/><use transform="matrix(0.05,0,0,0.05,22.95,0)" xlink:href="#bc"/><use transform="matrix(0.05,0,0,0.05,27.950000000000003,0)" xlink:href="#bG"/><use transform="matrix(0.05,0,0,0.05,32.95,0)" xlink:href="#bw"/><use transform="matrix(0.05,0,0,0.05,36.900000000000006,0)" xlink:href="#bx"/><use transform="matrix(0.05,0,0,0.05,45.900000000000006,0)" xlink:href="#by"/><use transform="matrix(0.05,0,0,0.05,57.900000000000006,0)" xlink:href="#bz"/><use transform="matrix(0.05,0,0,0.05,67.9,0)" xlink:href="#bz"/><use transform="matrix(0.05,0,0,0.05,77.9,0)" xlink:href="#bA"/><use transform="matrix(0.05,0,0,0.05,87.9,0)" xlink:href="#bd"/><use transform="matrix(0.05,0,0,0.05,97.9,0)" xlink:href="#bB"/><use transform="matrix(0.05,0,0,0.05,101.85000000000001,0)" xlink:href="#bC"/><use transform="matrix(0.05,0,0,0.05,114.80000000000001,0)" xlink:href="#bv"/><use transform="matrix(0.05,0,0,0.05,124.80000000000001,0)" xlink:href="#bD"/><use transform="matrix(0.05,0,0,0.05,133.8,0)" xlink:href="#bw"/><use transform="matrix(0.05,0,0,0.05,137.75,0)" xlink:href="#bv"/><use transform="matrix(0.05,0,0,0.05,147.75,0)" xlink:href="#bE"/></g><path fill="#fff" d="M85-194c31 0 48 13 60 33l-1-100h32l1 261h-30c-2-10 0-23-3-31C134-8 116 4 85 4 32 4 16-35 15-94c0-66 23-100 70-100zm9 24c-40 0-46 34-46 75 0 40 6 74 45 74 42 0 51-32 51-76 0-42-9-74-50-73" id="bH"/><g id="r"><use transform="matrix(0.05,0,0,0.05,0,0)" xlink:href="#bd"/><use transform="matrix(0.05,0,0,0.05,10,0)" xlink:href="#bH"/><use transform="matrix(0.05,0,0,0.05,20,0)" xlink:href="#bH"/></g><path fill="#fff" d="M33 0v-248h34V0H33" id="bI"/><path fill="#fff" d="M210-169c-67 3-38 105-44 169h-31v-121c0-29-5-50-35-48C34-165 62-65 56 0H25l-1-190h30c1 10-1 24 2 32 10-44 99-50 107 0 11-21 27-35 58-36 85-2 47 119 55 194h-31v-121c0-29-5-49-35-48" id="bJ"/><path fill="#fff" d="M30 0v-248h187v28H63v79h144v27H63v87h162V0H30" id="bK"/><g id="s"><use transform="matrix(0.05,0,0,0.05,0,0)" xlink:href="#bF"/><use transform="matrix(0.05,0,0,0.05,10,0)" xlink:href="#bw"/><use transform="matrix(0.05,0,0,0.05,13.949999999999998,0)" xlink:href="#bx"/><use transform="matrix(0.05,0,0,0.05,22.95,0)" xlink:href="#bc"/><use transform="matrix(0.05,0,0,0.05,27.950000000000003,0)" xlink:href="#bI"/><use transform="matrix(0.05,0,0,0.05,32.95,0)" xlink:href="#bc"/><use transform="matrix(0.05,0,0,0.05,37.95,0)" xlink:href="#bv"/><use transform="matrix(0.05,0,0,0.05,47.95,0)" xlink:href="#bJ"/><use transform="matrix(0.05,0,0,0.05,62.900000000000006,0)" xlink:href="#bK"/><use transform="matrix(0.05,0,0,0.05,74.9,0)" xlink:href="#bD"/><use transform="matrix(0.05,0,0,0.05,83.9,0)" xlink:href="#bv"/><use transform="matrix(0.05,0,0,0.05,93.9,0)" xlink:href="#bz"/><use transform="matrix(0.05,0,0,0.05,103.9,0)" xlink:href="#bc"/></g><path fill="#fff" d="M190 0L58-211 59 0H30v-248h39L202-35l-2-213h31V0h-41" id="bL"/><path fill="#fff" d="M232-93c-1 65-40 97-104 97C67 4 28-28 28-90v-158h33c8 89-33 224 67 224 102 0 64-133 71-224h33v155" id="bM"/><path fill="#fff" d="M-5 72V49h209v23H-5" id="bN"/><path fill="#fff" d="M137 0h-34L2-248h35l83 218 83-218h36" id="bO"/><path fill="#fff" d="M266 0h-40l-56-210L115 0H75L2-248h35L96-30l15-64 43-154h32l59 218 59-218h35" id="bP"/><path fill="#fff" d="M127-220V0H93v-220H8v-28h204v28h-85" id="bQ"/><path fill="#fff" d="M30-248c118-7 216 8 213 122C240-48 200 0 122 0H30v-248zM63-27c89 8 146-16 146-99s-60-101-146-95v194" id="bR"/><g id="t"><use transform="matrix(0.05,0,0,0.05,0,0)" xlink:href="#by"/><use transform="matrix(0.05,0,0,0.05,12,0)" xlink:href="#bL"/><use transform="matrix(0.05,0,0,0.05,24.950000000000003,0)" xlink:href="#bL"/><use transform="matrix(0.05,0,0,0.05,37.900000000000006,0)" xlink:href="#bM"/><use transform="matrix(0.05,0,0,0.05,50.85000000000001,0)" xlink:href="#by"/><use transform="matrix(0.05,0,0,0.05,62.85,0)" xlink:href="#bF"/><use transform="matrix(0.05,0,0,0.05,72.85000000000001,0)" xlink:href="#bN"/><use transform="matrix(0.05,0,0,0.05,82.85000000000001,0)" xlink:href="#bC"/><use transform="matrix(0.05,0,0,0.05,95.80000000000001,0)" xlink:href="#bK"/><use transform="matrix(0.05,0,0,0.05,107.80000000000001,0)" xlink:href="#bO"/><use transform="matrix(0.05,0,0,0.05,119.80000000000001,0)" xlink:href="#bI"/><use transform="matrix(0.05,0,0,0.05,124.80000000000001,0)" xlink:href="#bK"/><use transform="matrix(0.05,0,0,0.05,136.8,0)" xlink:href="#bP"/><use transform="matrix(0.05,0,0,0.05,153.75,0)" xlink:href="#bN"/><use transform="matrix(0.05,0,0,0.05,163.75,0)" xlink:href="#bb"/><use transform="matrix(0.05,0,0,0.05,175.75,0)" xlink:href="#bQ"/><use transform="matrix(0.05,0,0,0.05,185.35,0)" xlink:href="#by"/><use transform="matrix(0.05,0,0,0.05,197.35,0)" xlink:href="#bC"/><use transform="matrix(0.05,0,0,0.05,209.94999999999996,0)" xlink:href="#bQ"/><use transform="matrix(0.05,0,0,0.05,220.89999999999998,0)" xlink:href="#bK"/><use transform="matrix(0.05,0,0,0.05,232.89999999999998,0)" xlink:href="#bR"/></g><path fill="#fff" d="M87 75C49 33 22-17 22-94c0-76 28-126 65-167h31c-38 41-64 92-64 168S80 34 118 75H87" id="bS"/><path fill="#fff" d="M106-169C34-169 62-67 57 0H25v-261h32l-1 103c12-21 28-36 61-36 89 0 53 116 60 194h-32v-121c2-32-8-49-39-48" id="bT"/><g id="u"><use transform="matrix(0.05,0,0,0.05,0,0)" xlink:href="#bS"/><use transform="matrix(0.05,0,0,0.05,5.95,0)" xlink:href="#bE"/><use transform="matrix(0.05,0,0,0.05,18.900000000000002,0)" xlink:href="#bw"/><use transform="matrix(0.05,0,0,0.05,22.85,0)" xlink:href="#bc"/><use transform="matrix(0.05,0,0,0.05,27.85,0)" xlink:href="#bT"/></g><path fill="#fff" d="M101-234c-31-9-42 10-38 44h38v23H63V0H32v-167H5v-23h27c-7-52 17-82 69-68v24" id="bU"/><path fill="#fff" d="M96-169c-40 0-48 33-48 73s9 75 48 75c24 0 41-14 43-38l32 2c-6 37-31 61-74 61-59 0-76-41-82-99-10-93 101-131 147-64 4 7 5 14 7 22l-32 3c-4-21-16-35-41-35" id="bV"/><path fill="#fff" d="M33-261c38 41 65 92 65 168S71 34 33 75H2C39 34 66-17 66-93S39-220 2-261h31" id="bW"/><g id="v"><use transform="matrix(0.05,0,0,0.05,0,0)" xlink:href="#be"/><use transform="matrix(0.05,0,0,0.05,5.95,0)" xlink:href="#bv"/><use transform="matrix(0.05,0,0,0.05,15.949999999999998,0)" xlink:href="#bU"/><use transform="matrix(0.05,0,0,0.05,20.95,0)" xlink:href="#bv"/><use transform="matrix(0.05,0,0,0.05,30.950000000000003,0)" xlink:href="#be"/><use transform="matrix(0.05,0,0,0.05,36.9,0)" xlink:href="#bv"/><use transform="matrix(0.05,0,0,0.05,46.9,0)" xlink:href="#bz"/><use transform="matrix(0.05,0,0,0.05,56.900000000000006,0)" xlink:href="#bV"/><use transform="matrix(0.05,0,0,0.05,65.9,0)" xlink:href="#bv"/><use transform="matrix(0.05,0,0,0.05,75.9,0)" xlink:href="#bW"/></g><path fill="#333" d="M190 0L58-211 59 0H30v-248h39L202-35l-2-213h31V0h-41" id="bX"/><g id="w"><use transform="matrix(0.05,0,0,0.05,0,0)" xlink:href="#bX"/><use transform="matrix(0.05,0,0,0.05,12.950000000000001,0)" xlink:href="#bn"/></g><path fill="#333" d="M117-194c89-4 53 116 60 194h-32v-121c0-31-8-49-39-48C34-167 62-67 57 0H25l-1-190h30c1 10-1 24 2 32 11-22 29-35 61-36" id="bY"/><g id="x"><use transform="matrix(0.04938271604938272,0,0,0.04938271604938272,0,0)" xlink:href="#bj"/><use transform="matrix(0.04938271604938272,0,0,0.04938271604938272,11.851851851851853,0)" xlink:href="#bY"/><use transform="matrix(0.04938271604938272,0,0,0.04938271604938272,21.7283950617284,0)" xlink:href="#bq"/></g><path fill="#333" d="M101-234c-31-9-42 10-38 44h38v23H63V0H32v-167H5v-23h27c-7-52 17-82 69-68v24" id="bZ"/><path fill="#333" d="M24 0v-261h32V0H24" id="ca"/><g id="y"><use transform="matrix(0.04938271604938272,0,0,0.04938271604938272,0,0)" xlink:href="#bZ"/><use transform="matrix(0.04938271604938272,0,0,0.04938271604938272,4.938271604938272,0)" xlink:href="#bp"/><use transform="matrix(0.04938271604938272,0,0,0.04938271604938272,14.814814814814817,0)" xlink:href="#bf"/><use transform="matrix(0.04938271604938272,0,0,0.04938271604938272,18.71604938271605,0)" xlink:href="#ca"/><use transform="matrix(0.04938271604938272,0,0,0.04938271604938272,22.617283950617285,0)" xlink:href="#bs"/><use transform="matrix(0.04938271604938272,0,0,0.04938271604938272,32.49382716049383,0)" xlink:href="#bo"/></g><path fill="#333" d="M24-231v-30h32v30H24zM-9 49c24 4 33-6 33-30v-209h32V24c2 40-23 58-65 49V49" id="cb"/><path fill="#333" d="M115-194c53 0 69 39 70 98 0 66-23 100-70 100C84 3 66-7 56-30L54 0H23l1-261h32v101c10-23 28-34 59-34zm-8 174c40 0 45-34 45-75 0-40-5-75-45-74-42 0-51 32-51 76 0 43 10 73 51 73" id="cc"/><g id="z"><use transform="matrix(0.04938271604938272,0,0,0.04938271604938272,0,0)" xlink:href="#cb"/><use transform="matrix(0.04938271604938272,0,0,0.04938271604938272,3.901234567901235,0)" xlink:href="#bn"/><use transform="matrix(0.04938271604938272,0,0,0.04938271604938272,13.777777777777779,0)" xlink:href="#cc"/><use transform="matrix(0.04938271604938272,0,0,0.04938271604938272,23.654320987654323,0)" xlink:href="#bg"/><use transform="matrix(0.04938271604938272,0,0,0.04938271604938272,32.543209876543216,0)" xlink:href="#bu"/></g><g id="A"><use transform="matrix(0.04938271604938272,0,0,0.04938271604938272,0,0)" xlink:href="#bb"/><use transform="matrix(0.04938271604938272,0,0,0.04938271604938272,11.851851851851853,0)" xlink:href="#bc"/><use transform="matrix(0.04938271604938272,0,0,0.04938271604938272,16.790123456790127,0)" xlink:href="#bd"/><use transform="matrix(0.04938271604938272,0,0,0.04938271604938272,26.666666666666668,0)" xlink:href="#be"/><use transform="matrix(0.04938271604938272,0,0,0.04938271604938272,32.543209876543216,0)" xlink:href="#bc"/></g><g id="B"><use transform="matrix(0.04938271604938272,0,0,0.04938271604938272,0,0)" xlink:href="#bS"/><use transform="matrix(0.04938271604938272,0,0,0.04938271604938272,5.8765432098765435,0)" xlink:href="#bE"/><use transform="matrix(0.04938271604938272,0,0,0.04938271604938272,18.666666666666668,0)" xlink:href="#bw"/><use transform="matrix(0.04938271604938272,0,0,0.04938271604938272,22.567901234567902,0)" xlink:href="#bc"/><use transform="matrix(0.04938271604938272,0,0,0.04938271604938272,27.506172839506174,0)" xlink:href="#bT"/></g><g id="C"><use transform="matrix(0.04938271604938272,0,0,0.04938271604938272,0,0)" xlink:href="#bU"/><use transform="matrix(0.04938271604938272,0,0,0.04938271604938272,4.938271604938272,0)" xlink:href="#bd"/><use transform="matrix(0.04938271604938272,0,0,0.04938271604938272,14.814814814814817,0)" xlink:href="#bw"/><use transform="matrix(0.04938271604938272,0,0,0.04938271604938272,18.71604938271605,0)" xlink:href="#bB"/><use transform="matrix(0.04938271604938272,0,0,0.04938271604938272,22.617283950617285,0)" xlink:href="#bv"/><use transform="matrix(0.04938271604938272,0,0,0.04938271604938272,32.49382716049383,0)" xlink:href="#bH"/><use transform="matrix(0.04938271604938272,0,0,0.04938271604938272,42.370370370370374,0)" xlink:href="#bW"/></g><path fill="#fff" d="M141 0L90-78 38 0H4l68-98-65-92h35l48 74 47-74h35l-64 92 68 98h-35" id="cd"/><g id="D"><use transform="matrix(0.04938271604938272,0,0,0.04938271604938272,0,0)" xlink:href="#bK"/><use transform="matrix(0.04938271604938272,0,0,0.04938271604938272,11.851851851851853,0)" xlink:href="#cd"/><use transform="matrix(0.04938271604938272,0,0,0.04938271604938272,20.74074074074074,0)" xlink:href="#bw"/><use transform="matrix(0.04938271604938272,0,0,0.04938271604938272,24.641975308641975,0)" xlink:href="#bc"/></g><path fill="#333" d="M232-93c-1 65-40 97-104 97C67 4 28-28 28-90v-158h33c8 89-33 224 67 224 102 0 64-133 71-224h33v155" id="ce"/><path fill="#333" d="M30-248c87 1 191-15 191 75 0 78-77 80-158 76V0H30v-248zm33 125c57 0 124 11 124-50 0-59-68-47-124-48v98" id="cf"/><path fill="#333" d="M160-131c35 5 61 23 61 61C221 17 115-2 30 0v-248c76 3 177-17 177 60 0 33-19 50-47 57zm-97-11c50-1 110 9 110-42 0-47-63-36-110-37v79zm0 115c55-2 124 14 124-45 0-56-70-42-124-44v89" id="cg"/><path fill="#333" d="M30 0v-248h33v221h125V0H30" id="ch"/><path fill="#333" d="M33 0v-248h34V0H33" id="ci"/><path fill="#333" d="M197 0v-115H63V0H30v-248h33v105h134v-105h34V0h-34" id="cj"/><g id="E"><use transform="matrix(0.04938271604938272,0,0,0.04938271604938272,0,0)" xlink:href="#ce"/><use transform="matrix(0.04938271604938272,0,0,0.04938271604938272,12.790123456790125,0)" xlink:href="#bX"/><use transform="matrix(0.04938271604938272,0,0,0.04938271604938272,25.58024691358025,0)" xlink:href="#cf"/><use transform="matrix(0.04938271604938272,0,0,0.04938271604938272,37.4320987654321,0)" xlink:href="#ce"/><use transform="matrix(0.04938271604938272,0,0,0.04938271604938272,50.22222222222223,0)" xlink:href="#cg"/><use transform="matrix(0.04938271604938272,0,0,0.04938271604938272,62.074074074074076,0)" xlink:href="#ch"/><use transform="matrix(0.04938271604938272,0,0,0.04938271604938272,71.95061728395063,0)" xlink:href="#ci"/><use transform="matrix(0.04938271604938272,0,0,0.04938271604938272,76.88888888888891,0)" xlink:href="#bh"/><use transform="matrix(0.04938271604938272,0,0,0.04938271604938272,88.74074074074076,0)" xlink:href="#cj"/></g><g id="F"><use transform="matrix(0.04938271604938272,0,0,0.04938271604938272,0,0)" xlink:href="#ce"/><use transform="matrix(0.04938271604938272,0,0,0.04938271604938272,12.790123456790125,0)" xlink:href="#bX"/><use transform="matrix(0.04938271604938272,0,0,0.04938271604938272,25.58024691358025,0)" xlink:href="#cf"/><use transform="matrix(0.04938271604938272,0,0,0.04938271604938272,37.4320987654321,0)" xlink:href="#ce"/><use transform="matrix(0.04938271604938272,0,0,0.04938271604938272,50.22222222222223,0)" xlink:href="#cg"/><use transform="matrix(0.04938271604938272,0,0,0.04938271604938272,62.074074074074076,0)" xlink:href="#ch"/><use transform="matrix(0.04938271604938272,0,0,0.04938271604938272,71.95061728395063,0)" xlink:href="#ci"/><use transform="matrix(0.04938271604938272,0,0,0.04938271604938272,76.88888888888891,0)" xlink:href="#bh"/><use transform="matrix(0.04938271604938272,0,0,0.04938271604938272,88.74074074074076,0)" xlink:href="#cj"/></g><path fill="#333" d="M84 4C-5 8 30-112 23-190h32v120c0 31 7 50 39 49 72-2 45-101 50-169h31l1 190h-30c-1-10 1-25-2-33-11 22-28 36-60 37" id="ck"/><path fill="#333" d="M108 0H70L1-190h34L89-25l56-165h34" id="cl"/><path fill="#333" d="M206 0h-36l-40-164L89 0H53L-1-190h32L70-26l43-164h34l41 164 42-164h31" id="cm"/><g id="G"><use transform="matrix(0.04938271604938272,0,0,0.04938271604938272,0,0)" xlink:href="#bf"/><use transform="matrix(0.04938271604938272,0,0,0.04938271604938272,3.901234567901235,0)" xlink:href="#bg"/><use transform="matrix(0.04938271604938272,0,0,0.04938271604938272,12.790123456790125,0)" xlink:href="#bj"/><use transform="matrix(0.04938271604938272,0,0,0.04938271604938272,24.641975308641975,0)" xlink:href="#bY"/><use transform="matrix(0.04938271604938272,0,0,0.04938271604938272,34.51851851851852,0)" xlink:href="#bY"/><use transform="matrix(0.04938271604938272,0,0,0.04938271604938272,44.39506172839506,0)" xlink:href="#ck"/><use transform="matrix(0.04938271604938272,0,0,0.04938271604938272,54.27160493827161,0)" xlink:href="#bp"/><use transform="matrix(0.04938271604938272,0,0,0.04938271604938272,64.14814814814815,0)" xlink:href="#ca"/><use transform="matrix(0.04938271604938272,0,0,0.04938271604938272,68.0493827160494,0)" xlink:href="#bk"/><use transform="matrix(0.04938271604938272,0,0,0.04938271604938272,80.83950617283952,0)" xlink:href="#bs"/><use transform="matrix(0.04938271604938272,0,0,0.04938271604938272,90.71604938271606,0)" xlink:href="#cl"/><use transform="matrix(0.04938271604938272,0,0,0.04938271604938272,99.60493827160495,0)" xlink:href="#bf"/><use transform="matrix(0.04938271604938272,0,0,0.04938271604938272,103.50617283950618,0)" xlink:href="#bs"/><use transform="matrix(0.04938271604938272,0,0,0.04938271604938272,113.38271604938272,0)" xlink:href="#cm"/></g><g id="H"><use transform="matrix(0.04938271604938272,0,0,0.04938271604938272,0,0)" xlink:href="#bp"/><use transform="matrix(0.04938271604938272,0,0,0.04938271604938272,9.876543209876544,0)" xlink:href="#bY"/><use transform="matrix(0.04938271604938272,0,0,0.04938271604938272,19.75308641975309,0)" xlink:href="#bo"/></g><g id="I"><use transform="matrix(0.04938271604938272,0,0,0.04938271604938272,0,0)" xlink:href="#bg"/><use transform="matrix(0.04938271604938272,0,0,0.04938271604938272,8.88888888888889,0)" xlink:href="#bt"/><use transform="matrix(0.04938271604938272,0,0,0.04938271604938272,13.827160493827162,0)" xlink:href="#bp"/><use transform="matrix(0.04938271604938272,0,0,0.04938271604938272,23.703703703703706,0)" xlink:href="#bt"/><use transform="matrix(0.04938271604938272,0,0,0.04938271604938272,28.641975308641978,0)" xlink:href="#ck"/><use transform="matrix(0.04938271604938272,0,0,0.04938271604938272,38.51851851851852,0)" xlink:href="#bg"/></g><g id="J"><use transform="matrix(0.04938271604938272,0,0,0.04938271604938272,0,0)" xlink:href="#bf"/><use transform="matrix(0.04938271604938272,0,0,0.04938271604938272,3.901234567901235,0)" xlink:href="#bg"/></g><path fill="#333" d="M140-251c81 0 123 46 123 126C263-46 219 4 140 4 59 4 17-45 17-125s42-126 123-126zm0 227c63 0 89-41 89-101s-29-99-89-99c-61 0-89 39-89 99S79-25 140-24" id="cn"/><path fill="#333" d="M-5 72V49h209v23H-5" id="co"/><path fill="#333" d="M266 0h-40l-56-210L115 0H75L2-248h35L96-30l15-64 43-154h32l59 218 59-218h35" id="cp"/><path fill="#333" d="M137 0h-34L2-248h35l83 218 83-218h36" id="cq"/><path fill="#333" d="M30-248c118-7 216 8 213 122C240-48 200 0 122 0H30v-248zM63-27c89 8 146-16 146-99s-60-101-146-95v194" id="cr"/><path fill="#333" d="M30 0v-248h187v28H63v79h144v27H63v87h162V0H30" id="cs"/><g id="K"><use transform="matrix(0.04938271604938272,0,0,0.04938271604938272,0,0)" xlink:href="#cn"/><use transform="matrix(0.04938271604938272,0,0,0.04938271604938272,13.827160493827162,0)" xlink:href="#ce"/><use transform="matrix(0.04938271604938272,0,0,0.04938271604938272,26.617283950617285,0)" xlink:href="#bi"/><use transform="matrix(0.04938271604938272,0,0,0.04938271604938272,37.4320987654321,0)" xlink:href="#co"/><use transform="matrix(0.04938271604938272,0,0,0.04938271604938272,47.308641975308646,0)" xlink:href="#cp"/><use transform="matrix(0.04938271604938272,0,0,0.04938271604938272,64.0493827160494,0)" xlink:href="#ci"/><use transform="matrix(0.04938271604938272,0,0,0.04938271604938272,68.98765432098767,0)" xlink:href="#bi"/><use transform="matrix(0.04938271604938272,0,0,0.04938271604938272,79.80246913580248,0)" xlink:href="#cj"/><use transform="matrix(0.04938271604938272,0,0,0.04938271604938272,92.59259259259261,0)" xlink:href="#co"/><use transform="matrix(0.04938271604938272,0,0,0.04938271604938272,102.46913580246914,0)" xlink:href="#cf"/><use transform="matrix(0.04938271604938272,0,0,0.04938271604938272,114.320987654321,0)" xlink:href="#bk"/><use transform="matrix(0.04938271604938272,0,0,0.04938271604938272,127.11111111111113,0)" xlink:href="#cn"/><use transform="matrix(0.04938271604938272,0,0,0.04938271604938272,140.93827160493828,0)" xlink:href="#cq"/><use transform="matrix(0.04938271604938272,0,0,0.04938271604938272,152.79012345679013,0)" xlink:href="#ci"/><use transform="matrix(0.04938271604938272,0,0,0.04938271604938272,157.7283950617284,0)" xlink:href="#cr"/><use transform="matrix(0.04938271604938272,0,0,0.04938271604938272,170.51851851851853,0)" xlink:href="#cs"/><use transform="matrix(0.04938271604938272,0,0,0.04938271604938272,182.37037037037038,0)" xlink:href="#bk"/></g><path fill="#333" d="M114-163C36-179 61-72 57 0H25l-1-190h30c1 12-1 29 2 39 6-27 23-49 58-41v29" id="ct"/><g id="L"><use transform="matrix(0.05,0,0,0.05,0,0)" xlink:href="#ce"/><use transform="matrix(0.05,0,0,0.05,12.950000000000001,0)" xlink:href="#bg"/><use transform="matrix(0.05,0,0,0.05,21.950000000000003,0)" xlink:href="#bs"/><use transform="matrix(0.05,0,0,0.05,31.950000000000003,0)" xlink:href="#ct"/></g><path fill="#333" d="M106-169C34-169 62-67 57 0H25v-261h32l-1 103c12-21 28-36 61-36 89 0 53 116 60 194h-32v-121c2-32-8-49-39-48" id="cu"/><g id="M"><use transform="matrix(0.05,0,0,0.05,0,0)" xlink:href="#cu"/><use transform="matrix(0.05,0,0,0.05,10,0)" xlink:href="#bp"/><use transform="matrix(0.05,0,0,0.05,20,0)" xlink:href="#bg"/></g><path fill="#333" d="M115-194c55 1 70 41 70 98S169 2 115 4C84 4 66-9 55-30l1 105H24l-1-265h31l2 30c10-21 28-34 59-34zm-8 174c40 0 45-34 45-75s-6-73-45-74c-42 0-51 32-51 76 0 43 10 73 51 73" id="cv"/><g id="N"><use transform="matrix(0.05,0,0,0.05,0,0)" xlink:href="#ct"/><use transform="matrix(0.05,0,0,0.05,5.95,0)" xlink:href="#bs"/><use transform="matrix(0.05,0,0,0.05,15.949999999999998,0)" xlink:href="#bg"/><use transform="matrix(0.05,0,0,0.05,24.95,0)" xlink:href="#cv"/><use transform="matrix(0.05,0,0,0.05,34.95,0)" xlink:href="#bn"/><use transform="matrix(0.05,0,0,0.05,44.95,0)" xlink:href="#bY"/><use transform="matrix(0.05,0,0,0.05,54.95,0)" xlink:href="#bo"/><use transform="matrix(0.05,0,0,0.05,64.95,0)" xlink:href="#bs"/><use transform="matrix(0.05,0,0,0.05,74.95,0)" xlink:href="#bo"/></g><g id="O"><use transform="matrix(0.05,0,0,0.05,0,0)" xlink:href="#bp"/><use transform="matrix(0.05,0,0,0.05,10,0)" xlink:href="#bt"/></g><g id="P"><use transform="matrix(0.05,0,0,0.05,0,0)" xlink:href="#ca"/><use transform="matrix(0.05,0,0,0.05,3.95,0)" xlink:href="#bs"/><use transform="matrix(0.05,0,0,0.05,13.949999999999998,0)" xlink:href="#bp"/><use transform="matrix(0.05,0,0,0.05,23.95,0)" xlink:href="#bg"/><use transform="matrix(0.05,0,0,0.05,32.95,0)" xlink:href="#bt"/></g><path fill="#333" d="M96-169c-40 0-48 33-48 73s9 75 48 75c24 0 41-14 43-38l32 2c-6 37-31 61-74 61-59 0-76-41-82-99-10-93 101-131 147-64 4 7 5 14 7 22l-32 3c-4-21-16-35-41-35" id="cw"/><g id="Q"><use transform="matrix(0.05,0,0,0.05,0,0)" xlink:href="#bn"/><use transform="matrix(0.05,0,0,0.05,10,0)" xlink:href="#bY"/><use transform="matrix(0.05,0,0,0.05,20,0)" xlink:href="#cw"/><use transform="matrix(0.05,0,0,0.05,29,0)" xlink:href="#bs"/></g><g id="R"><use transform="matrix(0.05,0,0,0.05,0,0)" xlink:href="#bx"/><use transform="matrix(0.05,0,0,0.05,9,0)" xlink:href="#bv"/><use transform="matrix(0.05,0,0,0.05,19,0)" xlink:href="#bc"/></g><path fill="#fff" d="M115-194c55 1 70 41 70 98S169 2 115 4C84 4 66-9 55-30l1 105H24l-1-265h31l2 30c10-21 28-34 59-34zm-8 174c40 0 45-34 45-75s-6-73-45-74c-42 0-51 32-51 76 0 43 10 73 51 73" id="cx"/><path fill="#fff" d="M115-194c53 0 69 39 70 98 0 66-23 100-70 100C84 3 66-7 56-30L54 0H23l1-261h32v101c10-23 28-34 59-34zm-8 174c40 0 45-34 45-75 0-40-5-75-45-74-42 0-51 32-51 76 0 43 10 73 51 73" id="cy"/><g id="S"><use transform="matrix(0.05,0,0,0.05,0,0)" xlink:href="#cx"/><use transform="matrix(0.05,0,0,0.05,10,0)" xlink:href="#bA"/><use transform="matrix(0.05,0,0,0.05,20,0)" xlink:href="#cy"/><use transform="matrix(0.05,0,0,0.05,30,0)" xlink:href="#bB"/><use transform="matrix(0.05,0,0,0.05,33.95,0)" xlink:href="#bw"/><use transform="matrix(0.05,0,0,0.05,37.900000000000006,0)" xlink:href="#bx"/><use transform="matrix(0.05,0,0,0.05,46.900000000000006,0)" xlink:href="#bT"/><use transform="matrix(0.05,0,0,0.05,56.900000000000006,0)" xlink:href="#bv"/><use transform="matrix(0.05,0,0,0.05,66.9,0)" xlink:href="#bH"/></g><path fill="#fff" d="M18-150v-26h174v26H18zm0 90v-26h174v26H18" id="cz"/><use transform="matrix(0.05,0,0,0.05,0,0)" xlink:href="#cz" id="T"/><g id="U"><use transform="matrix(0.05,0,0,0.05,0,0)" xlink:href="#bU"/><use transform="matrix(0.05,0,0,0.05,5,0)" xlink:href="#bd"/><use transform="matrix(0.05,0,0,0.05,15,0)" xlink:href="#bB"/><use transform="matrix(0.05,0,0,0.05,18.95,0)" xlink:href="#bx"/><use transform="matrix(0.05,0,0,0.05,27.950000000000003,0)" xlink:href="#bv"/></g><g id="V"><use transform="matrix(0.05,0,0,0.05,0,0)" xlink:href="#bF"/><use transform="matrix(0.05,0,0,0.05,10,0)" xlink:href="#bw"/><use transform="matrix(0.05,0,0,0.05,13.949999999999998,0)" xlink:href="#bx"/><use transform="matrix(0.05,0,0,0.05,22.95,0)" xlink:href="#bc"/><use transform="matrix(0.05,0,0,0.05,27.950000000000003,0)" xlink:href="#bI"/><use transform="matrix(0.05,0,0,0.05,32.95,0)" xlink:href="#bc"/><use transform="matrix(0.05,0,0,0.05,37.95,0)" xlink:href="#bv"/><use transform="matrix(0.05,0,0,0.05,47.95,0)" xlink:href="#bJ"/><use transform="matrix(0.05,0,0,0.05,62.900000000000006,0)" xlink:href="#bK"/><use transform="matrix(0.05,0,0,0.05,74.9,0)" xlink:href="#bD"/><use transform="matrix(0.05,0,0,0.05,83.9,0)" xlink:href="#bv"/><use transform="matrix(0.05,0,0,0.05,93.9,0)" xlink:href="#bz"/><use transform="matrix(0.05,0,0,0.05,103.9,0)" xlink:href="#bc"/></g><g id="W"><use transform="matrix(0.05,0,0,0.05,0,0)" xlink:href="#bx"/><use transform="matrix(0.05,0,0,0.05,9,0)" xlink:href="#bc"/><use transform="matrix(0.05,0,0,0.05,14,0)" xlink:href="#bd"/><use transform="matrix(0.05,0,0,0.05,24,0)" xlink:href="#bc"/><use transform="matrix(0.05,0,0,0.05,29,0)" xlink:href="#bA"/><use transform="matrix(0.05,0,0,0.05,39,0)" xlink:href="#bx"/></g><use transform="matrix(0.05,0,0,0.05,0,0)" xlink:href="#cz" id="X"/><path fill="#fff" d="M140-251c81 0 123 46 123 126C263-46 219 4 140 4 59 4 17-45 17-125s42-126 123-126zm0 227c63 0 89-41 89-101s-29-99-89-99c-61 0-89 39-89 99S79-25 140-24" id="cA"/><g id="Y"><use transform="matrix(0.05,0,0,0.05,0,0)" xlink:href="#by"/><use transform="matrix(0.05,0,0,0.05,12,0)" xlink:href="#bL"/><use transform="matrix(0.05,0,0,0.05,24.950000000000003,0)" xlink:href="#bL"/><use transform="matrix(0.05,0,0,0.05,37.900000000000006,0)" xlink:href="#bM"/><use transform="matrix(0.05,0,0,0.05,50.85000000000001,0)" xlink:href="#by"/><use transform="matrix(0.05,0,0,0.05,62.85,0)" xlink:href="#bF"/><use transform="matrix(0.05,0,0,0.05,72.85000000000001,0)" xlink:href="#bN"/><use transform="matrix(0.05,0,0,0.05,82.85000000000001,0)" xlink:href="#bC"/><use transform="matrix(0.05,0,0,0.05,95.80000000000001,0)" xlink:href="#bK"/><use transform="matrix(0.05,0,0,0.05,107.80000000000001,0)" xlink:href="#bO"/><use transform="matrix(0.05,0,0,0.05,119.80000000000001,0)" xlink:href="#bI"/><use transform="matrix(0.05,0,0,0.05,124.80000000000001,0)" xlink:href="#bK"/><use transform="matrix(0.05,0,0,0.05,136.8,0)" xlink:href="#bP"/><use transform="matrix(0.05,0,0,0.05,153.75,0)" xlink:href="#bN"/><use transform="matrix(0.05,0,0,0.05,163.75,0)" xlink:href="#cA"/><use transform="matrix(0.05,0,0,0.05,177.75,0)" xlink:href="#bO"/><use transform="matrix(0.05,0,0,0.05,189.75,0)" xlink:href="#bK"/><use transform="matrix(0.05,0,0,0.05,201.75,0)" xlink:href="#bC"/><use transform="matrix(0.05,0,0,0.05,214.69999999999996,0)" xlink:href="#bR"/><use transform="matrix(0.05,0,0,0.05,227.64999999999998,0)" xlink:href="#bM"/><use transform="matrix(0.05,0,0,0.05,240.59999999999997,0)" xlink:href="#bK"/></g><g id="Z"><use transform="matrix(0.11790123456790114,0,0,0.11790123456790114,0,0)" xlink:href="#bh"/><use transform="matrix(0.11790123456790114,0,0,0.11790123456790114,28.296296296296273,0)" xlink:href="#bt"/><use transform="matrix(0.11790123456790114,0,0,0.11790123456790114,40.08641975308639,0)" xlink:href="#bp"/><use transform="matrix(0.11790123456790114,0,0,0.11790123456790114,63.666666666666615,0)" xlink:href="#bt"/><use transform="matrix(0.11790123456790114,0,0,0.11790123456790114,75.45679012345673,0)" xlink:href="#bs"/><use transform="matrix(0.11790123456790114,0,0,0.11790123456790114,99.03703703703695,0)" xlink:href="#bZ"/><use transform="matrix(0.11790123456790114,0,0,0.11790123456790114,110.82716049382707,0)" xlink:href="#ck"/><use transform="matrix(0.11790123456790114,0,0,0.11790123456790114,134.40740740740728,0)" xlink:href="#ca"/></g><path fill="#333" d="M143 0L79-87 56-68V0H24v-261h32v163l83-92h37l-77 82L181 0h-38" id="cB"/><g id="aa"><use transform="matrix(0.11790123456790114,0,0,0.11790123456790114,0,0)" xlink:href="#bt"/><use transform="matrix(0.11790123456790114,0,0,0.11790123456790114,11.790123456790113,0)" xlink:href="#bp"/><use transform="matrix(0.11790123456790114,0,0,0.11790123456790114,35.37037037037034,0)" xlink:href="#bg"/><use transform="matrix(0.11790123456790114,0,0,0.11790123456790114,56.59259259259254,0)" xlink:href="#cB"/><use transform="matrix(0.11790123456790114,0,0,0.11790123456790114,77.81481481481474,0)" xlink:href="#bg"/></g><path fill="#333" d="M87 75C49 33 22-17 22-94c0-76 28-126 65-167h31c-38 41-64 92-64 168S80 34 118 75H87" id="cC"/><path fill="#333" d="M101-251c82-7 93 87 43 132L82-64C71-53 59-42 53-27h129V0H18c2-99 128-94 128-182 0-28-16-43-45-43s-46 15-49 41l-32-3c6-41 34-60 81-64" id="cD"/><path fill="#333" d="M33-261c38 41 65 92 65 168S71 34 33 75H2C39 34 66-17 66-93S39-220 2-261h31" id="cE"/><g id="ab"><use transform="matrix(0.11790123456790114,0,0,0.11790123456790114,0,0)" xlink:href="#cC"/><use transform="matrix(0.11790123456790114,0,0,0.11790123456790114,14.030246913580235,0)" xlink:href="#cD"/><use transform="matrix(0.11790123456790114,0,0,0.11790123456790114,37.61049382716046,0)" xlink:href="#cE"/></g><path fill="#333" d="M212-179c-10-28-35-45-73-45-59 0-87 40-87 99 0 60 29 101 89 101 43 0 62-24 78-52l27 14C228-24 195 4 139 4 59 4 22-46 18-125c-6-104 99-153 187-111 19 9 31 26 39 46" id="cF"/><path fill="#333" d="M177-190C167-65 218 103 67 71c-23-6-38-20-44-43l32-5c15 47 100 32 89-28v-30C133-14 115 1 83 1 29 1 15-40 15-95c0-56 16-97 71-98 29-1 48 16 59 35 1-10 0-23 2-32h30zM94-22c36 0 50-32 50-73 0-42-14-75-50-75-39 0-46 34-46 75s6 73 46 73" id="cG"/><g id="ac"><use transform="matrix(0.09320987654320982,0,0,0.09320987654320982,0,0)" xlink:href="#cF"/><use transform="matrix(0.09320987654320982,0,0,0.09320987654320982,24.141358024691343,0)" xlink:href="#cu"/><use transform="matrix(0.09320987654320982,0,0,0.09320987654320982,42.7833333333333,0)" xlink:href="#bp"/><use transform="matrix(0.09320987654320982,0,0,0.09320987654320982,61.42530864197526,0)" xlink:href="#bY"/><use transform="matrix(0.09320987654320982,0,0,0.09320987654320982,80.06728395061722,0)" xlink:href="#cG"/><use transform="matrix(0.09320987654320982,0,0,0.09320987654320982,98.70925925925918,0)" xlink:href="#bs"/><use transform="matrix(0.09320987654320982,0,0,0.09320987654320982,117.35123456790114,0)" xlink:href="#bg"/></g><g id="ad"><use transform="matrix(0.09320987654320982,0,0,0.09320987654320982,0,0)" xlink:href="#bg"/><use transform="matrix(0.09320987654320982,0,0,0.09320987654320982,16.777777777777768,0)" xlink:href="#bt"/><use transform="matrix(0.09320987654320982,0,0,0.09320987654320982,26.09876543209875,0)" xlink:href="#bp"/><use transform="matrix(0.09320987654320982,0,0,0.09320987654320982,44.74074074074072,0)" xlink:href="#bt"/><use transform="matrix(0.09320987654320982,0,0,0.09320987654320982,54.0617283950617,0)" xlink:href="#bs"/></g><g id="ae"><use transform="matrix(0.09320987654320982,0,0,0.09320987654320982,0,0)" xlink:href="#bn"/><use transform="matrix(0.09320987654320982,0,0,0.09320987654320982,18.641975308641964,0)" xlink:href="#bY"/></g><g id="af"><use transform="matrix(0.09320987654320982,0,0,0.09320987654320982,0,0)" xlink:href="#ch"/><use transform="matrix(0.09320987654320982,0,0,0.09320987654320982,18.641975308641964,0)" xlink:href="#bf"/><use transform="matrix(0.09320987654320982,0,0,0.09320987654320982,26.00555555555554,0)" xlink:href="#bg"/><use transform="matrix(0.09320987654320982,0,0,0.09320987654320982,42.7833333333333,0)" xlink:href="#bt"/></g><g id="ag"><use transform="matrix(0.09320987654320982,0,0,0.09320987654320982,0,0)" xlink:href="#bn"/><use transform="matrix(0.09320987654320982,0,0,0.09320987654320982,18.641975308641964,0)" xlink:href="#ct"/></g><path fill="#333" d="M210-169c-67 3-38 105-44 169h-31v-121c0-29-5-50-35-48C34-165 62-65 56 0H25l-1-190h30c1 10-1 24 2 32 10-44 99-50 107 0 11-21 27-35 58-36 85-2 47 119 55 194h-31v-121c0-29-5-49-35-48" id="cH"/><g id="ah"><use transform="matrix(0.09320987654320982,0,0,0.09320987654320982,0,0)" xlink:href="#ch"/><use transform="matrix(0.09320987654320982,0,0,0.09320987654320982,18.641975308641964,0)" xlink:href="#bf"/><use transform="matrix(0.09320987654320982,0,0,0.09320987654320982,26.00555555555554,0)" xlink:href="#bg"/><use transform="matrix(0.09320987654320982,0,0,0.09320987654320982,42.7833333333333,0)" xlink:href="#bt"/><use transform="matrix(0.09320987654320982,0,0,0.09320987654320982,52.104320987654276,0)" xlink:href="#ci"/><use transform="matrix(0.09320987654320982,0,0,0.09320987654320982,61.42530864197526,0)" xlink:href="#bt"/><use transform="matrix(0.09320987654320982,0,0,0.09320987654320982,70.74629629629625,0)" xlink:href="#bs"/><use transform="matrix(0.09320987654320982,0,0,0.09320987654320982,89.38827160493821,0)" xlink:href="#cH"/><use transform="matrix(0.09320987654320982,0,0,0.09320987654320982,117.25802469135796,0)" xlink:href="#bg"/></g><path fill="#333" d="M27 0v-27h64v-190l-56 39v-29l58-41h29v221h61V0H27" id="cI"/><path fill="#333" d="M33 0v-38h34V0H33" id="cJ"/><g id="aj"><use transform="matrix(0.09938271604938267,0,0,0.09938271604938267,0,0)" xlink:href="#cI"/><use transform="matrix(0.09938271604938267,0,0,0.09938271604938267,19.876543209876534,0)" xlink:href="#cJ"/></g><g id="ak"><use transform="matrix(0.09938271604938267,0,0,0.09938271604938267,0,0)" xlink:href="#bh"/><use transform="matrix(0.09938271604938267,0,0,0.09938271604938267,23.85185185185184,0)" xlink:href="#bt"/><use transform="matrix(0.09938271604938267,0,0,0.09938271604938267,33.790123456790106,0)" xlink:href="#bp"/><use transform="matrix(0.09938271604938267,0,0,0.09938271604938267,53.66666666666664,0)" xlink:href="#ct"/><use transform="matrix(0.09938271604938267,0,0,0.09938271604938267,65.49320987654318,0)" xlink:href="#bt"/></g><path fill="#333" d="M16-82v-28h88v28H16" id="cK"/><use transform="matrix(0.09938271604938267,0,0,0.09938271604938267,0,0)" xlink:href="#cK" id="al"/><g id="am"><use transform="matrix(0.09938271604938267,0,0,0.09938271604938267,0,0)" xlink:href="#cf"/><use transform="matrix(0.09938271604938267,0,0,0.09938271604938267,23.85185185185184,0)" xlink:href="#ck"/><use transform="matrix(0.09938271604938267,0,0,0.09938271604938267,43.72839506172838,0)" xlink:href="#bt"/><use transform="matrix(0.09938271604938267,0,0,0.09938271604938267,53.66666666666664,0)" xlink:href="#bg"/></g><g id="an"><use transform="matrix(0.09938271604938267,0,0,0.09938271604938267,0,0)" xlink:href="#ca"/><use transform="matrix(0.09938271604938267,0,0,0.09938271604938267,7.851234567901232,0)" xlink:href="#bf"/><use transform="matrix(0.09938271604938267,0,0,0.09938271604938267,15.702469135802463,0)" xlink:href="#bg"/><use transform="matrix(0.09938271604938267,0,0,0.09938271604938267,33.591358024691345,0)" xlink:href="#bt"/></g><g id="ao"><use transform="matrix(0.09938271604938267,0,0,0.09938271604938267,0,0)" xlink:href="#bf"/><use transform="matrix(0.09938271604938267,0,0,0.09938271604938267,7.851234567901232,0)" xlink:href="#bt"/><use transform="matrix(0.09938271604938267,0,0,0.09938271604938267,17.7895061728395,0)" xlink:href="#bs"/><use transform="matrix(0.09938271604938267,0,0,0.09938271604938267,37.66604938271603,0)" xlink:href="#cH"/><use transform="matrix(0.09938271604938267,0,0,0.09938271604938267,67.38148148148144,0)" xlink:href="#bg"/></g><g id="ap"><use transform="matrix(0.09938271604938267,0,0,0.09938271604938267,0,0)" xlink:href="#bf"/><use transform="matrix(0.09938271604938267,0,0,0.09938271604938267,7.851234567901232,0)" xlink:href="#bY"/><use transform="matrix(0.09938271604938267,0,0,0.09938271604938267,27.727777777777767,0)" xlink:href="#bt"/><use transform="matrix(0.09938271604938267,0,0,0.09938271604938267,37.66604938271603,0)" xlink:href="#bn"/></g><g id="aq"><use transform="matrix(0.09938271604938267,0,0,0.09938271604938267,0,0)" xlink:href="#bp"/><use transform="matrix(0.09938271604938267,0,0,0.09938271604938267,19.876543209876534,0)" xlink:href="#bY"/><use transform="matrix(0.09938271604938267,0,0,0.09938271604938267,39.75308641975307,0)" xlink:href="#bY"/><use transform="matrix(0.09938271604938267,0,0,0.09938271604938267,59.629629629629605,0)" xlink:href="#ck"/><use transform="matrix(0.09938271604938267,0,0,0.09938271604938267,79.50617283950614,0)" xlink:href="#bp"/><use transform="matrix(0.09938271604938267,0,0,0.09938271604938267,99.38271604938267,0)" xlink:href="#ca"/></g><g id="ar"><use transform="matrix(0.09938271604938267,0,0,0.09938271604938267,0,0)" xlink:href="#ct"/><use transform="matrix(0.09938271604938267,0,0,0.09938271604938267,11.826543209876538,0)" xlink:href="#bs"/><use transform="matrix(0.09938271604938267,0,0,0.09938271604938267,31.703086419753074,0)" xlink:href="#cl"/><use transform="matrix(0.09938271604938267,0,0,0.09938271604938267,49.59197530864195,0)" xlink:href="#bf"/><use transform="matrix(0.09938271604938267,0,0,0.09938271604938267,57.44320987654317,0)" xlink:href="#bs"/><use transform="matrix(0.09938271604938267,0,0,0.09938271604938267,77.31975308641971,0)" xlink:href="#cm"/></g><g id="as"><use transform="matrix(0.09938271604938267,0,0,0.09938271604938267,0,0)" xlink:href="#cH"/><use transform="matrix(0.09938271604938267,0,0,0.09938271604938267,29.71543209876542,0)" xlink:href="#bn"/><use transform="matrix(0.09938271604938267,0,0,0.09938271604938267,49.59197530864195,0)" xlink:href="#bo"/><use transform="matrix(0.09938271604938267,0,0,0.09938271604938267,69.46851851851848,0)" xlink:href="#bs"/></g><g id="au"><use transform="matrix(0.09938271604938267,0,0,0.09938271604938267,0,0)" xlink:href="#cD"/><use transform="matrix(0.09938271604938267,0,0,0.09938271604938267,19.876543209876534,0)" xlink:href="#cJ"/></g><g id="av"><use transform="matrix(0.09938271604938267,0,0,0.09938271604938267,0,0)" xlink:href="#ce"/><use transform="matrix(0.09938271604938267,0,0,0.09938271604938267,25.740123456790112,0)" xlink:href="#bY"/><use transform="matrix(0.09938271604938267,0,0,0.09938271604938267,45.616666666666646,0)" xlink:href="#cv"/><use transform="matrix(0.09938271604938267,0,0,0.09938271604938267,65.49320987654318,0)" xlink:href="#ck"/><use transform="matrix(0.09938271604938267,0,0,0.09938271604938267,85.3697530864197,0)" xlink:href="#cc"/><use transform="matrix(0.09938271604938267,0,0,0.09938271604938267,105.24629629629624,0)" xlink:href="#ca"/><use transform="matrix(0.09938271604938267,0,0,0.09938271604938267,113.09753086419747,0)" xlink:href="#bf"/><use transform="matrix(0.09938271604938267,0,0,0.09938271604938267,120.9487654320987,0)" xlink:href="#bg"/><use transform="matrix(0.09938271604938267,0,0,0.09938271604938267,138.83765432098758,0)" xlink:href="#cu"/></g><g id="aw"><use transform="matrix(0.09938271604938267,0,0,0.09938271604938267,0,0)" xlink:href="#bY"/><use transform="matrix(0.09938271604938267,0,0,0.09938271604938267,19.876543209876534,0)" xlink:href="#bn"/><use transform="matrix(0.09938271604938267,0,0,0.09938271604938267,39.75308641975307,0)" xlink:href="#bY"/><use transform="matrix(0.09938271604938267,0,0,0.09938271604938267,59.629629629629605,0)" xlink:href="#cK"/><use transform="matrix(0.09938271604938267,0,0,0.09938271604938267,71.45617283950614,0)" xlink:href="#ct"/><use transform="matrix(0.09938271604938267,0,0,0.09938271604938267,83.28271604938267,0)" xlink:href="#bs"/><use transform="matrix(0.09938271604938267,0,0,0.09938271604938267,103.15925925925919,0)" xlink:href="#bg"/><use transform="matrix(0.09938271604938267,0,0,0.09938271604938267,121.0481481481481,0)" xlink:href="#cv"/><use transform="matrix(0.09938271604938267,0,0,0.09938271604938267,140.92469135802463,0)" xlink:href="#bn"/><use transform="matrix(0.09938271604938267,0,0,0.09938271604938267,160.80123456790116,0)" xlink:href="#bY"/><use transform="matrix(0.09938271604938267,0,0,0.09938271604938267,180.6777777777777,0)" xlink:href="#bo"/><use transform="matrix(0.09938271604938267,0,0,0.09938271604938267,200.55432098765422,0)" xlink:href="#bp"/><use transform="matrix(0.09938271604938267,0,0,0.09938271604938267,220.43086419753078,0)" xlink:href="#bY"/><use transform="matrix(0.09938271604938267,0,0,0.09938271604938267,240.30740740740725,0)" xlink:href="#bt"/><use transform="matrix(0.09938271604938267,0,0,0.09938271604938267,250.24567901234556,0)" xlink:href="#bg"/></g><g id="ax"><use transform="matrix(0.09938271604938267,0,0,0.09938271604938267,0,0)" xlink:href="#ck"/><use transform="matrix(0.09938271604938267,0,0,0.09938271604938267,19.876543209876534,0)" xlink:href="#bY"/><use transform="matrix(0.09938271604938267,0,0,0.09938271604938267,39.75308641975307,0)" xlink:href="#cv"/><use transform="matrix(0.09938271604938267,0,0,0.09938271604938267,59.629629629629605,0)" xlink:href="#ck"/><use transform="matrix(0.09938271604938267,0,0,0.09938271604938267,79.50617283950614,0)" xlink:href="#cc"/><use transform="matrix(0.09938271604938267,0,0,0.09938271604938267,99.38271604938267,0)" xlink:href="#ca"/><use transform="matrix(0.09938271604938267,0,0,0.09938271604938267,107.23395061728391,0)" xlink:href="#bf"/><use transform="matrix(0.09938271604938267,0,0,0.09938271604938267,115.08518518518511,0)" xlink:href="#bg"/><use transform="matrix(0.09938271604938267,0,0,0.09938271604938267,132.974074074074,0)" xlink:href="#cu"/></g><g id="ay"><use transform="matrix(0.09938271604938267,0,0,0.09938271604938267,0,0)" xlink:href="#bg"/><use transform="matrix(0.09938271604938267,0,0,0.09938271604938267,17.888888888888882,0)" xlink:href="#bt"/><use transform="matrix(0.09938271604938267,0,0,0.09938271604938267,27.827160493827147,0)" xlink:href="#bp"/><use transform="matrix(0.09938271604938267,0,0,0.09938271604938267,47.70370370370368,0)" xlink:href="#bt"/><use transform="matrix(0.09938271604938267,0,0,0.09938271604938267,57.64197530864195,0)" xlink:href="#bs"/></g><g id="az"><use transform="matrix(0.09938271604938267,0,0,0.09938271604938267,0,0)" xlink:href="#cC"/><use transform="matrix(0.09938271604938267,0,0,0.09938271604938267,11.826543209876538,0)" xlink:href="#bt"/><use transform="matrix(0.09938271604938267,0,0,0.09938271604938267,21.764814814814805,0)" xlink:href="#bn"/></g><g id="aA"><use transform="matrix(0.09938271604938267,0,0,0.09938271604938267,0,0)" xlink:href="#cc"/><use transform="matrix(0.09938271604938267,0,0,0.09938271604938267,19.876543209876534,0)" xlink:href="#bs"/></g><g id="aB"><use transform="matrix(0.09938271604938267,0,0,0.09938271604938267,0,0)" xlink:href="#bo"/><use transform="matrix(0.09938271604938267,0,0,0.09938271604938267,19.876543209876534,0)" xlink:href="#bs"/><use transform="matrix(0.09938271604938267,0,0,0.09938271604938267,39.75308641975307,0)" xlink:href="#ca"/><use transform="matrix(0.09938271604938267,0,0,0.09938271604938267,47.6043209876543,0)" xlink:href="#bs"/><use transform="matrix(0.09938271604938267,0,0,0.09938271604938267,67.48086419753083,0)" xlink:href="#bt"/><use transform="matrix(0.09938271604938267,0,0,0.09938271604938267,77.4191358024691,0)" xlink:href="#bs"/><use transform="matrix(0.09938271604938267,0,0,0.09938271604938267,97.29567901234563,0)" xlink:href="#bo"/><use transform="matrix(0.09938271604938267,0,0,0.09938271604938267,117.17222222222215,0)" xlink:href="#cE"/><use transform="matrix(0.09938271604938267,0,0,0.09938271604938267,128.9987654320987,0)" xlink:href="#cJ"/></g><g id="aC"><use transform="matrix(0.09938271604938267,0,0,0.09938271604938267,0,0)" xlink:href="#cs"/><use transform="matrix(0.09938271604938267,0,0,0.09938271604938267,23.85185185185184,0)" xlink:href="#bY"/><use transform="matrix(0.09938271604938267,0,0,0.09938271604938267,43.72839506172838,0)" xlink:href="#bo"/><use transform="matrix(0.09938271604938267,0,0,0.09938271604938267,63.60493827160491,0)" xlink:href="#bg"/></g><path fill="#333" d="M109-170H84l-4-78h32zm-65 0H19l-4-78h33" id="cL"/><g id="aD"><use transform="matrix(0.09938271604938267,0,0,0.09938271604938267,0,0)" xlink:href="#cL"/><use transform="matrix(0.09938271604938267,0,0,0.09938271604938267,12.6216049382716,0)" xlink:href="#bp"/><use transform="matrix(0.09938271604938267,0,0,0.09938271604938267,32.49814814814813,0)" xlink:href="#bY"/><use transform="matrix(0.09938271604938267,0,0,0.09938271604938267,52.374691358024656,0)" xlink:href="#bY"/><use transform="matrix(0.09938271604938267,0,0,0.09938271604938267,72.2512345679012,0)" xlink:href="#ck"/><use transform="matrix(0.09938271604938267,0,0,0.09938271604938267,92.12777777777772,0)" xlink:href="#bp"/><use transform="matrix(0.09938271604938267,0,0,0.09938271604938267,112.00432098765425,0)" xlink:href="#ca"/></g><g id="aE"><use transform="matrix(0.09938271604938267,0,0,0.09938271604938267,0,0)" xlink:href="#ct"/><use transform="matrix(0.09938271604938267,0,0,0.09938271604938267,11.826543209876538,0)" xlink:href="#bs"/><use transform="matrix(0.09938271604938267,0,0,0.09938271604938267,31.703086419753074,0)" xlink:href="#cl"/><use transform="matrix(0.09938271604938267,0,0,0.09938271604938267,49.59197530864195,0)" xlink:href="#bf"/><use transform="matrix(0.09938271604938267,0,0,0.09938271604938267,57.44320987654317,0)" xlink:href="#bs"/><use transform="matrix(0.09938271604938267,0,0,0.09938271604938267,77.31975308641971,0)" xlink:href="#cm"/><use transform="matrix(0.09938271604938267,0,0,0.09938271604938267,103.05987654320984,0)" xlink:href="#cL"/></g><g id="aF"><use transform="matrix(0.09938271604938267,0,0,0.09938271604938267,0,0)" xlink:href="#cH"/><use transform="matrix(0.09938271604938267,0,0,0.09938271604938267,29.71543209876542,0)" xlink:href="#bn"/><use transform="matrix(0.09938271604938267,0,0,0.09938271604938267,49.59197530864195,0)" xlink:href="#bo"/><use transform="matrix(0.09938271604938267,0,0,0.09938271604938267,69.46851851851848,0)" xlink:href="#bs"/><use transform="matrix(0.09938271604938267,0,0,0.09938271604938267,89.34506172839501,0)" xlink:href="#cJ"/></g></defs></g></svg>