<svg xmlns="http://www.w3.org/2000/svg" xmlns:xlink="http://www.w3.org/1999/xlink" xmlns:lucid="lucid" width="2281.47" height="730.7"><g transform="translate(0 0)" lucid:page-tab-id="7_margi3Nd6_"><path d="M0 0h2281.47v730.7H0z" fill="#fff"/><path d="M850.94 108.7a8 8 0 0 1 8-8h99a8 8 0 0 1 8 8v4.93a17.07 17.07 0 0 1-5 12.07 17.07 17.07 0 0 1-12.07 5h-89.93a8 8 0 0 1-8-8z" fill="#fff"/><path d="M965.94 100.7v20l-10 10h-105" stroke="#333" fill="none"/><path d="M850.94 108.7a8 8 0 0 1 8-8H2206.7a8 8 0 0 1 8 8v555.85a8 8 0 0 1-8 8H858.94a8 8 0 0 1-8-8z" stroke="#333" fill="none"/><use xlink:href="#a" transform="matrix(1,0,0,1,858.9368375417544,100.70092834194656) translate(0 18.6)"/><use xlink:href="#b" transform="matrix(1,0,0,1,858.9368375417544,100.70092834194656) translate(46 18.6)"/><path d="M23.77 38.22a8 8 0 0 1 8-8h350.46a8 8 0 0 1 8 8v65.5a8 8 0 0 1-8 8H31.77a8 8 0 0 1-8-8z" stroke="#000" stroke-opacity="0" fill="#fff" fill-opacity="0"/><use xlink:href="#c" transform="matrix(1,0,0,1,28.77519884502169,35.220297579008474) translate(0 26.844444444444434)"/><use xlink:href="#d" transform="matrix(1,0,0,1,28.77519884502169,35.220297579008474) translate(116.5123456790123 26.844444444444434)"/><use xlink:href="#e" transform="matrix(1,0,0,1,28.77519884502169,35.220297579008474) translate(0 59.99999999999997)"/><use xlink:href="#f" transform="matrix(1,0,0,1,28.77519884502169,35.220297579008474) translate(178.5 96.71111111111107)"/><use xlink:href="#g" transform="matrix(1,0,0,1,28.77519884502169,35.220297579008474) translate(178.5 136.9777777777777)"/><path d="M248.7 245.7c20.34 0 36.82 17.9 36.82 40 0 22.08-16.48 40-36.8 40H138.27c-20.32 0-36.8-17.92-36.8-40 0-22.1 16.48-40 36.8-40z" stroke="#000" stroke-opacity="0" fill="#5358d3"/><use xlink:href="#h" transform="matrix(1,0,0,1,106.47669148684128,250.69295138100802) translate(21.870370370370363 28.359722222222224)"/><use xlink:href="#i" transform="matrix(1,0,0,1,106.47669148684128,250.69295138100802) translate(64.29012345679013 28.359722222222224)"/><use xlink:href="#j" transform="matrix(1,0,0,1,106.47669148684128,250.69295138100802) translate(104.73456790123458 28.359722222222224)"/><use xlink:href="#k" transform="matrix(1,0,0,1,106.47669148684128,250.69295138100802) translate(47.74691358024691 49.69305555555555)"/><use xlink:href="#l" transform="matrix(1,0,0,1,106.47669148684128,250.69295138100802) translate(90.85802469135803 49.69305555555555)"/><path d="M286.02 285.7h120" stroke="#333" fill="none"/><path d="M286.03 286.2h-.54l.02-.5-.02-.5h.53z" stroke="#333" stroke-width=".05" fill="#333"/><path d="M420.78 285.7l-14.27 4.63v-9.27z" stroke="#333" fill="#333"/><path d="M1056.06 213.04a14.17 14.17 0 0 1 13.94 0l121.7 68.72a4.52 4.52 0 0 1 0 7.87l-121.7 68.7a14.17 14.17 0 0 1-13.94 0l-121.7-68.7a4.52 4.52 0 0 1 0-7.87z" stroke="#323580" stroke-width="4" fill="#fff"/><use xlink:href="#m" transform="matrix(1,0,0,1,932.1942101814889,213.9094765194616) translate(30.801296296296282 66.92222222222223)"/><use xlink:href="#n" transform="matrix(1,0,0,1,932.1942101814889,213.9094765194616) translate(49.566728395061716 66.92222222222223)"/><use xlink:href="#o" transform="matrix(1,0,0,1,932.1942101814889,213.9094765194616) translate(94.94944444444444 66.92222222222223)"/><use xlink:href="#p" transform="matrix(1,0,0,1,932.1942101814889,213.9094765194616) translate(109.76425925925926 66.92222222222223)"/><use xlink:href="#q" transform="matrix(1,0,0,1,932.1942101814889,213.9094765194616) translate(171.9370987654321 66.92222222222223)"/><use xlink:href="#r" transform="matrix(1,0,0,1,932.1942101814889,213.9094765194616) translate(86.55438271604937 88.25555555555556)"/><use xlink:href="#s" transform="matrix(1,0,0,1,932.1942101814889,213.9094765194616) translate(121.12228395061729 88.25555555555556)"/><path d="M422.9 233.7a8 8 0 0 1 8-8h335.72a8 8 0 0 1 8 8v104a8 8 0 0 1-8 8H430.9a8 8 0 0 1-8-8z" stroke="#fff" fill="#5358d3"/><use xlink:href="#t" transform="matrix(1,0,0,1,434.8975696481458,237.69295138100802) translate(68.57499999999999 41.4)"/><use xlink:href="#u" transform="matrix(1,0,0,1,434.8975696481458,237.69295138100802) translate(108.475 41.4)"/><use xlink:href="#v" transform="matrix(1,0,0,1,434.8975696481458,237.69295138100802) translate(177.475 41.4)"/><use xlink:href="#w" transform="matrix(1,0,0,1,434.8975696481458,237.69295138100802) translate(18.275000000000034 63)"/><path d="M775.62 285.7h138.05" stroke="#333" fill="none"/><path d="M775.63 286.2h-.5v-1h.5z" stroke="#333" stroke-width=".05" fill="#333"/><path d="M928.43 285.7l-14.26 4.63v-9.27z" stroke="#333" fill="#333"/><path d="M1297.3 286.7H1197v-2h100.3zm112.12 0h-82.78v-2h82.78z" stroke="#008a0e" stroke-width=".05" fill="#008a0e"/><path d="M1197.03 286.7h-1.13l.1-1-.1-1h1.13z" fill="#008a0e"/><path d="M1197.06 286.72h-1.2l.12-1.03-.1-1.03h1.18zm-1.13-2l.1.97-.1.97h1.08v-1.95z" stroke="#008a0e" stroke-width=".05" fill="#008a0e"/><path d="M1424.7 285.7l-14.28 4.63v-9.27z" fill="#008a0e"/><path d="M1427.92 285.7l-18.5 6V279.7zm-16.5 3.25l10.03-3.26-10.03-3.27z" stroke="#008a0e" stroke-width=".05" fill="#008a0e"/><g><use xlink:href="#x" transform="matrix(1,0,0,1,1297.2897699904472,274.8929514320544) translate(0.005000000000000782 14.4)"/></g><path d="M1428.42 233.7a8 8 0 0 1 8-8h209.13a8 8 0 0 1 8 8v104a8 8 0 0 1-8 8h-209.13a8 8 0 0 1-8-8z" stroke="#fff" fill="#5358d3"/><g><use xlink:href="#y" transform="matrix(1,0,0,1,1440.4239900675793,237.69295138100802) translate(19.07499999999999 50.4)"/><use xlink:href="#z" transform="matrix(1,0,0,1,1440.4239900675793,237.69295138100802) translate(57.02499999999999 50.4)"/><use xlink:href="#A" transform="matrix(1,0,0,1,1440.4239900675793,237.69295138100802) translate(119.975 50.4)"/></g><path d="M1937.3 468.84a8 8 0 0 1 8-8h209.12a8 8 0 0 1 8 8v104a8 8 0 0 1-8 8H1945.3a8 8 0 0 1-8-8z" stroke="#fff" fill="#5358d3"/><g><use xlink:href="#y" transform="matrix(1,0,0,1,1949.289950427226,472.84111401034716) translate(5.125 50.4)"/><use xlink:href="#B" transform="matrix(1,0,0,1,1949.289950427226,472.84111401034716) translate(43.075 50.4)"/><use xlink:href="#A" transform="matrix(1,0,0,1,1949.289950427226,472.84111401034716) translate(133.925 50.4)"/></g><path d="M1064.03 508.8l.14 1.76.4 1.68.66 1.6.9 1.46 1.12 1.32 1.32 1.12 1.47.9 1.6.66 1.67.4 1.77.14h334.03v2H1075l-2-.16-2-.47-1.87-.77-1.74-1.07-1.57-1.32-1.32-1.56-1.06-1.74-.78-1.88-.47-2-.17-1.98v-145.7h2zm854.26 11.04v2h-486.25v-2z" stroke="#e81313" stroke-width=".05" fill="#e81313"/><path d="M1063.03 362.18l1-.06v1.08h-2v-1.07z" fill="#e81313"/><path d="M1063.03 362.15l1.02-.05v1.13H1062v-1.13zm-.98 1.03h1.95v-1.03l-.97.05-.98-.05z" stroke="#e81313" stroke-width=".05" fill="#e81313"/><path d="M1933.55 520.84l-14.26 4.64v-9.27z" fill="#e81313"/><path d="M1936.8 520.84l-18.5 6v-12zm-16.5 3.26l10.02-3.26-10.03-3.26z" stroke="#e81313" stroke-width=".05" fill="#e81313"/><g><use xlink:href="#C" transform="matrix(1,0,0,1,1409.1023780479209,510.04111401034714) translate(0.005000000000000782 14.4)"/></g><path d="M1654.55 285.7h83.53a12 12 0 0 1 12 12v211.14a12 12 0 0 0 12 12h158.33" stroke="#333" fill="none"/><path d="M1654.56 286.2h-.5v-1h.5z" stroke="#333" stroke-width=".05" fill="#333"/><path d="M1935.17 520.84l-14.26 4.64v-9.27z" stroke="#333" fill="#333"/><defs><path d="M30 0v-248h187v28H63v79h144v27H63v87h162V0H30" id="D"/><path d="M141-36C126-15 110 5 73 4 37 3 15-17 15-53c-1-64 63-63 125-63 3-35-9-54-41-54-24 1-41 7-42 31l-33-3c5-37 33-52 76-52 45 0 72 20 72 64v82c-1 20 7 32 28 27v20c-31 9-61-2-59-35zM48-53c0 20 12 33 32 33 41-3 63-29 60-74-43 2-92-5-92 41" id="E"/><path d="M96-169c-40 0-48 33-48 73s9 75 48 75c24 0 41-14 43-38l32 2c-6 37-31 61-74 61-59 0-76-41-82-99-10-93 101-131 147-64 4 7 5 14 7 22l-32 3c-4-21-16-35-41-35" id="F"/><path d="M106-169C34-169 62-67 57 0H25v-261h32l-1 103c12-21 28-36 61-36 89 0 53 116 60 194h-32v-121c2-32-8-49-39-48" id="G"/><g id="a"><use transform="matrix(0.05,0,0,0.05,0,0)" xlink:href="#D"/><use transform="matrix(0.05,0,0,0.05,12,0)" xlink:href="#E"/><use transform="matrix(0.05,0,0,0.05,22,0)" xlink:href="#F"/><use transform="matrix(0.05,0,0,0.05,31,0)" xlink:href="#G"/></g><path d="M24 0v-261h32V0H24" id="H"/><path d="M24-231v-30h32v30H24zM24 0v-190h32V0H24" id="I"/><path d="M135-143c-3-34-86-38-87 0 15 53 115 12 119 90S17 21 10-45l28-5c4 36 97 45 98 0-10-56-113-15-118-90-4-57 82-63 122-42 12 7 21 19 24 35" id="J"/><path d="M59-47c-2 24 18 29 38 22v24C64 9 27 4 27-40v-127H5v-23h24l9-43h21v43h35v23H59v120" id="K"/><g id="b"><use transform="matrix(0.05,0,0,0.05,0,0)" xlink:href="#H"/><use transform="matrix(0.05,0,0,0.05,3.95,0)" xlink:href="#I"/><use transform="matrix(0.05,0,0,0.05,7.9,0)" xlink:href="#J"/><use transform="matrix(0.05,0,0,0.05,16.9,0)" xlink:href="#K"/></g><path fill="#333" d="M266 0h-40l-56-210L115 0H75L2-248h35L96-30l15-64 43-154h32l59 218 59-218h35" id="L"/><path fill="#333" d="M100-194c62-1 85 37 85 99 1 63-27 99-86 99S16-35 15-95c0-66 28-99 85-99zM99-20c44 1 53-31 53-75 0-43-8-75-51-75s-53 32-53 75 10 74 51 75" id="M"/><path fill="#333" d="M114-163C36-179 61-72 57 0H25l-1-190h30c1 12-1 29 2 39 6-27 23-49 58-41v29" id="N"/><path fill="#333" d="M143 0L79-87 56-68V0H24v-261h32v163l83-92h37l-77 82L181 0h-38" id="O"/><path fill="#333" d="M100-194c63 0 86 42 84 106H49c0 40 14 67 53 68 26 1 43-12 49-29l28 8c-11 28-37 45-77 45C44 4 14-33 15-96c1-61 26-98 85-98zm52 81c6-60-76-77-97-28-3 7-6 17-6 28h103" id="P"/><g id="c"><use transform="matrix(0.09320987654320984,0,0,0.09320987654320984,0,0)" xlink:href="#L"/><use transform="matrix(0.09320987654320984,0,0,0.09320987654320984,30.945679012345664,0)" xlink:href="#M"/><use transform="matrix(0.09320987654320984,0,0,0.09320987654320984,49.58765432098763,0)" xlink:href="#N"/><use transform="matrix(0.09320987654320984,0,0,0.09320987654320984,60.6796296296296,0)" xlink:href="#O"/><use transform="matrix(0.09320987654320984,0,0,0.09320987654320984,77.45740740740737,0)" xlink:href="#P"/><use transform="matrix(0.09320987654320984,0,0,0.09320987654320984,96.09938271604933,0)" xlink:href="#N"/></g><path fill="#333" d="M115-194c55 1 70 41 70 98S169 2 115 4C84 4 66-9 55-30l1 105H24l-1-265h31l2 30c10-21 28-34 59-34zm-8 174c40 0 45-34 45-75s-6-73-45-74c-42 0-51 32-51 76 0 43 10 73 51 73" id="Q"/><path fill="#333" d="M96-169c-40 0-48 33-48 73s9 75 48 75c24 0 41-14 43-38l32 2c-6 37-31 61-74 61-59 0-76-41-82-99-10-93 101-131 147-64 4 7 5 14 7 22l-32 3c-4-21-16-35-41-35" id="R"/><path fill="#333" d="M135-143c-3-34-86-38-87 0 15 53 115 12 119 90S17 21 10-45l28-5c4 36 97 45 98 0-10-56-113-15-118-90-4-57 82-63 122-42 12 7 21 19 24 35" id="S"/><g id="d"><use transform="matrix(0.09320987654320984,0,0,0.09320987654320984,0,0)" xlink:href="#Q"/><use transform="matrix(0.09320987654320984,0,0,0.09320987654320984,18.641975308641968,0)" xlink:href="#N"/><use transform="matrix(0.09320987654320984,0,0,0.09320987654320984,29.733950617283938,0)" xlink:href="#M"/><use transform="matrix(0.09320987654320984,0,0,0.09320987654320984,48.375925925925905,0)" xlink:href="#R"/><use transform="matrix(0.09320987654320984,0,0,0.09320987654320984,65.15370370370368,0)" xlink:href="#P"/><use transform="matrix(0.09320987654320984,0,0,0.09320987654320984,83.79567901234566,0)" xlink:href="#S"/><use transform="matrix(0.09320987654320984,0,0,0.09320987654320984,100.57345679012343,0)" xlink:href="#S"/></g><path fill="#333" d="M140-251c81 0 123 46 123 126C263-46 219 4 140 4 59 4 17-45 17-125s42-126 123-126zm0 227c63 0 89-41 89-101s-29-99-89-99c-61 0-89 39-89 99S79-25 140-24" id="T"/><path fill="#333" d="M108 0H70L1-190h34L89-25l56-165h34" id="U"/><path fill="#333" d="M24-231v-30h32v30H24zM24 0v-190h32V0H24" id="V"/><path fill="#333" d="M206 0h-36l-40-164L89 0H53L-1-190h32L70-26l43-164h34l41 164 42-164h31" id="W"/><g id="e"><use transform="matrix(0.06851851851851848,0,0,0.06851851851851848,0,0)" xlink:href="#T"/><use transform="matrix(0.06851851851851848,0,0,0.06851851851851848,19.185185185185173,0)" xlink:href="#U"/><use transform="matrix(0.06851851851851848,0,0,0.06851851851851848,31.518518518518498,0)" xlink:href="#P"/><use transform="matrix(0.06851851851851848,0,0,0.06851851851851848,45.22222222222219,0)" xlink:href="#N"/><use transform="matrix(0.06851851851851848,0,0,0.06851851851851848,53.3759259259259,0)" xlink:href="#U"/><use transform="matrix(0.06851851851851848,0,0,0.06851851851851848,65.70925925925921,0)" xlink:href="#V"/><use transform="matrix(0.06851851851851848,0,0,0.06851851851851848,71.12222222222218,0)" xlink:href="#P"/><use transform="matrix(0.06851851851851848,0,0,0.06851851851851848,84.82592592592587,0)" xlink:href="#W"/></g><path fill="#fff" d="M185-189c-5-48-123-54-124 2 14 75 158 14 163 119 3 78-121 87-175 55-17-10-28-26-33-46l33-7c5 56 141 63 141-1 0-78-155-14-162-118-5-82 145-84 179-34 5 7 8 16 11 25" id="X"/><path fill="#fff" d="M59-47c-2 24 18 29 38 22v24C64 9 27 4 27-40v-127H5v-23h24l9-43h21v43h35v23H59v120" id="Y"/><path fill="#fff" d="M141-36C126-15 110 5 73 4 37 3 15-17 15-53c-1-64 63-63 125-63 3-35-9-54-41-54-24 1-41 7-42 31l-33-3c5-37 33-52 76-52 45 0 72 20 72 64v82c-1 20 7 32 28 27v20c-31 9-61-2-59-35zM48-53c0 20 12 33 32 33 41-3 63-29 60-74-43 2-92-5-92 41" id="Z"/><path fill="#fff" d="M114-163C36-179 61-72 57 0H25l-1-190h30c1 12-1 29 2 39 6-27 23-49 58-41v29" id="aa"/><g id="h"><use transform="matrix(0.04938271604938272,0,0,0.04938271604938272,0,0)" xlink:href="#X"/><use transform="matrix(0.04938271604938272,0,0,0.04938271604938272,11.851851851851853,0)" xlink:href="#Y"/><use transform="matrix(0.04938271604938272,0,0,0.04938271604938272,16.790123456790127,0)" xlink:href="#Z"/><use transform="matrix(0.04938271604938272,0,0,0.04938271604938272,26.666666666666668,0)" xlink:href="#aa"/><use transform="matrix(0.04938271604938272,0,0,0.04938271604938272,32.543209876543216,0)" xlink:href="#Y"/></g><path fill="#fff" d="M101-234c-31-9-42 10-38 44h38v23H63V0H32v-167H5v-23h27c-7-52 17-82 69-68v24" id="ab"/><path fill="#fff" d="M100-194c63 0 86 42 84 106H49c0 40 14 67 53 68 26 1 43-12 49-29l28 8c-11 28-37 45-77 45C44 4 14-33 15-96c1-61 26-98 85-98zm52 81c6-60-76-77-97-28-3 7-6 17-6 28h103" id="ac"/><g id="i"><use transform="matrix(0.04938271604938272,0,0,0.04938271604938272,0,0)" xlink:href="#Z"/><use transform="matrix(0.04938271604938272,0,0,0.04938271604938272,9.876543209876544,0)" xlink:href="#ab"/><use transform="matrix(0.04938271604938272,0,0,0.04938271604938272,14.814814814814817,0)" xlink:href="#Y"/><use transform="matrix(0.04938271604938272,0,0,0.04938271604938272,19.75308641975309,0)" xlink:href="#ac"/><use transform="matrix(0.04938271604938272,0,0,0.04938271604938272,29.629629629629633,0)" xlink:href="#aa"/></g><path fill="#fff" d="M115-194c53 0 69 39 70 98 0 66-23 100-70 100C84 3 66-7 56-30L54 0H23l1-261h32v101c10-23 28-34 59-34zm-8 174c40 0 45-34 45-75 0-40-5-75-45-74-42 0-51 32-51 76 0 43 10 73 51 73" id="ad"/><path fill="#fff" d="M96-169c-40 0-48 33-48 73s9 75 48 75c24 0 41-14 43-38l32 2c-6 37-31 61-74 61-59 0-76-41-82-99-10-93 101-131 147-64 4 7 5 14 7 22l-32 3c-4-21-16-35-41-35" id="ae"/><path fill="#fff" d="M106-169C34-169 62-67 57 0H25v-261h32l-1 103c12-21 28-36 61-36 89 0 53 116 60 194h-32v-121c2-32-8-49-39-48" id="af"/><path fill="#fff" d="M68-38c1 34 0 65-14 84H32c9-13 17-26 17-46H33v-38h35" id="ag"/><g id="j"><use transform="matrix(0.04938271604938272,0,0,0.04938271604938272,0,0)" xlink:href="#ad"/><use transform="matrix(0.04938271604938272,0,0,0.04938271604938272,9.876543209876544,0)" xlink:href="#Z"/><use transform="matrix(0.04938271604938272,0,0,0.04938271604938272,19.75308641975309,0)" xlink:href="#Y"/><use transform="matrix(0.04938271604938272,0,0,0.04938271604938272,24.69135802469136,0)" xlink:href="#ae"/><use transform="matrix(0.04938271604938272,0,0,0.04938271604938272,33.580246913580254,0)" xlink:href="#af"/><use transform="matrix(0.04938271604938272,0,0,0.04938271604938272,43.4567901234568,0)" xlink:href="#ag"/></g><path fill="#fff" d="M27 0v-27h64v-190l-56 39v-29l58-41h29v221h61V0H27" id="ah"/><path fill="#fff" d="M101-251c68 0 85 55 85 127S166 4 100 4C33 4 14-52 14-124c0-73 17-127 87-127zm-1 229c47 0 54-49 54-102s-4-102-53-102c-51 0-55 48-55 102 0 53 5 102 54 102" id="ai"/><g id="k"><use transform="matrix(0.04938271604938272,0,0,0.04938271604938272,0,0)" xlink:href="#ah"/><use transform="matrix(0.04938271604938272,0,0,0.04938271604938272,8.54320987654321,0)" xlink:href="#ah"/><use transform="matrix(0.04938271604938272,0,0,0.04938271604938272,18.419753086419753,0)" xlink:href="#ai"/><use transform="matrix(0.04938271604938272,0,0,0.04938271604938272,28.296296296296298,0)" xlink:href="#ai"/></g><path fill="#fff" d="M232-93c-1 65-40 97-104 97C67 4 28-28 28-90v-158h33c8 89-33 224 67 224 102 0 64-133 71-224h33v155" id="aj"/><path fill="#fff" d="M127-220V0H93v-220H8v-28h204v28h-85" id="ak"/><path fill="#fff" d="M212-179c-10-28-35-45-73-45-59 0-87 40-87 99 0 60 29 101 89 101 43 0 62-24 78-52l27 14C228-24 195 4 139 4 59 4 22-46 18-125c-6-104 99-153 187-111 19 9 31 26 39 46" id="al"/><g id="l"><use transform="matrix(0.04938271604938272,0,0,0.04938271604938272,0,0)" xlink:href="#aj"/><use transform="matrix(0.04938271604938272,0,0,0.04938271604938272,12.790123456790125,0)" xlink:href="#ak"/><use transform="matrix(0.04938271604938272,0,0,0.04938271604938272,23.60493827160494,0)" xlink:href="#al"/></g><path fill="#333" d="M33 0v-248h34V0H33" id="am"/><g id="m"><use transform="matrix(0.04938271604938272,0,0,0.04938271604938272,0,0)" xlink:href="#am"/><use transform="matrix(0.04938271604938272,0,0,0.04938271604938272,4.938271604938272,0)" xlink:href="#S"/></g><path fill="#333" d="M59-47c-2 24 18 29 38 22v24C64 9 27 4 27-40v-127H5v-23h24l9-43h21v43h35v23H59v120" id="an"/><path fill="#333" d="M106-169C34-169 62-67 57 0H25v-261h32l-1 103c12-21 28-36 61-36 89 0 53 116 60 194h-32v-121c2-32-8-49-39-48" id="ao"/><g id="n"><use transform="matrix(0.04938271604938272,0,0,0.04938271604938272,0,0)" xlink:href="#an"/><use transform="matrix(0.04938271604938272,0,0,0.04938271604938272,4.938271604938272,0)" xlink:href="#ao"/><use transform="matrix(0.04938271604938272,0,0,0.04938271604938272,14.814814814814817,0)" xlink:href="#P"/><use transform="matrix(0.04938271604938272,0,0,0.04938271604938272,24.69135802469136,0)" xlink:href="#N"/><use transform="matrix(0.04938271604938272,0,0,0.04938271604938272,30.567901234567906,0)" xlink:href="#P"/></g><path fill="#333" d="M141-36C126-15 110 5 73 4 37 3 15-17 15-53c-1-64 63-63 125-63 3-35-9-54-41-54-24 1-41 7-42 31l-33-3c5-37 33-52 76-52 45 0 72 20 72 64v82c-1 20 7 32 28 27v20c-31 9-61-2-59-35zM48-53c0 20 12 33 32 33 41-3 63-29 60-74-43 2-92-5-92 41" id="ap"/><use transform="matrix(0.04938271604938272,0,0,0.04938271604938272,0,0)" xlink:href="#ap" id="o"/><path fill="#333" d="M101-234c-31-9-42 10-38 44h38v23H63V0H32v-167H5v-23h27c-7-52 17-82 69-68v24" id="aq"/><path fill="#333" d="M84 4C-5 8 30-112 23-190h32v120c0 31 7 50 39 49 72-2 45-101 50-169h31l1 190h-30c-1-10 1-25-2-33-11 22-28 36-60 37" id="ar"/><path fill="#333" d="M24 0v-261h32V0H24" id="as"/><g id="p"><use transform="matrix(0.04938271604938272,0,0,0.04938271604938272,0,0)" xlink:href="#S"/><use transform="matrix(0.04938271604938272,0,0,0.04938271604938272,8.88888888888889,0)" xlink:href="#an"/><use transform="matrix(0.04938271604938272,0,0,0.04938271604938272,13.827160493827162,0)" xlink:href="#ap"/><use transform="matrix(0.04938271604938272,0,0,0.04938271604938272,23.703703703703706,0)" xlink:href="#an"/><use transform="matrix(0.04938271604938272,0,0,0.04938271604938272,28.641975308641978,0)" xlink:href="#P"/><use transform="matrix(0.04938271604938272,0,0,0.04938271604938272,38.51851851851852,0)" xlink:href="#aq"/><use transform="matrix(0.04938271604938272,0,0,0.04938271604938272,43.45679012345679,0)" xlink:href="#ar"/><use transform="matrix(0.04938271604938272,0,0,0.04938271604938272,53.333333333333336,0)" xlink:href="#as"/></g><path fill="#333" d="M117-194c89-4 53 116 60 194h-32v-121c0-31-8-49-39-48C34-167 62-67 57 0H25l-1-190h30c1 10-1 24 2 32 11-22 29-35 61-36" id="at"/><path fill="#333" d="M177-190C167-65 218 103 67 71c-23-6-38-20-44-43l32-5c15 47 100 32 89-28v-30C133-14 115 1 83 1 29 1 15-40 15-95c0-56 16-97 71-98 29-1 48 16 59 35 1-10 0-23 2-32h30zM94-22c36 0 50-32 50-73 0-42-14-75-50-75-39 0-46 34-46 75s6 73 46 73" id="au"/><g id="q"><use transform="matrix(0.04938271604938272,0,0,0.04938271604938272,0,0)" xlink:href="#R"/><use transform="matrix(0.04938271604938272,0,0,0.04938271604938272,8.88888888888889,0)" xlink:href="#ao"/><use transform="matrix(0.04938271604938272,0,0,0.04938271604938272,18.765432098765434,0)" xlink:href="#ap"/><use transform="matrix(0.04938271604938272,0,0,0.04938271604938272,28.641975308641978,0)" xlink:href="#at"/><use transform="matrix(0.04938271604938272,0,0,0.04938271604938272,38.51851851851852,0)" xlink:href="#au"/><use transform="matrix(0.04938271604938272,0,0,0.04938271604938272,48.39506172839506,0)" xlink:href="#P"/></g><path fill="#333" d="M85-194c31 0 48 13 60 33l-1-100h32l1 261h-30c-2-10 0-23-3-31C134-8 116 4 85 4 32 4 16-35 15-94c0-66 23-100 70-100zm9 24c-40 0-46 34-46 75 0 40 6 74 45 74 42 0 51-32 51-76 0-42-9-74-50-73" id="av"/><g id="r"><use transform="matrix(0.04938271604938272,0,0,0.04938271604938272,0,0)" xlink:href="#av"/><use transform="matrix(0.04938271604938272,0,0,0.04938271604938272,9.876543209876544,0)" xlink:href="#ar"/><use transform="matrix(0.04938271604938272,0,0,0.04938271604938272,19.75308641975309,0)" xlink:href="#P"/></g><path fill="#333" d="M179-190L93 31C79 59 56 82 12 73V49c39 6 53-20 64-50L1-190h34L92-34l54-156h33" id="aw"/><path fill="#333" d="M103-251c84 0 111 97 45 133-19 10-37 24-39 52H78c0-63 77-55 77-114 0-30-21-42-52-43-32 0-53 17-56 46l-32-2c7-45 34-72 88-72zM77 0v-35h34V0H77" id="ax"/><g id="s"><use transform="matrix(0.04938271604938272,0,0,0.04938271604938272,0,0)" xlink:href="#an"/><use transform="matrix(0.04938271604938272,0,0,0.04938271604938272,4.938271604938272,0)" xlink:href="#M"/><use transform="matrix(0.04938271604938272,0,0,0.04938271604938272,14.814814814814817,0)" xlink:href="#av"/><use transform="matrix(0.04938271604938272,0,0,0.04938271604938272,24.69135802469136,0)" xlink:href="#ap"/><use transform="matrix(0.04938271604938272,0,0,0.04938271604938272,34.567901234567906,0)" xlink:href="#aw"/><use transform="matrix(0.04938271604938272,0,0,0.04938271604938272,43.4567901234568,0)" xlink:href="#ax"/></g><path fill="#fff" d="M63-220v92h138v28H63V0H30v-248h175v28H63" id="ay"/><path fill="#fff" d="M24-231v-30h32v30H24zM24 0v-190h32V0H24" id="az"/><path fill="#fff" d="M117-194c89-4 53 116 60 194h-32v-121c0-31-8-49-39-48C34-167 62-67 57 0H25l-1-190h30c1 10-1 24 2 32 11-22 29-35 61-36" id="aA"/><path fill="#fff" d="M85-194c31 0 48 13 60 33l-1-100h32l1 261h-30c-2-10 0-23-3-31C134-8 116 4 85 4 32 4 16-35 15-94c0-66 23-100 70-100zm9 24c-40 0-46 34-46 75 0 40 6 74 45 74 42 0 51-32 51-76 0-42-9-74-50-73" id="aB"/><g id="t"><use transform="matrix(0.05,0,0,0.05,0,0)" xlink:href="#ay"/><use transform="matrix(0.05,0,0,0.05,10.950000000000001,0)" xlink:href="#az"/><use transform="matrix(0.05,0,0,0.05,14.9,0)" xlink:href="#aA"/><use transform="matrix(0.05,0,0,0.05,24.900000000000002,0)" xlink:href="#aB"/></g><g id="u"><use transform="matrix(0.05,0,0,0.05,0,0)" xlink:href="#ad"/><use transform="matrix(0.05,0,0,0.05,10,0)" xlink:href="#Z"/><use transform="matrix(0.05,0,0,0.05,20,0)" xlink:href="#Y"/><use transform="matrix(0.05,0,0,0.05,25,0)" xlink:href="#ae"/><use transform="matrix(0.05,0,0,0.05,34,0)" xlink:href="#af"/><use transform="matrix(0.05,0,0,0.05,44,0)" xlink:href="#ac"/><use transform="matrix(0.05,0,0,0.05,54,0)" xlink:href="#aB"/></g><path fill="#fff" d="M115-194c55 1 70 41 70 98S169 2 115 4C84 4 66-9 55-30l1 105H24l-1-265h31l2 30c10-21 28-34 59-34zm-8 174c40 0 45-34 45-75s-6-73-45-74c-42 0-51 32-51 76 0 43 10 73 51 73" id="aC"/><path fill="#fff" d="M100-194c62-1 85 37 85 99 1 63-27 99-86 99S16-35 15-95c0-66 28-99 85-99zM99-20c44 1 53-31 53-75 0-43-8-75-51-75s-53 32-53 75 10 74 51 75" id="aD"/><path fill="#fff" d="M135-143c-3-34-86-38-87 0 15 53 115 12 119 90S17 21 10-45l28-5c4 36 97 45 98 0-10-56-113-15-118-90-4-57 82-63 122-42 12 7 21 19 24 35" id="aE"/><g id="v"><use transform="matrix(0.05,0,0,0.05,0,0)" xlink:href="#aC"/><use transform="matrix(0.05,0,0,0.05,10,0)" xlink:href="#aa"/><use transform="matrix(0.05,0,0,0.05,15.949999999999998,0)" xlink:href="#aD"/><use transform="matrix(0.05,0,0,0.05,25.950000000000003,0)" xlink:href="#ae"/><use transform="matrix(0.05,0,0,0.05,34.95,0)" xlink:href="#ac"/><use transform="matrix(0.05,0,0,0.05,44.95,0)" xlink:href="#aE"/><use transform="matrix(0.05,0,0,0.05,53.95,0)" xlink:href="#aE"/><use transform="matrix(0.05,0,0,0.05,62.95,0)" xlink:href="#ac"/><use transform="matrix(0.05,0,0,0.05,72.95,0)" xlink:href="#aE"/></g><path fill="#fff" d="M87 75C49 33 22-17 22-94c0-76 28-126 65-167h31c-38 41-64 92-64 168S80 34 118 75H87" id="aF"/><path fill="#fff" d="M30 0v-248h33v221h125V0H30" id="aG"/><path fill="#fff" d="M33 0v-38h34V0H33" id="aH"/><path fill="#fff" d="M24-231v-30h32v30H24zM-9 49c24 4 33-6 33-30v-209h32V24c2 40-23 58-65 49V49" id="aI"/><path fill="#fff" d="M30-248c118-7 216 8 213 122C240-48 200 0 122 0H30v-248zM63-27c89 8 146-16 146-99s-60-101-146-95v194" id="aJ"/><path fill="#fff" d="M84 4C-5 8 30-112 23-190h32v120c0 31 7 50 39 49 72-2 45-101 50-169h31l1 190h-30c-1-10 1-25-2-33-11 22-28 36-60 37" id="aK"/><path fill="#fff" d="M205 0l-28-72H64L36 0H1l101-248h38L239 0h-34zm-38-99l-47-123c-12 45-31 82-46 123h93" id="aL"/><path fill="#fff" d="M24 0v-261h32V0H24" id="aM"/><path fill="#fff" d="M233-177c-1 41-23 64-60 70L243 0h-38l-65-103H63V0H30v-248c88 3 205-21 203 71zM63-129c60-2 137 13 137-47 0-61-80-42-137-45v92" id="aN"/><path fill="#fff" d="M108 0H70L1-190h34L89-25l56-165h34" id="aO"/><path fill="#fff" d="M206 0h-36l-40-164L89 0H53L-1-190h32L70-26l43-164h34l41 164 42-164h31" id="aP"/><path fill="#fff" d="M33-261c38 41 65 92 65 168S71 34 33 75H2C39 34 66-17 66-93S39-220 2-261h31" id="aQ"/><g id="w"><use transform="matrix(0.05,0,0,0.05,0,0)" xlink:href="#aF"/><use transform="matrix(0.05,0,0,0.05,5.95,0)" xlink:href="#aG"/><use transform="matrix(0.05,0,0,0.05,15.949999999999998,0)" xlink:href="#az"/><use transform="matrix(0.05,0,0,0.05,19.9,0)" xlink:href="#aE"/><use transform="matrix(0.05,0,0,0.05,28.899999999999995,0)" xlink:href="#Y"/><use transform="matrix(0.05,0,0,0.05,33.9,0)" xlink:href="#aH"/><use transform="matrix(0.05,0,0,0.05,38.9,0)" xlink:href="#aI"/><use transform="matrix(0.05,0,0,0.05,42.85,0)" xlink:href="#aE"/><use transform="matrix(0.05,0,0,0.05,51.85,0)" xlink:href="#aD"/><use transform="matrix(0.05,0,0,0.05,61.85,0)" xlink:href="#aA"/><use transform="matrix(0.05,0,0,0.05,71.85,0)" xlink:href="#aJ"/><use transform="matrix(0.05,0,0,0.05,84.8,0)" xlink:href="#Z"/><use transform="matrix(0.05,0,0,0.05,94.8,0)" xlink:href="#Y"/><use transform="matrix(0.05,0,0,0.05,99.8,0)" xlink:href="#Z"/><use transform="matrix(0.05,0,0,0.05,109.80000000000001,0)" xlink:href="#aH"/><use transform="matrix(0.05,0,0,0.05,114.80000000000001,0)" xlink:href="#ae"/><use transform="matrix(0.05,0,0,0.05,123.80000000000001,0)" xlink:href="#aK"/><use transform="matrix(0.05,0,0,0.05,133.8,0)" xlink:href="#aa"/><use transform="matrix(0.05,0,0,0.05,139.75,0)" xlink:href="#aa"/><use transform="matrix(0.05,0,0,0.05,145.7,0)" xlink:href="#ac"/><use transform="matrix(0.05,0,0,0.05,155.7,0)" xlink:href="#aA"/><use transform="matrix(0.05,0,0,0.05,165.7,0)" xlink:href="#Y"/><use transform="matrix(0.05,0,0,0.05,170.7,0)" xlink:href="#aL"/><use transform="matrix(0.05,0,0,0.05,182.7,0)" xlink:href="#aA"/><use transform="matrix(0.05,0,0,0.05,192.7,0)" xlink:href="#aA"/><use transform="matrix(0.05,0,0,0.05,202.7,0)" xlink:href="#aK"/><use transform="matrix(0.05,0,0,0.05,212.69999999999996,0)" xlink:href="#Z"/><use transform="matrix(0.05,0,0,0.05,222.69999999999996,0)" xlink:href="#aM"/><use transform="matrix(0.05,0,0,0.05,226.64999999999998,0)" xlink:href="#aN"/><use transform="matrix(0.05,0,0,0.05,239.59999999999997,0)" xlink:href="#ac"/><use transform="matrix(0.05,0,0,0.05,249.59999999999997,0)" xlink:href="#aO"/><use transform="matrix(0.05,0,0,0.05,258.59999999999997,0)" xlink:href="#az"/><use transform="matrix(0.05,0,0,0.05,262.54999999999995,0)" xlink:href="#ac"/><use transform="matrix(0.05,0,0,0.05,272.54999999999995,0)" xlink:href="#aP"/><use transform="matrix(0.05,0,0,0.05,285.49999999999994,0)" xlink:href="#aQ"/></g><path fill="#333" d="M137-103V0h-34v-103L8-248h37l75 118 75-118h37" id="aR"/><g id="x"><use transform="matrix(0.05,0,0,0.05,0,0)" xlink:href="#aR"/><use transform="matrix(0.05,0,0,0.05,10.35,0)" xlink:href="#P"/><use transform="matrix(0.05,0,0,0.05,20.35,0)" xlink:href="#S"/></g><g id="y"><use transform="matrix(0.05,0,0,0.05,0,0)" xlink:href="#aN"/><use transform="matrix(0.05,0,0,0.05,12.950000000000001,0)" xlink:href="#aK"/><use transform="matrix(0.05,0,0,0.05,22.950000000000003,0)" xlink:href="#aA"/></g><g id="z"><use transform="matrix(0.05,0,0,0.05,0,0)" xlink:href="#aE"/><use transform="matrix(0.05,0,0,0.05,9,0)" xlink:href="#Y"/><use transform="matrix(0.05,0,0,0.05,14,0)" xlink:href="#Z"/><use transform="matrix(0.05,0,0,0.05,24,0)" xlink:href="#Y"/><use transform="matrix(0.05,0,0,0.05,29,0)" xlink:href="#ac"/><use transform="matrix(0.05,0,0,0.05,39,0)" xlink:href="#ab"/><use transform="matrix(0.05,0,0,0.05,44,0)" xlink:href="#aK"/><use transform="matrix(0.05,0,0,0.05,54,0)" xlink:href="#aM"/></g><g id="A"><use transform="matrix(0.05,0,0,0.05,0,0)" xlink:href="#aC"/><use transform="matrix(0.05,0,0,0.05,10,0)" xlink:href="#aa"/><use transform="matrix(0.05,0,0,0.05,15.949999999999998,0)" xlink:href="#aD"/><use transform="matrix(0.05,0,0,0.05,25.950000000000003,0)" xlink:href="#ae"/><use transform="matrix(0.05,0,0,0.05,34.95,0)" xlink:href="#ac"/><use transform="matrix(0.05,0,0,0.05,44.95,0)" xlink:href="#aE"/><use transform="matrix(0.05,0,0,0.05,53.95,0)" xlink:href="#aE"/></g><g id="B"><use transform="matrix(0.05,0,0,0.05,0,0)" xlink:href="#aA"/><use transform="matrix(0.05,0,0,0.05,10,0)" xlink:href="#aD"/><use transform="matrix(0.05,0,0,0.05,20,0)" xlink:href="#Y"/><use transform="matrix(0.05,0,0,0.05,25,0)" xlink:href="#az"/><use transform="matrix(0.05,0,0,0.05,28.950000000000003,0)" xlink:href="#ab"/><use transform="matrix(0.05,0,0,0.05,33.95,0)" xlink:href="#az"/><use transform="matrix(0.05,0,0,0.05,37.900000000000006,0)" xlink:href="#ae"/><use transform="matrix(0.05,0,0,0.05,46.900000000000006,0)" xlink:href="#Z"/><use transform="matrix(0.05,0,0,0.05,56.900000000000006,0)" xlink:href="#Y"/><use transform="matrix(0.05,0,0,0.05,61.900000000000006,0)" xlink:href="#az"/><use transform="matrix(0.05,0,0,0.05,65.85000000000001,0)" xlink:href="#aD"/><use transform="matrix(0.05,0,0,0.05,75.85000000000001,0)" xlink:href="#aA"/></g><path fill="#333" d="M190 0L58-211 59 0H30v-248h39L202-35l-2-213h31V0h-41" id="aS"/><g id="C"><use transform="matrix(0.05,0,0,0.05,0,0)" xlink:href="#aS"/><use transform="matrix(0.05,0,0,0.05,12.950000000000001,0)" xlink:href="#M"/></g></defs></g></svg>