<svg xmlns="http://www.w3.org/2000/svg" xmlns:xlink="http://www.w3.org/1999/xlink" xmlns:lucid="lucid" width="3344.75" height="1548.2"><g transform="translate(0 0)" lucid:page-tab-id="f2oamAB43NEv"><path d="M0 0h3344.76v1548.2H0z" fill="#fff"/><path d="M639.82 367.47a8 8 0 0 1 8-8h555.72a8 8 0 0 1 8 8v4.93a17.07 17.07 0 0 1-5 12.07 17.07 17.07 0 0 1-12.07 5H647.82a8 8 0 0 1-8-8z" fill="#fff"/><path d="M1211.54 359.47v20l-10 10H639.82" stroke="#333" fill="none"/><path d="M639.82 367.47a8 8 0 0 1 8-8h2537.3a8 8 0 0 1 8 8v922.9a8 8 0 0 1-8 8H647.8a8 8 0 0 1-8-8z" stroke="#333" fill="none"/><use xlink:href="#a" transform="matrix(1,0,0,1,647.8172433001082,359.4730539274144) translate(0 18.6)"/><use xlink:href="#b" transform="matrix(1,0,0,1,647.8172433001082,359.4730539274144) translate(46 18.6)"/><use xlink:href="#c" transform="matrix(1,0,0,1,647.8172433001082,359.4730539274144) translate(79 18.6)"/><use xlink:href="#d" transform="matrix(1,0,0,1,647.8172433001082,359.4730539274144) translate(181.75 18.6)"/><use xlink:href="#e" transform="matrix(1,0,0,1,647.8172433001082,359.4730539274144) translate(221.75 18.6)"/><use xlink:href="#f" transform="matrix(1,0,0,1,647.8172433001082,359.4730539274144) translate(232.7 18.6)"/><use xlink:href="#g" transform="matrix(1,0,0,1,647.8172433001082,359.4730539274144) translate(310.6 18.6)"/><path d="M2220.32 463.35a8 8 0 0 1 8-8h282.4a8 8 0 0 1 8 8v4.93a17.07 17.07 0 0 1-5 12.07 17.07 17.07 0 0 1-12.06 5h-273.34a8 8 0 0 1-8-8z" fill="#fff"/><path d="M2518.73 455.35v20l-10 10h-288.4" stroke="#333" fill="none"/><path d="M2220.32 463.35a8 8 0 0 1 8-8h920.77a8 8 0 0 1 8 8v764.8a8 8 0 0 1-8 8H2228.3a8 8 0 0 1-8-8z" stroke="#333" fill="none"/><use xlink:href="#a" transform="matrix(1,0,0,1,2228.3236833111177,455.34850015995636) translate(0 18.6)"/><use xlink:href="#h" transform="matrix(1,0,0,1,2228.3236833111177,455.34850015995636) translate(46 18.6)"/><path d="M23.68 49.6a8 8 0 0 1 8-8h832.15a8 8 0 0 1 8 8V192.2a8 8 0 0 1-8 8H31.68a8 8 0 0 1-8-8z" stroke="#000" stroke-opacity="0" fill="#fff" fill-opacity="0"/><use xlink:href="#i" transform="matrix(1,0,0,1,28.679666391434125,46.5886690900727) translate(0 33.95555555555553)"/><use xlink:href="#j" transform="matrix(1,0,0,1,28.679666391434125,46.5886690900727) translate(221.18271604938252 33.95555555555553)"/><use xlink:href="#k" transform="matrix(1,0,0,1,28.679666391434125,46.5886690900727) translate(0 77.77777777777773)"/><use xlink:href="#l" transform="matrix(1,0,0,1,28.679666391434125,46.5886690900727) translate(104.395061728395 77.77777777777773)"/><use xlink:href="#m" transform="matrix(1,0,0,1,28.679666391434125,46.5886690900727) translate(210.37469135802456 77.77777777777773)"/><use xlink:href="#n" transform="matrix(1,0,0,1,28.679666391434125,46.5886690900727) translate(247.65864197530848 77.77777777777773)"/><use xlink:href="#o" transform="matrix(1,0,0,1,28.679666391434125,46.5886690900727) translate(346.4611111111109 77.77777777777773)"/><use xlink:href="#p" transform="matrix(1,0,0,1,28.679666391434125,46.5886690900727) translate(385.5160493827158 77.77777777777773)"/><use xlink:href="#q" transform="matrix(1,0,0,1,28.679666391434125,46.5886690900727) translate(500.9098765432095 77.77777777777773)"/><use xlink:href="#r" transform="matrix(1,0,0,1,28.679666391434125,46.5886690900727) translate(657.2228395061724 77.77777777777773)"/><use xlink:href="#s" transform="matrix(1,0,0,1,28.679666391434125,46.5886690900727) translate(757.889506172839 77.77777777777773)"/><use xlink:href="#t" transform="matrix(1,0,0,1,28.679666391434125,46.5886690900727) translate(0 118.04444444444437)"/><path d="M794.7 499.12c17.68 0 32 17.9 32 40s-14.32 40-32 40h-96c-17.67 0-32-17.9-32-40s14.33-40 32-40z" stroke="#000" stroke-opacity="0" fill="#5358d3"/><use xlink:href="#u" transform="matrix(1,0,0,1,671.707589103726,504.12394517487166) translate(56.25925925925927 39.297222222222224)"/><path d="M1076.1 447.13a11.23 11.23 0 0 1 13.05 0l122.6 87.35a5.7 5.7 0 0 1 0 9.3l-122.6 87.33a11.23 11.23 0 0 1-13.04 0l-122.6-87.33a5.7 5.7 0 0 1 0-9.3z" stroke="#323580" stroke-width="4" fill="#fff"/><use xlink:href="#v" transform="matrix(1,0,0,1,951.7948359656109,447.293458611054) translate(124.10993827160493 74.92222222222223)"/><use xlink:href="#w" transform="matrix(1,0,0,1,951.7948359656109,447.293458611054) translate(45.22222222222223 96.25555555555556)"/><use xlink:href="#x" transform="matrix(1,0,0,1,951.7948359656109,447.293458611054) translate(92.01734567901235 117.5888888888889)"/><use xlink:href="#y" transform="matrix(1,0,0,1,951.7948359656109,447.293458611054) translate(96.95561728395062 117.5888888888889)"/><use xlink:href="#z" transform="matrix(1,0,0,1,951.7948359656109,447.293458611054) translate(122.63462962962963 117.5888888888889)"/><path d="M827.2 539.12H932.73" stroke="#333" fill="none"/><path d="M827.22 539.62h-.54l.03-.5v-.5h.52z" stroke="#333" stroke-width=".05" fill="#333"/><path d="M947.5 539.12l-14.28 4.64v-9.27z" stroke="#333" fill="#333"/><path d="M1078.53 728.4h-2v-26.56h2zm5.1-48.16h-2V636.2h2z" stroke="#e81313" stroke-width=".05" fill="#e81313"/><path d="M1082.63 635.2l1-.06v1.1h-2v-1.1z" fill="#e81313"/><path d="M1082.63 635.17l1.02-.06v1.15h-2.05v-1.14zm-.98 1.03h1.95v-1.04l-.97.07-.98-.07z" stroke="#e81313" stroke-width=".05" fill="#e81313"/><path d="M1077.53 743.65l-4.63-14.26h9.27z" fill="#e81313"/><path d="M1077.53 746.9l-6-18.5h12zm-3.26-16.5l3.26 10.02 3.26-10.03z" stroke="#e81313" stroke-width=".05" fill="#e81313"/><use xlink:href="#A" transform="matrix(1,0,0,1,1068.6054611600457,680.2444789615101) translate(0.005000000000000782 14.4)"/><path d="M1125.53 746.9c17.67 0 32 17.9 32 40 0 22.08-14.33 40-32 40h-96c-17.67 0-32-17.92-32-40 0-22.1 14.33-40 32-40z" stroke="#000" stroke-opacity="0" fill="#5358d3"/><use xlink:href="#B" transform="matrix(1,0,0,1,1002.5309690970298,751.8890023754466) translate(60.20987654320989 39.297222222222224)"/><path d="M1289.48 540.12h-72.33v-2h72.33zm84.2 0h-54.85v-2h54.84z" stroke="#008a0e" stroke-width=".05" fill="#008a0e"/><path d="M1217.18 540.12h-1.13l.1-1-.1-1h1.13z" fill="#008a0e"/><path d="M1217.2 540.15h-1.17l.1-1.03-.1-1.02h1.17zm-1.12-2l.1.97-.1.98h1.07v-1.95z" stroke="#008a0e" stroke-width=".05" fill="#008a0e"/><path d="M1388.93 539.12l-14.26 4.64v-9.27z" fill="#008a0e"/><path d="M1392.17 539.12l-18.5 6.02V533.1zm-16.5 3.26l10.03-3.26-10.03-3.25z" stroke="#008a0e" stroke-width=".05" fill="#008a0e"/><use xlink:href="#C" transform="matrix(1,0,0,1,1289.4843783921801,528.3239451748718) translate(0.005000000000000782 14.4)"/><path d="M1499.25 460.04a11.04 11.04 0 0 1 12.95 0l102.68 74.4a5.8 5.8 0 0 1 0 9.38l-102.68 74.4a11.04 11.04 0 0 1-12.95 0l-102.68-74.4a5.8 5.8 0 0 1 0-9.4z" stroke="#323580" stroke-width="4" fill="#fff"/><use xlink:href="#D" transform="matrix(1,0,0,1,1394.8957829447586,460.14850015995637) translate(104.10993827160493 61.859722222222224)"/><use xlink:href="#E" transform="matrix(1,0,0,1,1394.8957829447586,460.14850015995637) translate(25.227222222222217 83.19305555555556)"/><use xlink:href="#F" transform="matrix(1,0,0,1,1394.8957829447586,460.14850015995637) translate(83.83833333333334 104.5263888888889)"/><path d="M1759.82 691.7a11.04 11.04 0 0 1 12.95 0l102.68 74.4a5.8 5.8 0 0 1 0 9.38l-102.68 74.4a11.04 11.04 0 0 1-12.95 0l-102.68-74.4a5.8 5.8 0 0 1 0-9.4z" stroke="#323580" stroke-width="4" fill="#fff"/><use xlink:href="#G" transform="matrix(1,0,0,1,1655.4624191883859,691.8091222042988) translate(34.066728395061716 71.73472222222223)"/><use xlink:href="#H" transform="matrix(1,0,0,1,1655.4624191883859,691.8091222042988) translate(66.60993827160493 71.73472222222223)"/><use xlink:href="#I" transform="matrix(1,0,0,1,1655.4624191883859,691.8091222042988) translate(111.99265432098765 71.73472222222223)"/><use xlink:href="#J" transform="matrix(1,0,0,1,1655.4624191883859,691.8091222042988) translate(145.5729012345679 71.73472222222223)"/><use xlink:href="#K" transform="matrix(1,0,0,1,1655.4624191883859,691.8091222042988) translate(89.79512345679012 93.06805555555556)"/><path d="M2201.32 558.22v2h-271.76l-1.7-.14-.46-.1h6.83v-1.76zm-289.6-19.85h-6.84v1.75h-284.6v-2h289.27l1.7.14z" stroke="#008a0e" stroke-width=".05" fill="#008a0e"/><path d="M1620.3 540.12h-1.1l.08-1-.1-1h1.13z" fill="#008a0e"/><path d="M1620.33 540.15h-1.17l.1-1.03-.1-1.02h1.17zm-1.1-2l.08.97-.08.98h1.06v-1.95z" stroke="#008a0e" stroke-width=".05" fill="#008a0e"/><path d="M2216.6 559.22l-14.28 4.63v-9.27z" fill="#008a0e"/><path d="M2219.82 559.22l-18.5 6V553.2zm-16.5 3.25l10.03-3.25-10.03-3.26z" stroke="#008a0e" stroke-width=".05" fill="#008a0e"/><use xlink:href="#C" transform="matrix(1,0,0,1,1904.8784916892798,538.3698227855376) translate(0.005000000000000782 14.4)"/><path d="M1506.73 758.75l.13 1.75.4 1.68.67 1.6.9 1.47 1.12 1.3 1.3 1.13 1.48.9 1.6.66 1.68.4 1.77.14h116.46v2H1517.7l-2-.15-2-.48-1.88-.78-1.74-1.07-1.55-1.32-1.32-1.55-1.06-1.74-.78-1.9-.48-1.98-.15-2v-63.58h2zm0-85.1h-2V623.3h2z" stroke="#e81313" stroke-width=".05" fill="#e81313"/><path d="M1505.73 622.3l1-.05v1.1h-2v-1.1z" fill="#e81313"/><path d="M1505.73 622.3l1.02-.08v1.14h-2.05v-1.14zm-.98 1h1.95v-1.03l-.97.07-.98-.07z" stroke="#e81313" stroke-width=".05" fill="#e81313"/><path d="M1649.5 770.8l-14.27 4.62v-9.27z" fill="#e81313"/><path d="M1652.74 770.8l-18.5 6v-12.03zm-16.5 3.24l10.02-3.25-10.03-3.27z" stroke="#e81313" stroke-width=".05" fill="#e81313"/><use xlink:href="#A" transform="matrix(1,0,0,1,1494.2515464228811,673.640775231734) translate(0.005000000000000782 14.4)"/><path d="M2459.9 715.33a8 8 0 0 1 8-8h222.63a8 8 0 0 1 8 8v80.23a8 8 0 0 1-8 8H2467.9a8 8 0 0 1-8-8z" stroke="#fff" fill="#5358d3"/><use xlink:href="#L" transform="matrix(1,0,0,1,2471.910857024436,719.3281871804918) translate(86.5 18.9625)"/><use xlink:href="#M" transform="matrix(1,0,0,1,2471.910857024436,719.3281871804918) translate(20.650000000000006 40.5625)"/><use xlink:href="#N" transform="matrix(1,0,0,1,2471.910857024436,719.3281871804918) translate(72.1 62.1625)"/><path d="M2363.08 518c17.67 0 32 17.9 32 40s-14.33 40-32 40h-96c-17.68 0-32-17.9-32-40s14.32-40 32-40z" stroke="#000" stroke-opacity="0" fill="#5358d3"/><use xlink:href="#O" transform="matrix(1,0,0,1,2240.076173067758,523.0005490189312) translate(56.25925925925927 19.609722222222224)"/><use xlink:href="#P" transform="matrix(1,0,0,1,2240.076173067758,523.0005490189312) translate(30.60493827160494 40.94305555555556)"/><use xlink:href="#Q" transform="matrix(1,0,0,1,2240.076173067758,523.0005490189312) translate(85.81481481481481 40.94305555555556)"/><use xlink:href="#R" transform="matrix(1,0,0,1,2240.076173067758,523.0005490189312) translate(46.90123456790124 62.276388888888896)"/><path d="M2902.28 883.48a8 8 0 0 1 8-8h173.2a8 8 0 0 1 8 8v104a8 8 0 0 1-8 8h-173.2a8 8 0 0 1-8-8z" stroke="#fff" fill="#5358d3"/><use xlink:href="#S" transform="matrix(1,0,0,1,2914.283166556872,887.4832629263482) translate(11.049999999999997 41.4)"/><use xlink:href="#T" transform="matrix(1,0,0,1,2914.283166556872,887.4832629263482) translate(46.05 41.4)"/><use xlink:href="#U" transform="matrix(1,0,0,1,2914.283166556872,887.4832629263482) translate(32.05 63)"/><use xlink:href="#V" transform="matrix(1,0,0,1,2914.283166556872,887.4832629263482) translate(68.95 63)"/><path d="M2579.77 882.17a16.33 16.33 0 0 1 14.37 0l69.88 34.23a3.92 3.92 0 0 1 0 7.03l-69.88 34.23a16.33 16.33 0 0 1-14.37 0l-69.88-34.23a3.92 3.92 0 0 1 0-7.03z" stroke="#323580" stroke-width="4" fill="#fff"/><use xlink:href="#W" transform="matrix(1,0,0,1,2507.5016864564577,883.447562216118) translate(40.986481481481476 40.234722222222224)"/><path d="M2584.2 804.56V862.33" stroke="#333" fill="none"/><path d="M2584.7 804.58h-1v-.52h1z" stroke="#333" stroke-width=".05" fill="#333"/><path d="M2584.2 877.1l-4.65-14.26h9.27z" stroke="#333" fill="#333"/><path d="M2573.5 505.86a11.9 11.9 0 0 1 13.27 0l70.98 47.68a5.38 5.38 0 0 1 0 8.92l-70.98 47.68a11.9 11.9 0 0 1-13.28 0l-70.98-47.68a5.38 5.38 0 0 1 0-8.92z" stroke="#323580" stroke-width="4" fill="#fff"/><use xlink:href="#X" transform="matrix(1,0,0,1,2500.6813321142845,506.1967972628511) translate(72.59141975308643 23.922222222222224)"/><use xlink:href="#Y" transform="matrix(1,0,0,1,2500.6813321142845,506.1967972628511) translate(37.10993827160493 45.25555555555556)"/><use xlink:href="#Z" transform="matrix(1,0,0,1,2500.6813321142845,506.1967972628511) translate(27.7766049382716 66.5888888888889)"/><use xlink:href="#aa" transform="matrix(1,0,0,1,2500.6813321142845,506.1967972628511) translate(58.245740740740736 66.5888888888889)"/><path d="M2759.8 559h-96.67v-2h96.66zm102.1-2.96h-79.16v-2h79.17z" stroke="#e81313" stroke-width=".05" fill="#e81313"/><path d="M2663.16 559h-1.13l.1-1-.1-1h1.13z" fill="#e81313"/><path d="M2663.18 559.03H2662l.1-1.03-.1-1.02h1.18zm-1.12-2l.1.97-.1.98h1.07v-1.95z" stroke="#e81313" stroke-width=".05" fill="#e81313"/><path d="M2877.17 555.04l-14.26 4.63v-9.27z" fill="#e81313"/><path d="M2880.4 555.04l-18.5 6v-12zm-16.5 3.26l10.03-3.26-10.02-3.26z" stroke="#e81313" stroke-width=".05" fill="#e81313"/><use xlink:href="#A" transform="matrix(1,0,0,1,2759.7950016797736,545.7200818229708) translate(0.005000000000000782 14.4)"/><path d="M3008.4 515.04c17.68 0 32 17.9 32 40s-14.32 40-32 40h-96c-17.67 0-32-17.9-32-40s14.33-40 32-40z" stroke="#000" stroke-opacity="0" fill="#5358d3"/><use xlink:href="#B" transform="matrix(1,0,0,1,2885.407153597777,520.0396146270102) translate(60.20987654320989 39.297222222222224)"/><path d="M2580.22 688.33h-2V671.3h2zm.9-38.63h-2v-34.53h2z" stroke="#008a0e" stroke-width=".05" fill="#008a0e"/><path d="M2580.13 614.17l1-.06v1.1h-2v-1.1z" fill="#008a0e"/><path d="M2580.13 614.14l1.03-.06v1.14h-2.05v-1.14zm-.97 1.03h1.95v-1.03l-.97.06-.97-.06z" stroke="#008a0e" stroke-width=".05" fill="#008a0e"/><path d="M2579.22 703.6l-4.63-14.27h9.26z" fill="#008a0e"/><path d="M2579.22 706.83l-6-18.5h12zm-3.26-16.5l3.26 10.03 3.26-10.03z" stroke="#008a0e" stroke-width=".05" fill="#008a0e"/><use xlink:href="#C" transform="matrix(1,0,0,1,2565.0018465034645,649.6991135651549) translate(0.005000000000000782 14.4)"/><path d="M2363.08 730.8c17.67 0 32 17.9 32 40 0 22.08-14.33 40-32 40h-96c-17.68 0-32-17.92-32-40 0-22.1 14.32-40 32-40z" stroke="#000" stroke-opacity="0" fill="#5358d3"/><use xlink:href="#O" transform="matrix(1,0,0,1,2240.076173067758,735.7845672192142) translate(56.25925925925927 28.359722222222224)"/><use xlink:href="#ab" transform="matrix(1,0,0,1,2240.076173067758,735.7845672192142) translate(24.283950617283953 49.69305555555555)"/><use xlink:href="#ac" transform="matrix(1,0,0,1,2240.076173067758,735.7845672192142) translate(77.46913580246914 49.69305555555555)"/><path d="M2187.9 769.94l1.98.48 1.9.78 1.73 1.06 1.56 1.33 1.33 1.54 1.05 1.74.78 1.9.48 1.97.16 2v60.22l.04.42.1.37.14.35.2.33.25.3.28.24.33.2.36.14.38.1.46.03-.16 2-.62-.06-.68-.15-.64-.27-.6-.37-.53-.44-.46-.53-.35-.6-.27-.64-.16-.7-.06-.65v-60.23l-.13-1.76-.4-1.67-.67-1.6-.9-1.48-1.12-1.3-1.3-1.13-1.48-.9-1.6-.67-1.68-.4-1.75-.14h-83.48v-2h83.55zm-307.05 1.84v-2H2073v2z" stroke="#008a0e" stroke-width=".05" fill="#008a0e"/><path d="M1880.88 771.8h-1.13l.1-1-.1-1h1.13z" fill="#008a0e"/><path d="M1880.9 771.8h-1.17l.1-1-.1-1.04h1.17zm-1.12-2l.1 1-.1.96h1.07v-1.95z" stroke="#008a0e" stroke-width=".05" fill="#008a0e"/><path d="M2216.6 846.46l-14.28 4.64v-9.27z" fill="#008a0e"/><path d="M2219.82 846.46l-18.5 6v-12zm-16.5 3.26l10.03-3.26-10.03-3.26z" stroke="#008a0e" stroke-width=".05" fill="#008a0e"/><use xlink:href="#C" transform="matrix(1,0,0,1,2073.001134940317,759.9845672131839) translate(0.005000000000000782 14.4)"/><path d="M1819.4 987c17.66 0 32 17.92 32 40.02s-14.34 40-32 40h-96c-17.7 0-32-17.9-32-40s14.3-40 32-40z" stroke="#000" stroke-opacity="0" fill="#5358d3"/><use xlink:href="#B" transform="matrix(1,0,0,1,1696.3877926449502,992.0149524505271) translate(60.20987654320989 39.297222222222224)"/><path d="M1767.3 968.5h-2v-70.1h2zm0-91.7h-2v-21.83h2z" stroke="#e81313" stroke-width=".05" fill="#e81313"/><path d="M1766.3 853.97l1-.06v1.1h-2v-1.1z" fill="#e81313"/><path d="M1766.3 853.95l1.02-.07v1.14h-2.05v-1.14zm-.98 1.02h1.95v-1.04l-.98.07-.98-.07z" stroke="#e81313" stroke-width=".05" fill="#e81313"/><path d="M1766.3 983.78l-4.64-14.27h9.27z" fill="#e81313"/><path d="M1766.3 987l-6.02-18.5h12.03zm-3.27-16.5l3.26 10.04 3.25-10.03z" stroke="#e81313" stroke-width=".05" fill="#e81313"/><use xlink:href="#A" transform="matrix(1,0,0,1,1754.8181826665084,876.8095242068904) translate(0.005000000000000782 14.4)"/><path d="M2395.58 558h86.17" stroke="#333" fill="none"/><path d="M2395.6 558.5h-.55l.03-.5-.02-.5h.53z" stroke="#333" stroke-width=".05" fill="#333"/><path d="M2496.52 558l-14.27 4.64v-9.27z" stroke="#333" fill="#333"/><path d="M2395.58 770.8h8.22a12 12 0 0 0 12-12v-188.8a12 12 0 0 1 12-12h53.95" stroke="#333" fill="none"/><path d="M2395.6 771.3h-.55l.03-.5-.02-.5h.53z" stroke="#333" stroke-width=".05" fill="#333"/><path d="M2496.52 558l-14.27 4.64v-9.27z" stroke="#333" fill="#333"/><path d="M273.33 419.12c17.68 0 32 17.9 32 40s-14.32 40-32 40h-96c-17.67 0-32-17.9-32-40s14.33-40 32-40z" stroke="#000" stroke-opacity="0" fill="#5358d3"/><g><use xlink:href="#u" transform="matrix(1,0,0,1,150.33252768502928,424.12394517487166) translate(56.25925925925927 39.297222222222224)"/></g><path d="M305.83 459.12H626.9" stroke="#333" fill="none"/><path d="M305.85 459.62h-.55l.03-.5v-.5h.52z" stroke="#333" stroke-width=".05" fill="#333"/><path d="M641.68 459.12l-14.27 4.64v-9.27z" stroke="#333" fill="#333"/><path d="M59.6 654.65a8 8 0 0 1 8-8h469.53a8 8 0 0 1 8 8v216a8 8 0 0 1-8 8H67.6a8 8 0 0 1-8-8z" fill="#fff"/><path d="M59.6 718.65v33h485.53v-33M59.6 782.65v33h485.53v-33M59.6 846.65v24a8 8 0 0 0 8 8h469.53a8 8 0 0 0 8-8v-24" fill="#e6e6e6"/><path d="M59.6 686.65v-32a8 8 0 0 1 8-8h469.53a8 8 0 0 1 8 8v32" fill="#ccc"/><path d="M59.6 654.65a8 8 0 0 1 8-8h469.53a8 8 0 0 1 8 8v216a8 8 0 0 1-8 8H67.6a8 8 0 0 1-8-8zM59.6 686.65h485.53M338.23 686.65v192" stroke="#333" fill="none"/><g><use xlink:href="#ad" transform="matrix(1,0,0,1,69.60859716309486,646.647562216118) translate(51.22500000000005 23.6)"/></g><g><use xlink:href="#ae" transform="matrix(1,0,0,1,64.60859716309486,689.147562216118) translate(47.650000000000006 17.1)"/></g><g><use xlink:href="#af" transform="matrix(1,0,0,1,343.22794921083096,689.147562216118) translate(79.525 17.1)"/></g><g><use xlink:href="#ag" transform="matrix(1,0,0,1,64.60859716309486,721.147562216118) translate(54.07499999999999 17.1)"/></g><g><use xlink:href="#af" transform="matrix(1,0,0,1,343.22794921083096,721.147562216118) translate(79.525 17.1)"/></g><g><use xlink:href="#ah" transform="matrix(1,0,0,1,64.60859716309486,753.147562216118) translate(62.75 17.1)"/></g><g><use xlink:href="#af" transform="matrix(1,0,0,1,343.22794921083096,753.147562216118) translate(79.525 17.1)"/></g><g><use xlink:href="#ai" transform="matrix(1,0,0,1,64.60859716309486,785.147562216118) translate(105.925 17.1)"/></g><g><use xlink:href="#af" transform="matrix(1,0,0,1,343.22794921083096,785.147562216118) translate(79.525 17.1)"/></g><g><use xlink:href="#aj" transform="matrix(1,0,0,1,64.60859716309486,817.147562216118) translate(4.900000000000006 17.1)"/></g><g><use xlink:href="#af" transform="matrix(1,0,0,1,343.22794921083096,817.147562216118) translate(79.525 17.1)"/></g><g><use xlink:href="#ak" transform="matrix(1,0,0,1,64.60859716309486,849.147562216118) translate(83.1 17.1)"/></g><g><use xlink:href="#af" transform="matrix(1,0,0,1,343.22794921083096,849.147562216118) translate(79.525 17.1)"/></g><path d="M2770.33 920.9h-101.1v-2h101.1zm112.95 0h-83.6v-2h83.6z" stroke="#008a0e" stroke-width=".05" fill="#008a0e"/><path d="M2669.26 920.9h-1.14l.1-1-.1-1h1.14z" fill="#008a0e"/><path d="M2669.28 920.94h-1.2l.12-1.03-.1-1h1.18zm-1.14-2l.12.97-.12 1h1.1v-1.96z" stroke="#008a0e" stroke-width=".05" fill="#008a0e"/><path d="M2898.55 919.9l-14.27 4.64v-9.27z" fill="#008a0e"/><path d="M2901.78 919.9l-18.5 6.02V913.9zm-16.5 3.27l10.03-3.26-10.02-3.25z" stroke="#008a0e" stroke-width=".05" fill="#008a0e"/><g><use xlink:href="#C" transform="matrix(1,0,0,1,2770.3313377723434,909.1109641539758) translate(0.005000000000000782 14.4)"/></g><path d="M2495.88 1068.8a8 8 0 0 1 8-8h173.2a8 8 0 0 1 8 8v104a8 8 0 0 1-8 8h-173.2a8 8 0 0 1-8-8z" stroke="#fff" fill="#5358d3"/><g><use xlink:href="#S" transform="matrix(1,0,0,1,2507.8813321142843,1072.7909372592035) translate(11.049999999999997 41.4)"/><use xlink:href="#T" transform="matrix(1,0,0,1,2507.8813321142843,1072.7909372592035) translate(46.05 41.4)"/><use xlink:href="#U" transform="matrix(1,0,0,1,2507.8813321142843,1072.7909372592035) translate(40.125 63)"/><use xlink:href="#al" transform="matrix(1,0,0,1,2507.8813321142843,1072.7909372592035) translate(77.025 63)"/></g><path d="M2587.95 1041.8h-2v-20.2h2zm0-41.8h-2v-37.67h2z" stroke="#e81313" stroke-width=".05" fill="#e81313"/><path d="M2586.95 961.33l1-.05v1.07h-2v-1.07z" fill="#e81313"/><path d="M2586.95 961.3l1.03-.04v1.12h-2.05v-1.12zm-.97 1.03h1.95v-1.02l-.98.05-.97-.04z" stroke="#e81313" stroke-width=".05" fill="#e81313"/><path d="M2586.95 1057.06l-4.63-14.27h9.27z" fill="#e81313"/><path d="M2586.95 1060.3l-6-18.5h12zm-3.26-16.5l3.25 10.02 3.26-10.03z" stroke="#e81313" stroke-width=".05" fill="#e81313"/><g><use xlink:href="#A" transform="matrix(1,0,0,1,2575.477734008665,1000.0095273244071) translate(0.005000000000000782 14.4)"/></g><defs><path d="M30 0v-248h187v28H63v79h144v27H63v87h162V0H30" id="am"/><path d="M141-36C126-15 110 5 73 4 37 3 15-17 15-53c-1-64 63-63 125-63 3-35-9-54-41-54-24 1-41 7-42 31l-33-3c5-37 33-52 76-52 45 0 72 20 72 64v82c-1 20 7 32 28 27v20c-31 9-61-2-59-35zM48-53c0 20 12 33 32 33 41-3 63-29 60-74-43 2-92-5-92 41" id="an"/><path d="M96-169c-40 0-48 33-48 73s9 75 48 75c24 0 41-14 43-38l32 2c-6 37-31 61-74 61-59 0-76-41-82-99-10-93 101-131 147-64 4 7 5 14 7 22l-32 3c-4-21-16-35-41-35" id="ao"/><path d="M106-169C34-169 62-67 57 0H25v-261h32l-1 103c12-21 28-36 61-36 89 0 53 116 60 194h-32v-121c2-32-8-49-39-48" id="ap"/><g id="a"><use transform="matrix(0.05,0,0,0.05,0,0)" xlink:href="#am"/><use transform="matrix(0.05,0,0,0.05,12,0)" xlink:href="#an"/><use transform="matrix(0.05,0,0,0.05,22,0)" xlink:href="#ao"/><use transform="matrix(0.05,0,0,0.05,31,0)" xlink:href="#ap"/></g><path d="M143 0L79-87 56-68V0H24v-261h32v163l83-92h37l-77 82L181 0h-38" id="aq"/><path d="M100-194c63 0 86 42 84 106H49c0 40 14 67 53 68 26 1 43-12 49-29l28 8c-11 28-37 45-77 45C44 4 14-33 15-96c1-61 26-98 85-98zm52 81c6-60-76-77-97-28-3 7-6 17-6 28h103" id="ar"/><path d="M179-190L93 31C79 59 56 82 12 73V49c39 6 53-20 64-50L1-190h34L92-34l54-156h33" id="as"/><g id="b"><use transform="matrix(0.05,0,0,0.05,0,0)" xlink:href="#aq"/><use transform="matrix(0.05,0,0,0.05,9,0)" xlink:href="#ar"/><use transform="matrix(0.05,0,0,0.05,19,0)" xlink:href="#as"/></g><path d="M87 75C49 33 22-17 22-94c0-76 28-126 65-167h31c-38 41-64 92-64 168S80 34 118 75H87" id="at"/><path d="M117-194c89-4 53 116 60 194h-32v-121c0-31-8-49-39-48C34-167 62-67 57 0H25l-1-190h30c1 10-1 24 2 32 11-22 29-35 61-36" id="au"/><path d="M100-194c62-1 85 37 85 99 1 63-27 99-86 99S16-35 15-95c0-66 28-99 85-99zM99-20c44 1 53-31 53-75 0-43-8-75-51-75s-53 32-53 75 10 74 51 75" id="av"/><path d="M59-47c-2 24 18 29 38 22v24C64 9 27 4 27-40v-127H5v-23h24l9-43h21v43h35v23H59v120" id="aw"/><path d="M24-231v-30h32v30H24zM24 0v-190h32V0H24" id="ax"/><path d="M101-234c-31-9-42 10-38 44h38v23H63V0H32v-167H5v-23h27c-7-52 17-82 69-68v24" id="ay"/><path d="M33-261c38 41 65 92 65 168S71 34 33 75H2C39 34 66-17 66-93S39-220 2-261h31" id="az"/><g id="c"><use transform="matrix(0.05,0,0,0.05,0,0)" xlink:href="#at"/><use transform="matrix(0.05,0,0,0.05,5.95,0)" xlink:href="#au"/><use transform="matrix(0.05,0,0,0.05,15.949999999999998,0)" xlink:href="#av"/><use transform="matrix(0.05,0,0,0.05,25.950000000000003,0)" xlink:href="#aw"/><use transform="matrix(0.05,0,0,0.05,30.950000000000003,0)" xlink:href="#ax"/><use transform="matrix(0.05,0,0,0.05,34.9,0)" xlink:href="#ay"/><use transform="matrix(0.05,0,0,0.05,39.9,0)" xlink:href="#ax"/><use transform="matrix(0.05,0,0,0.05,43.85,0)" xlink:href="#ao"/><use transform="matrix(0.05,0,0,0.05,52.85,0)" xlink:href="#an"/><use transform="matrix(0.05,0,0,0.05,62.85,0)" xlink:href="#aw"/><use transform="matrix(0.05,0,0,0.05,67.85,0)" xlink:href="#ax"/><use transform="matrix(0.05,0,0,0.05,71.8,0)" xlink:href="#av"/><use transform="matrix(0.05,0,0,0.05,81.8,0)" xlink:href="#au"/><use transform="matrix(0.05,0,0,0.05,91.8,0)" xlink:href="#az"/></g><path d="M85-194c31 0 48 13 60 33l-1-100h32l1 261h-30c-2-10 0-23-3-31C134-8 116 4 85 4 32 4 16-35 15-94c0-66 23-100 70-100zm9 24c-40 0-46 34-46 75 0 40 6 74 45 74 42 0 51-32 51-76 0-42-9-74-50-73" id="aA"/><g id="d"><use transform="matrix(0.05,0,0,0.05,0,0)" xlink:href="#aA"/><use transform="matrix(0.05,0,0,0.05,10,0)" xlink:href="#an"/><use transform="matrix(0.05,0,0,0.05,20,0)" xlink:href="#aw"/><use transform="matrix(0.05,0,0,0.05,25,0)" xlink:href="#ar"/></g><path d="M16-82v-28h88v28H16" id="aB"/><use transform="matrix(0.05,0,0,0.05,0,0)" xlink:href="#aB" id="e"/><path d="M141 0L90-78 38 0H4l68-98-65-92h35l48 74 47-74h35l-64 92 68 98h-35" id="aC"/><path d="M210-169c-67 3-38 105-44 169h-31v-121c0-29-5-50-35-48C34-165 62-65 56 0H25l-1-190h30c1 10-1 24 2 32 10-44 99-50 107 0 11-21 27-35 58-36 85-2 47 119 55 194h-31v-121c0-29-5-49-35-48" id="aD"/><path d="M115-194c55 1 70 41 70 98S169 2 115 4C84 4 66-9 55-30l1 105H24l-1-265h31l2 30c10-21 28-34 59-34zm-8 174c40 0 45-34 45-75s-6-73-45-74c-42 0-51 32-51 76 0 43 10 73 51 73" id="aE"/><path d="M24 0v-261h32V0H24" id="aF"/><path d="M33-154v-36h34v36H33zM33 0v-36h34V0H33" id="aG"/><g id="f"><use transform="matrix(0.05,0,0,0.05,0,0)" xlink:href="#ar"/><use transform="matrix(0.05,0,0,0.05,10,0)" xlink:href="#aC"/><use transform="matrix(0.05,0,0,0.05,19,0)" xlink:href="#an"/><use transform="matrix(0.05,0,0,0.05,29,0)" xlink:href="#aD"/><use transform="matrix(0.05,0,0,0.05,43.95,0)" xlink:href="#aE"/><use transform="matrix(0.05,0,0,0.05,53.95,0)" xlink:href="#aF"/><use transform="matrix(0.05,0,0,0.05,57.900000000000006,0)" xlink:href="#ar"/><use transform="matrix(0.05,0,0,0.05,67.9,0)" xlink:href="#aG"/></g><path d="M30-248c87 1 191-15 191 75 0 78-77 80-158 76V0H30v-248zm33 125c57 0 124 11 124-50 0-59-68-47-124-48v98" id="aH"/><path d="M140-251c81 0 123 46 123 126C263-46 219 4 140 4 59 4 17-45 17-125s42-126 123-126zm0 227c63 0 89-41 89-101s-29-99-89-99c-61 0-89 39-89 99S79-25 140-24" id="aI"/><path d="M185-189c-5-48-123-54-124 2 14 75 158 14 163 119 3 78-121 87-175 55-17-10-28-26-33-46l33-7c5 56 141 63 141-1 0-78-155-14-162-118-5-82 145-84 179-34 5 7 8 16 11 25" id="aJ"/><path d="M127-220V0H93v-220H8v-28h204v28h-85" id="aK"/><path d="M-5 72V49h209v23H-5" id="aL"/><path d="M190 0L58-211 59 0H30v-248h39L202-35l-2-213h31V0h-41" id="aM"/><path d="M240 0l2-218c-23 76-54 145-80 218h-23L58-218 59 0H30v-248h44l77 211c21-75 51-140 76-211h43V0h-30" id="aN"/><path d="M197 0v-115H63V0H30v-248h33v105h134v-105h34V0h-34" id="aO"/><g id="g"><use transform="matrix(0.05,0,0,0.05,0,0)" xlink:href="#aH"/><use transform="matrix(0.05,0,0,0.05,12,0)" xlink:href="#aI"/><use transform="matrix(0.05,0,0,0.05,26,0)" xlink:href="#aJ"/><use transform="matrix(0.05,0,0,0.05,38,0)" xlink:href="#aK"/><use transform="matrix(0.05,0,0,0.05,48.95,0)" xlink:href="#aL"/><use transform="matrix(0.05,0,0,0.05,58.95,0)" xlink:href="#aI"/><use transform="matrix(0.05,0,0,0.05,72.95,0)" xlink:href="#aM"/><use transform="matrix(0.05,0,0,0.05,85.9,0)" xlink:href="#am"/><use transform="matrix(0.05,0,0,0.05,97.9,0)" xlink:href="#aL"/><use transform="matrix(0.05,0,0,0.05,107.9,0)" xlink:href="#aN"/><use transform="matrix(0.05,0,0,0.05,122.85000000000001,0)" xlink:href="#aI"/><use transform="matrix(0.05,0,0,0.05,136.85000000000002,0)" xlink:href="#aM"/><use transform="matrix(0.05,0,0,0.05,149.8,0)" xlink:href="#aK"/><use transform="matrix(0.05,0,0,0.05,160.75,0)" xlink:href="#aO"/></g><g id="h"><use transform="matrix(0.05,0,0,0.05,0,0)" xlink:href="#ax"/><use transform="matrix(0.05,0,0,0.05,3.95,0)" xlink:href="#aw"/><use transform="matrix(0.05,0,0,0.05,8.95,0)" xlink:href="#ar"/><use transform="matrix(0.05,0,0,0.05,18.95,0)" xlink:href="#aD"/></g><path fill="#333" d="M190 0L58-211 59 0H30v-248h39L202-35l-2-213h31V0h-41" id="aP"/><path fill="#333" d="M100-194c62-1 85 37 85 99 1 63-27 99-86 99S16-35 15-95c0-66 28-99 85-99zM99-20c44 1 53-31 53-75 0-43-8-75-51-75s-53 32-53 75 10 74 51 75" id="aQ"/><path fill="#333" d="M59-47c-2 24 18 29 38 22v24C64 9 27 4 27-40v-127H5v-23h24l9-43h21v43h35v23H59v120" id="aR"/><path fill="#333" d="M24-231v-30h32v30H24zM24 0v-190h32V0H24" id="aS"/><path fill="#333" d="M101-234c-31-9-42 10-38 44h38v23H63V0H32v-167H5v-23h27c-7-52 17-82 69-68v24" id="aT"/><path fill="#333" d="M96-169c-40 0-48 33-48 73s9 75 48 75c24 0 41-14 43-38l32 2c-6 37-31 61-74 61-59 0-76-41-82-99-10-93 101-131 147-64 4 7 5 14 7 22l-32 3c-4-21-16-35-41-35" id="aU"/><path fill="#333" d="M141-36C126-15 110 5 73 4 37 3 15-17 15-53c-1-64 63-63 125-63 3-35-9-54-41-54-24 1-41 7-42 31l-33-3c5-37 33-52 76-52 45 0 72 20 72 64v82c-1 20 7 32 28 27v20c-31 9-61-2-59-35zM48-53c0 20 12 33 32 33 41-3 63-29 60-74-43 2-92-5-92 41" id="aV"/><path fill="#333" d="M117-194c89-4 53 116 60 194h-32v-121c0-31-8-49-39-48C34-167 62-67 57 0H25l-1-190h30c1 10-1 24 2 32 11-22 29-35 61-36" id="aW"/><g id="i"><use transform="matrix(0.11790123456790114,0,0,0.11790123456790114,0,0)" xlink:href="#aP"/><use transform="matrix(0.11790123456790114,0,0,0.11790123456790114,30.536419753086395,0)" xlink:href="#aQ"/><use transform="matrix(0.11790123456790114,0,0,0.11790123456790114,54.11666666666662,0)" xlink:href="#aR"/><use transform="matrix(0.11790123456790114,0,0,0.11790123456790114,65.90679012345673,0)" xlink:href="#aS"/><use transform="matrix(0.11790123456790114,0,0,0.11790123456790114,75.22098765432092,0)" xlink:href="#aT"/><use transform="matrix(0.11790123456790114,0,0,0.11790123456790114,87.01111111111103,0)" xlink:href="#aS"/><use transform="matrix(0.11790123456790114,0,0,0.11790123456790114,96.32530864197523,0)" xlink:href="#aU"/><use transform="matrix(0.11790123456790114,0,0,0.11790123456790114,117.54753086419743,0)" xlink:href="#aV"/><use transform="matrix(0.11790123456790114,0,0,0.11790123456790114,141.12777777777765,0)" xlink:href="#aR"/><use transform="matrix(0.11790123456790114,0,0,0.11790123456790114,152.91790123456775,0)" xlink:href="#aS"/><use transform="matrix(0.11790123456790114,0,0,0.11790123456790114,162.23209876543194,0)" xlink:href="#aQ"/><use transform="matrix(0.11790123456790114,0,0,0.11790123456790114,185.81234567901217,0)" xlink:href="#aW"/></g><path fill="#333" d="M135-143c-3-34-86-38-87 0 15 53 115 12 119 90S17 21 10-45l28-5c4 36 97 45 98 0-10-56-113-15-118-90-4-57 82-63 122-42 12 7 21 19 24 35" id="aX"/><path fill="#333" d="M143 0L79-87 56-68V0H24v-261h32v163l83-92h37l-77 82L181 0h-38" id="aY"/><g id="j"><use transform="matrix(0.11790123456790114,0,0,0.11790123456790114,0,0)" xlink:href="#aR"/><use transform="matrix(0.11790123456790114,0,0,0.11790123456790114,11.790123456790113,0)" xlink:href="#aV"/><use transform="matrix(0.11790123456790114,0,0,0.11790123456790114,35.37037037037034,0)" xlink:href="#aX"/><use transform="matrix(0.11790123456790114,0,0,0.11790123456790114,56.59259259259254,0)" xlink:href="#aY"/><use transform="matrix(0.11790123456790114,0,0,0.11790123456790114,77.81481481481474,0)" xlink:href="#aX"/></g><path fill="#333" d="M185-189c-5-48-123-54-124 2 14 75 158 14 163 119 3 78-121 87-175 55-17-10-28-26-33-46l33-7c5 56 141 63 141-1 0-78-155-14-162-118-5-82 145-84 179-34 5 7 8 16 11 25" id="aZ"/><path fill="#333" d="M100-194c63 0 86 42 84 106H49c0 40 14 67 53 68 26 1 43-12 49-29l28 8c-11 28-37 45-77 45C44 4 14-33 15-96c1-61 26-98 85-98zm52 81c6-60-76-77-97-28-3 7-6 17-6 28h103" id="ba"/><path fill="#333" d="M85-194c31 0 48 13 60 33l-1-100h32l1 261h-30c-2-10 0-23-3-31C134-8 116 4 85 4 32 4 16-35 15-94c0-66 23-100 70-100zm9 24c-40 0-46 34-46 75 0 40 6 74 45 74 42 0 51-32 51-76 0-42-9-74-50-73" id="bb"/><g id="k"><use transform="matrix(0.09320987654320982,0,0,0.09320987654320982,0,0)" xlink:href="#aZ"/><use transform="matrix(0.09320987654320982,0,0,0.09320987654320982,22.370370370370356,0)" xlink:href="#ba"/><use transform="matrix(0.09320987654320982,0,0,0.09320987654320982,41.01234567901232,0)" xlink:href="#aW"/><use transform="matrix(0.09320987654320982,0,0,0.09320987654320982,59.65432098765429,0)" xlink:href="#bb"/><use transform="matrix(0.09320987654320982,0,0,0.09320987654320982,78.29629629629625,0)" xlink:href="#aX"/></g><path fill="#333" d="M210-169c-67 3-38 105-44 169h-31v-121c0-29-5-50-35-48C34-165 62-65 56 0H25l-1-190h30c1 10-1 24 2 32 10-44 99-50 107 0 11-21 27-35 58-36 85-2 47 119 55 194h-31v-121c0-29-5-49-35-48" id="bc"/><path fill="#333" d="M24 0v-261h32V0H24" id="bd"/><g id="l"><use transform="matrix(0.09320987654320982,0,0,0.09320987654320982,0,0)" xlink:href="#ba"/><use transform="matrix(0.09320987654320982,0,0,0.09320987654320982,18.641975308641964,0)" xlink:href="#bc"/><use transform="matrix(0.09320987654320982,0,0,0.09320987654320982,46.5117283950617,0)" xlink:href="#aV"/><use transform="matrix(0.09320987654320982,0,0,0.09320987654320982,65.15370370370367,0)" xlink:href="#aS"/><use transform="matrix(0.09320987654320982,0,0,0.09320987654320982,72.51728395061724,0)" xlink:href="#bd"/><use transform="matrix(0.09320987654320982,0,0,0.09320987654320982,79.88086419753081,0)" xlink:href="#aX"/></g><g id="m"><use transform="matrix(0.09320987654320982,0,0,0.09320987654320982,0,0)" xlink:href="#aR"/><use transform="matrix(0.09320987654320982,0,0,0.09320987654320982,9.320987654320982,0)" xlink:href="#aQ"/></g><path fill="#333" d="M115-194c55 1 70 41 70 98S169 2 115 4C84 4 66-9 55-30l1 105H24l-1-265h31l2 30c10-21 28-34 59-34zm-8 174c40 0 45-34 45-75s-6-73-45-74c-42 0-51 32-51 76 0 43 10 73 51 73" id="be"/><path fill="#333" d="M68-38c1 34 0 65-14 84H32c9-13 17-26 17-46H33v-38h35" id="bf"/><g id="n"><use transform="matrix(0.09320987654320982,0,0,0.09320987654320982,0,0)" xlink:href="#be"/><use transform="matrix(0.09320987654320982,0,0,0.09320987654320982,18.641975308641964,0)" xlink:href="#aQ"/><use transform="matrix(0.09320987654320982,0,0,0.09320987654320982,37.28395061728393,0)" xlink:href="#aX"/><use transform="matrix(0.09320987654320982,0,0,0.09320987654320982,54.0617283950617,0)" xlink:href="#aR"/><use transform="matrix(0.09320987654320982,0,0,0.09320987654320982,63.382716049382665,0)" xlink:href="#aX"/><use transform="matrix(0.09320987654320982,0,0,0.09320987654320982,80.16049382716044,0)" xlink:href="#bf"/></g><path fill="#333" d="M114-163C36-179 61-72 57 0H25l-1-190h30c1 12-1 29 2 39 6-27 23-49 58-41v29" id="bg"/><g id="o"><use transform="matrix(0.09320987654320982,0,0,0.09320987654320982,0,0)" xlink:href="#aQ"/><use transform="matrix(0.09320987654320982,0,0,0.09320987654320982,18.641975308641964,0)" xlink:href="#bg"/></g><path fill="#333" d="M108 0H70L1-190h34L89-25l56-165h34" id="bh"/><g id="p"><use transform="matrix(0.09320987654320982,0,0,0.09320987654320982,0,0)" xlink:href="#aX"/><use transform="matrix(0.09320987654320982,0,0,0.09320987654320982,16.777777777777768,0)" xlink:href="#ba"/><use transform="matrix(0.09320987654320982,0,0,0.09320987654320982,35.41975308641973,0)" xlink:href="#bg"/><use transform="matrix(0.09320987654320982,0,0,0.09320987654320982,46.5117283950617,0)" xlink:href="#bh"/><use transform="matrix(0.09320987654320982,0,0,0.09320987654320982,63.28950617283947,0)" xlink:href="#aS"/><use transform="matrix(0.09320987654320982,0,0,0.09320987654320982,70.65308641975304,0)" xlink:href="#aU"/><use transform="matrix(0.09320987654320982,0,0,0.09320987654320982,87.43086419753081,0)" xlink:href="#ba"/></g><g id="q"><use transform="matrix(0.09320987654320982,0,0,0.09320987654320982,0,0)" xlink:href="#be"/><use transform="matrix(0.09320987654320982,0,0,0.09320987654320982,18.641975308641964,0)" xlink:href="#bg"/><use transform="matrix(0.09320987654320982,0,0,0.09320987654320982,29.733950617283934,0)" xlink:href="#aQ"/><use transform="matrix(0.09320987654320982,0,0,0.09320987654320982,48.3759259259259,0)" xlink:href="#bh"/><use transform="matrix(0.09320987654320982,0,0,0.09320987654320982,65.15370370370367,0)" xlink:href="#aS"/><use transform="matrix(0.09320987654320982,0,0,0.09320987654320982,72.51728395061724,0)" xlink:href="#bb"/><use transform="matrix(0.09320987654320982,0,0,0.09320987654320982,91.1592592592592,0)" xlink:href="#ba"/><use transform="matrix(0.09320987654320982,0,0,0.09320987654320982,109.80123456790118,0)" xlink:href="#bg"/><use transform="matrix(0.09320987654320982,0,0,0.09320987654320982,120.89320987654311,0)" xlink:href="#aX"/><use transform="matrix(0.09320987654320982,0,0,0.09320987654320982,137.6709876543209,0)" xlink:href="#bf"/></g><path fill="#333" d="M115-194c53 0 69 39 70 98 0 66-23 100-70 100C84 3 66-7 56-30L54 0H23l1-261h32v101c10-23 28-34 59-34zm-8 174c40 0 45-34 45-75 0-40-5-75-45-74-42 0-51 32-51 76 0 43 10 73 51 73" id="bi"/><g id="r"><use transform="matrix(0.09320987654320982,0,0,0.09320987654320982,0,0)" xlink:href="#bi"/><use transform="matrix(0.09320987654320982,0,0,0.09320987654320982,18.641975308641964,0)" xlink:href="#aV"/><use transform="matrix(0.09320987654320982,0,0,0.09320987654320982,37.28395061728393,0)" xlink:href="#aX"/><use transform="matrix(0.09320987654320982,0,0,0.09320987654320982,54.0617283950617,0)" xlink:href="#ba"/><use transform="matrix(0.09320987654320982,0,0,0.09320987654320982,72.70370370370365,0)" xlink:href="#bb"/></g><g id="s"><use transform="matrix(0.09320987654320982,0,0,0.09320987654320982,0,0)" xlink:href="#aQ"/><use transform="matrix(0.09320987654320982,0,0,0.09320987654320982,18.641975308641964,0)" xlink:href="#aW"/></g><path fill="#333" d="M30 0v-248h33v221h125V0H30" id="bj"/><path fill="#333" d="M33 0v-38h34V0H33" id="bk"/><path fill="#333" d="M205 0l-28-72H64L36 0H1l101-248h38L239 0h-34zm-38-99l-47-123c-12 45-31 82-46 123h93" id="bl"/><path fill="#333" d="M84 4C-5 8 30-112 23-190h32v120c0 31 7 50 39 49 72-2 45-101 50-169h31l1 190h-30c-1-10 1-25-2-33-11 22-28 36-60 37" id="bm"/><path fill="#333" d="M233-177c-1 41-23 64-60 70L243 0h-38l-65-103H63V0H30v-248c88 3 205-21 203 71zM63-129c60-2 137 13 137-47 0-61-80-42-137-45v92" id="bn"/><path fill="#333" d="M206 0h-36l-40-164L89 0H53L-1-190h32L70-26l43-164h34l41 164 42-164h31" id="bo"/><path fill="#333" d="M179-190L93 31C79 59 56 82 12 73V49c39 6 53-20 64-50L1-190h34L92-34l54-156h33" id="bp"/><path fill="#333" d="M30-248c118-7 216 8 213 122C240-48 200 0 122 0H30v-248zM63-27c89 8 146-16 146-99s-60-101-146-95v194" id="bq"/><g id="t"><use transform="matrix(0.09320987654320982,0,0,0.09320987654320982,0,0)" xlink:href="#bj"/><use transform="matrix(0.09320987654320982,0,0,0.09320987654320982,18.641975308641964,0)" xlink:href="#aS"/><use transform="matrix(0.09320987654320982,0,0,0.09320987654320982,26.00555555555554,0)" xlink:href="#aX"/><use transform="matrix(0.09320987654320982,0,0,0.09320987654320982,42.7833333333333,0)" xlink:href="#aR"/><use transform="matrix(0.09320987654320982,0,0,0.09320987654320982,52.104320987654276,0)" xlink:href="#bk"/><use transform="matrix(0.09320987654320982,0,0,0.09320987654320982,61.42530864197526,0)" xlink:href="#bl"/><use transform="matrix(0.09320987654320982,0,0,0.09320987654320982,83.79567901234562,0)" xlink:href="#aW"/><use transform="matrix(0.09320987654320982,0,0,0.09320987654320982,102.43765432098758,0)" xlink:href="#aW"/><use transform="matrix(0.09320987654320982,0,0,0.09320987654320982,121.07962962962954,0)" xlink:href="#bm"/><use transform="matrix(0.09320987654320982,0,0,0.09320987654320982,139.7216049382715,0)" xlink:href="#aV"/><use transform="matrix(0.09320987654320982,0,0,0.09320987654320982,158.36358024691347,0)" xlink:href="#bd"/><use transform="matrix(0.09320987654320982,0,0,0.09320987654320982,165.72716049382706,0)" xlink:href="#bn"/><use transform="matrix(0.09320987654320982,0,0,0.09320987654320982,189.86851851851839,0)" xlink:href="#ba"/><use transform="matrix(0.09320987654320982,0,0,0.09320987654320982,208.51049382716036,0)" xlink:href="#bh"/><use transform="matrix(0.09320987654320982,0,0,0.09320987654320982,225.28827160493813,0)" xlink:href="#aS"/><use transform="matrix(0.09320987654320982,0,0,0.09320987654320982,232.65185185185172,0)" xlink:href="#ba"/><use transform="matrix(0.09320987654320982,0,0,0.09320987654320982,251.2938271604937,0)" xlink:href="#bo"/><use transform="matrix(0.09320987654320982,0,0,0.09320987654320982,273.57098765432085,0)" xlink:href="#bk"/><use transform="matrix(0.09320987654320982,0,0,0.09320987654320982,282.8919753086418,0)" xlink:href="#aU"/><use transform="matrix(0.09320987654320982,0,0,0.09320987654320982,299.6697530864196,0)" xlink:href="#bm"/><use transform="matrix(0.09320987654320982,0,0,0.09320987654320982,318.31172839506155,0)" xlink:href="#bg"/><use transform="matrix(0.09320987654320982,0,0,0.09320987654320982,329.4037037037035,0)" xlink:href="#bg"/><use transform="matrix(0.09320987654320982,0,0,0.09320987654320982,340.4956790123455,0)" xlink:href="#ba"/><use transform="matrix(0.09320987654320982,0,0,0.09320987654320982,359.13765432098745,0)" xlink:href="#aW"/><use transform="matrix(0.09320987654320982,0,0,0.09320987654320982,377.7796296296294,0)" xlink:href="#aR"/><use transform="matrix(0.09320987654320982,0,0,0.09320987654320982,387.1006172839504,0)" xlink:href="#bl"/><use transform="matrix(0.09320987654320982,0,0,0.09320987654320982,409.47098765432077,0)" xlink:href="#aW"/><use transform="matrix(0.09320987654320982,0,0,0.09320987654320982,428.1129629629627,0)" xlink:href="#aW"/><use transform="matrix(0.09320987654320982,0,0,0.09320987654320982,446.75493827160466,0)" xlink:href="#bm"/><use transform="matrix(0.09320987654320982,0,0,0.09320987654320982,465.39691358024675,0)" xlink:href="#aV"/><use transform="matrix(0.09320987654320982,0,0,0.09320987654320982,484.03888888888866,0)" xlink:href="#bd"/><use transform="matrix(0.09320987654320982,0,0,0.09320987654320982,491.4024691358023,0)" xlink:href="#bn"/><use transform="matrix(0.09320987654320982,0,0,0.09320987654320982,515.5438271604936,0)" xlink:href="#ba"/><use transform="matrix(0.09320987654320982,0,0,0.09320987654320982,534.1858024691355,0)" xlink:href="#bh"/><use transform="matrix(0.09320987654320982,0,0,0.09320987654320982,550.9635802469132,0)" xlink:href="#aS"/><use transform="matrix(0.09320987654320982,0,0,0.09320987654320982,558.3271604938268,0)" xlink:href="#ba"/><use transform="matrix(0.09320987654320982,0,0,0.09320987654320982,576.9691358024687,0)" xlink:href="#bo"/><use transform="matrix(0.09320987654320982,0,0,0.09320987654320982,599.2462962962959,0)" xlink:href="#bk"/><use transform="matrix(0.09320987654320982,0,0,0.09320987654320982,608.5672839506169,0)" xlink:href="#aY"/><use transform="matrix(0.09320987654320982,0,0,0.09320987654320982,625.3450617283946,0)" xlink:href="#ba"/><use transform="matrix(0.09320987654320982,0,0,0.09320987654320982,643.9870370370365,0)" xlink:href="#bp"/><use transform="matrix(0.09320987654320982,0,0,0.09320987654320982,660.7648148148143,0)" xlink:href="#bq"/><use transform="matrix(0.09320987654320982,0,0,0.09320987654320982,684.9061728395056,0)" xlink:href="#aV"/><use transform="matrix(0.09320987654320982,0,0,0.09320987654320982,703.5481481481476,0)" xlink:href="#aR"/><use transform="matrix(0.09320987654320982,0,0,0.09320987654320982,712.8691358024686,0)" xlink:href="#ba"/><use transform="matrix(0.09320987654320982,0,0,0.09320987654320982,731.5111111111105,0)" xlink:href="#aX"/></g><path fill="#fff" d="M185-189c-5-48-123-54-124 2 14 75 158 14 163 119 3 78-121 87-175 55-17-10-28-26-33-46l33-7c5 56 141 63 141-1 0-78-155-14-162-118-5-82 145-84 179-34 5 7 8 16 11 25" id="br"/><path fill="#fff" d="M59-47c-2 24 18 29 38 22v24C64 9 27 4 27-40v-127H5v-23h24l9-43h21v43h35v23H59v120" id="bs"/><path fill="#fff" d="M141-36C126-15 110 5 73 4 37 3 15-17 15-53c-1-64 63-63 125-63 3-35-9-54-41-54-24 1-41 7-42 31l-33-3c5-37 33-52 76-52 45 0 72 20 72 64v82c-1 20 7 32 28 27v20c-31 9-61-2-59-35zM48-53c0 20 12 33 32 33 41-3 63-29 60-74-43 2-92-5-92 41" id="bt"/><path fill="#fff" d="M114-163C36-179 61-72 57 0H25l-1-190h30c1 12-1 29 2 39 6-27 23-49 58-41v29" id="bu"/><g id="u"><use transform="matrix(0.04938271604938272,0,0,0.04938271604938272,0,0)" xlink:href="#br"/><use transform="matrix(0.04938271604938272,0,0,0.04938271604938272,11.851851851851853,0)" xlink:href="#bs"/><use transform="matrix(0.04938271604938272,0,0,0.04938271604938272,16.790123456790127,0)" xlink:href="#bt"/><use transform="matrix(0.04938271604938272,0,0,0.04938271604938272,26.666666666666668,0)" xlink:href="#bu"/><use transform="matrix(0.04938271604938272,0,0,0.04938271604938272,32.543209876543216,0)" xlink:href="#bs"/></g><g id="v"><use transform="matrix(0.04938271604938272,0,0,0.04938271604938272,0,0)" xlink:href="#aS"/><use transform="matrix(0.04938271604938272,0,0,0.04938271604938272,3.901234567901235,0)" xlink:href="#aX"/></g><path fill="#333" d="M30-248c87 1 191-15 191 75 0 78-77 80-158 76V0H30v-248zm33 125c57 0 124 11 124-50 0-59-68-47-124-48v98" id="bv"/><path fill="#333" d="M140-251c81 0 123 46 123 126C263-46 219 4 140 4 59 4 17-45 17-125s42-126 123-126zm0 227c63 0 89-41 89-101s-29-99-89-99c-61 0-89 39-89 99S79-25 140-24" id="bw"/><path fill="#333" d="M127-220V0H93v-220H8v-28h204v28h-85" id="bx"/><path fill="#333" d="M-5 72V49h209v23H-5" id="by"/><path fill="#333" d="M30 0v-248h187v28H63v79h144v27H63v87h162V0H30" id="bz"/><path fill="#333" d="M240 0l2-218c-23 76-54 145-80 218h-23L58-218 59 0H30v-248h44l77 211c21-75 51-140 76-211h43V0h-30" id="bA"/><path fill="#333" d="M197 0v-115H63V0H30v-248h33v105h134v-105h34V0h-34" id="bB"/><g id="w"><use transform="matrix(0.04938271604938272,0,0,0.04938271604938272,0,0)" xlink:href="#bv"/><use transform="matrix(0.04938271604938272,0,0,0.04938271604938272,11.851851851851853,0)" xlink:href="#bw"/><use transform="matrix(0.04938271604938272,0,0,0.04938271604938272,25.679012345679016,0)" xlink:href="#aZ"/><use transform="matrix(0.04938271604938272,0,0,0.04938271604938272,37.53086419753087,0)" xlink:href="#bx"/><use transform="matrix(0.04938271604938272,0,0,0.04938271604938272,48.345679012345684,0)" xlink:href="#by"/><use transform="matrix(0.04938271604938272,0,0,0.04938271604938272,58.22222222222223,0)" xlink:href="#bw"/><use transform="matrix(0.04938271604938272,0,0,0.04938271604938272,72.0493827160494,0)" xlink:href="#aP"/><use transform="matrix(0.04938271604938272,0,0,0.04938271604938272,84.83950617283952,0)" xlink:href="#bz"/><use transform="matrix(0.04938271604938272,0,0,0.04938271604938272,96.69135802469137,0)" xlink:href="#by"/><use transform="matrix(0.04938271604938272,0,0,0.04938271604938272,106.56790123456791,0)" xlink:href="#bA"/><use transform="matrix(0.04938271604938272,0,0,0.04938271604938272,121.33333333333334,0)" xlink:href="#bw"/><use transform="matrix(0.04938271604938272,0,0,0.04938271604938272,135.1604938271605,0)" xlink:href="#aP"/><use transform="matrix(0.04938271604938272,0,0,0.04938271604938272,147.95061728395063,0)" xlink:href="#bx"/><use transform="matrix(0.04938271604938272,0,0,0.04938271604938272,158.76543209876544,0)" xlink:href="#bB"/></g><path fill="#333" d="M18-100v-36l175-74v27L42-118l151 64v27" id="bC"/><path fill="#333" d="M18-150v-26h174v26H18zm0 90v-26h174v26H18" id="bD"/><g id="y"><use transform="matrix(0.04938271604938272,0,0,0.04938271604938272,0,0)" xlink:href="#bC"/><use transform="matrix(0.04938271604938272,0,0,0.04938271604938272,10.370370370370372,0)" xlink:href="#bD"/></g><g id="z"><use transform="matrix(0.04938271604938272,0,0,0.04938271604938272,0,0)" xlink:href="#bx"/><use transform="matrix(0.04938271604938272,0,0,0.04938271604938272,8.839506172839506,0)" xlink:href="#aQ"/><use transform="matrix(0.04938271604938272,0,0,0.04938271604938272,18.71604938271605,0)" xlink:href="#bb"/><use transform="matrix(0.04938271604938272,0,0,0.04938271604938272,28.592592592592595,0)" xlink:href="#aV"/><use transform="matrix(0.04938271604938272,0,0,0.04938271604938272,38.46913580246914,0)" xlink:href="#bp"/></g><g id="A"><use transform="matrix(0.05,0,0,0.05,0,0)" xlink:href="#aP"/><use transform="matrix(0.05,0,0,0.05,12.950000000000001,0)" xlink:href="#aQ"/></g><path fill="#fff" d="M30 0v-248h187v28H63v79h144v27H63v87h162V0H30" id="bE"/><path fill="#fff" d="M141 0L90-78 38 0H4l68-98-65-92h35l48 74 47-74h35l-64 92 68 98h-35" id="bF"/><path fill="#fff" d="M24-231v-30h32v30H24zM24 0v-190h32V0H24" id="bG"/><g id="B"><use transform="matrix(0.04938271604938272,0,0,0.04938271604938272,0,0)" xlink:href="#bE"/><use transform="matrix(0.04938271604938272,0,0,0.04938271604938272,11.851851851851853,0)" xlink:href="#bF"/><use transform="matrix(0.04938271604938272,0,0,0.04938271604938272,20.74074074074074,0)" xlink:href="#bG"/><use transform="matrix(0.04938271604938272,0,0,0.04938271604938272,24.641975308641975,0)" xlink:href="#bs"/></g><path fill="#333" d="M137-103V0h-34v-103L8-248h37l75 118 75-118h37" id="bH"/><g id="C"><use transform="matrix(0.05,0,0,0.05,0,0)" xlink:href="#bH"/><use transform="matrix(0.05,0,0,0.05,10.35,0)" xlink:href="#ba"/><use transform="matrix(0.05,0,0,0.05,20.35,0)" xlink:href="#aX"/></g><g id="D"><use transform="matrix(0.04938271604938272,0,0,0.04938271604938272,0,0)" xlink:href="#aS"/><use transform="matrix(0.04938271604938272,0,0,0.04938271604938272,3.901234567901235,0)" xlink:href="#aX"/></g><g id="E"><use transform="matrix(0.04938271604938272,0,0,0.04938271604938272,0,0)" xlink:href="#bv"/><use transform="matrix(0.04938271604938272,0,0,0.04938271604938272,11.851851851851853,0)" xlink:href="#bw"/><use transform="matrix(0.04938271604938272,0,0,0.04938271604938272,25.679012345679016,0)" xlink:href="#aZ"/><use transform="matrix(0.04938271604938272,0,0,0.04938271604938272,37.53086419753087,0)" xlink:href="#bx"/><use transform="matrix(0.04938271604938272,0,0,0.04938271604938272,48.345679012345684,0)" xlink:href="#by"/><use transform="matrix(0.04938271604938272,0,0,0.04938271604938272,58.22222222222223,0)" xlink:href="#bw"/><use transform="matrix(0.04938271604938272,0,0,0.04938271604938272,72.0493827160494,0)" xlink:href="#aP"/><use transform="matrix(0.04938271604938272,0,0,0.04938271604938272,84.83950617283952,0)" xlink:href="#bz"/><use transform="matrix(0.04938271604938272,0,0,0.04938271604938272,96.69135802469137,0)" xlink:href="#by"/><use transform="matrix(0.04938271604938272,0,0,0.04938271604938272,106.56790123456791,0)" xlink:href="#bA"/><use transform="matrix(0.04938271604938272,0,0,0.04938271604938272,121.33333333333334,0)" xlink:href="#bw"/><use transform="matrix(0.04938271604938272,0,0,0.04938271604938272,135.1604938271605,0)" xlink:href="#aP"/><use transform="matrix(0.04938271604938272,0,0,0.04938271604938272,147.95061728395063,0)" xlink:href="#bx"/><use transform="matrix(0.04938271604938272,0,0,0.04938271604938272,158.76543209876544,0)" xlink:href="#bB"/></g><path fill="#333" d="M103-251c84 0 111 97 45 133-19 10-37 24-39 52H78c0-63 77-55 77-114 0-30-21-42-52-43-32 0-53 17-56 46l-32-2c7-45 34-72 88-72zM77 0v-35h34V0H77" id="bI"/><g id="F"><use transform="matrix(0.04938271604938272,0,0,0.04938271604938272,0,0)" xlink:href="#aR"/><use transform="matrix(0.04938271604938272,0,0,0.04938271604938272,4.938271604938272,0)" xlink:href="#aQ"/><use transform="matrix(0.04938271604938272,0,0,0.04938271604938272,14.814814814814817,0)" xlink:href="#bb"/><use transform="matrix(0.04938271604938272,0,0,0.04938271604938272,24.69135802469136,0)" xlink:href="#aV"/><use transform="matrix(0.04938271604938272,0,0,0.04938271604938272,34.567901234567906,0)" xlink:href="#bp"/><use transform="matrix(0.04938271604938272,0,0,0.04938271604938272,43.4567901234568,0)" xlink:href="#bI"/></g><g id="G"><use transform="matrix(0.04938271604938272,0,0,0.04938271604938272,0,0)" xlink:href="#bl"/><use transform="matrix(0.04938271604938272,0,0,0.04938271604938272,11.851851851851853,0)" xlink:href="#bg"/><use transform="matrix(0.04938271604938272,0,0,0.04938271604938272,17.728395061728396,0)" xlink:href="#ba"/></g><path fill="#333" d="M106-169C34-169 62-67 57 0H25v-261h32l-1 103c12-21 28-36 61-36 89 0 53 116 60 194h-32v-121c2-32-8-49-39-48" id="bJ"/><g id="H"><use transform="matrix(0.04938271604938272,0,0,0.04938271604938272,0,0)" xlink:href="#aR"/><use transform="matrix(0.04938271604938272,0,0,0.04938271604938272,4.938271604938272,0)" xlink:href="#bJ"/><use transform="matrix(0.04938271604938272,0,0,0.04938271604938272,14.814814814814817,0)" xlink:href="#ba"/><use transform="matrix(0.04938271604938272,0,0,0.04938271604938272,24.69135802469136,0)" xlink:href="#bg"/><use transform="matrix(0.04938271604938272,0,0,0.04938271604938272,30.567901234567906,0)" xlink:href="#ba"/></g><g id="I"><use transform="matrix(0.04938271604938272,0,0,0.04938271604938272,0,0)" xlink:href="#aV"/><use transform="matrix(0.04938271604938272,0,0,0.04938271604938272,9.876543209876544,0)" xlink:href="#aW"/><use transform="matrix(0.04938271604938272,0,0,0.04938271604938272,19.75308641975309,0)" xlink:href="#bp"/></g><g id="J"><use transform="matrix(0.04938271604938272,0,0,0.04938271604938272,0,0)" xlink:href="#aT"/><use transform="matrix(0.04938271604938272,0,0,0.04938271604938272,4.938271604938272,0)" xlink:href="#aV"/><use transform="matrix(0.04938271604938272,0,0,0.04938271604938272,14.814814814814817,0)" xlink:href="#aS"/><use transform="matrix(0.04938271604938272,0,0,0.04938271604938272,18.71604938271605,0)" xlink:href="#bd"/><use transform="matrix(0.04938271604938272,0,0,0.04938271604938272,22.617283950617285,0)" xlink:href="#ba"/><use transform="matrix(0.04938271604938272,0,0,0.04938271604938272,32.49382716049383,0)" xlink:href="#bb"/></g><path fill="#333" d="M24-231v-30h32v30H24zM-9 49c24 4 33-6 33-30v-209h32V24c2 40-23 58-65 49V49" id="bK"/><g id="K"><use transform="matrix(0.04938271604938272,0,0,0.04938271604938272,0,0)" xlink:href="#bK"/><use transform="matrix(0.04938271604938272,0,0,0.04938271604938272,3.901234567901235,0)" xlink:href="#aQ"/><use transform="matrix(0.04938271604938272,0,0,0.04938271604938272,13.777777777777779,0)" xlink:href="#bi"/><use transform="matrix(0.04938271604938272,0,0,0.04938271604938272,23.654320987654323,0)" xlink:href="#aX"/><use transform="matrix(0.04938271604938272,0,0,0.04938271604938272,32.543209876543216,0)" xlink:href="#bI"/></g><path fill="#fff" d="M100-194c63 0 86 42 84 106H49c0 40 14 67 53 68 26 1 43-12 49-29l28 8c-11 28-37 45-77 45C44 4 14-33 15-96c1-61 26-98 85-98zm52 81c6-60-76-77-97-28-3 7-6 17-6 28h103" id="bL"/><path fill="#fff" d="M117-194c89-4 53 116 60 194h-32v-121c0-31-8-49-39-48C34-167 62-67 57 0H25l-1-190h30c1 10-1 24 2 32 11-22 29-35 61-36" id="bM"/><path fill="#fff" d="M85-194c31 0 48 13 60 33l-1-100h32l1 261h-30c-2-10 0-23-3-31C134-8 116 4 85 4 32 4 16-35 15-94c0-66 23-100 70-100zm9 24c-40 0-46 34-46 75 0 40 6 74 45 74 42 0 51-32 51-76 0-42-9-74-50-73" id="bN"/><g id="L"><use transform="matrix(0.05,0,0,0.05,0,0)" xlink:href="#br"/><use transform="matrix(0.05,0,0,0.05,12,0)" xlink:href="#bL"/><use transform="matrix(0.05,0,0,0.05,22,0)" xlink:href="#bM"/><use transform="matrix(0.05,0,0,0.05,32,0)" xlink:href="#bN"/></g><path fill="#fff" d="M30-248c87 1 191-15 191 75 0 78-77 80-158 76V0H30v-248zm33 125c57 0 124 11 124-50 0-59-68-47-124-48v98" id="bO"/><path fill="#fff" d="M140-251c81 0 123 46 123 126C263-46 219 4 140 4 59 4 17-45 17-125s42-126 123-126zm0 227c63 0 89-41 89-101s-29-99-89-99c-61 0-89 39-89 99S79-25 140-24" id="bP"/><path fill="#fff" d="M127-220V0H93v-220H8v-28h204v28h-85" id="bQ"/><path fill="#fff" d="M-5 72V49h209v23H-5" id="bR"/><path fill="#fff" d="M190 0L58-211 59 0H30v-248h39L202-35l-2-213h31V0h-41" id="bS"/><path fill="#fff" d="M240 0l2-218c-23 76-54 145-80 218h-23L58-218 59 0H30v-248h44l77 211c21-75 51-140 76-211h43V0h-30" id="bT"/><path fill="#fff" d="M197 0v-115H63V0H30v-248h33v105h134v-105h34V0h-34" id="bU"/><g id="M"><use transform="matrix(0.05,0,0,0.05,0,0)" xlink:href="#bO"/><use transform="matrix(0.05,0,0,0.05,12,0)" xlink:href="#bP"/><use transform="matrix(0.05,0,0,0.05,26,0)" xlink:href="#br"/><use transform="matrix(0.05,0,0,0.05,38,0)" xlink:href="#bQ"/><use transform="matrix(0.05,0,0,0.05,48.95,0)" xlink:href="#bR"/><use transform="matrix(0.05,0,0,0.05,58.95,0)" xlink:href="#bP"/><use transform="matrix(0.05,0,0,0.05,72.95,0)" xlink:href="#bS"/><use transform="matrix(0.05,0,0,0.05,85.9,0)" xlink:href="#bE"/><use transform="matrix(0.05,0,0,0.05,97.9,0)" xlink:href="#bR"/><use transform="matrix(0.05,0,0,0.05,107.9,0)" xlink:href="#bT"/><use transform="matrix(0.05,0,0,0.05,122.85000000000001,0)" xlink:href="#bP"/><use transform="matrix(0.05,0,0,0.05,136.85000000000002,0)" xlink:href="#bS"/><use transform="matrix(0.05,0,0,0.05,149.8,0)" xlink:href="#bQ"/><use transform="matrix(0.05,0,0,0.05,160.75,0)" xlink:href="#bU"/></g><path fill="#fff" d="M210-169c-67 3-38 105-44 169h-31v-121c0-29-5-50-35-48C34-165 62-65 56 0H25l-1-190h30c1 10-1 24 2 32 10-44 99-50 107 0 11-21 27-35 58-36 85-2 47 119 55 194h-31v-121c0-29-5-49-35-48" id="bV"/><g id="N"><use transform="matrix(0.05,0,0,0.05,0,0)" xlink:href="#bu"/><use transform="matrix(0.05,0,0,0.05,5.95,0)" xlink:href="#bL"/><use transform="matrix(0.05,0,0,0.05,15.949999999999998,0)" xlink:href="#bV"/><use transform="matrix(0.05,0,0,0.05,30.899999999999995,0)" xlink:href="#bG"/><use transform="matrix(0.05,0,0,0.05,34.85,0)" xlink:href="#bM"/><use transform="matrix(0.05,0,0,0.05,44.85,0)" xlink:href="#bN"/><use transform="matrix(0.05,0,0,0.05,54.85,0)" xlink:href="#bL"/><use transform="matrix(0.05,0,0,0.05,64.85,0)" xlink:href="#bu"/></g><g id="O"><use transform="matrix(0.04938271604938272,0,0,0.04938271604938272,0,0)" xlink:href="#br"/><use transform="matrix(0.04938271604938272,0,0,0.04938271604938272,11.851851851851853,0)" xlink:href="#bs"/><use transform="matrix(0.04938271604938272,0,0,0.04938271604938272,16.790123456790127,0)" xlink:href="#bt"/><use transform="matrix(0.04938271604938272,0,0,0.04938271604938272,26.666666666666668,0)" xlink:href="#bu"/><use transform="matrix(0.04938271604938272,0,0,0.04938271604938272,32.543209876543216,0)" xlink:href="#bs"/></g><path fill="#fff" d="M87 75C49 33 22-17 22-94c0-76 28-126 65-167h31c-38 41-64 92-64 168S80 34 118 75H87" id="bW"/><path fill="#fff" d="M108 0H70L1-190h34L89-25l56-165h34" id="bX"/><g id="P"><use transform="matrix(0.04938271604938272,0,0,0.04938271604938272,0,0)" xlink:href="#bW"/><use transform="matrix(0.04938271604938272,0,0,0.04938271604938272,5.8765432098765435,0)" xlink:href="#bM"/><use transform="matrix(0.04938271604938272,0,0,0.04938271604938272,15.753086419753087,0)" xlink:href="#bL"/><use transform="matrix(0.04938271604938272,0,0,0.04938271604938272,25.629629629629633,0)" xlink:href="#bX"/><use transform="matrix(0.04938271604938272,0,0,0.04938271604938272,34.51851851851852,0)" xlink:href="#bL"/><use transform="matrix(0.04938271604938272,0,0,0.04938271604938272,44.39506172839506,0)" xlink:href="#bu"/></g><path fill="#fff" d="M135-143c-3-34-86-38-87 0 15 53 115 12 119 90S17 21 10-45l28-5c4 36 97 45 98 0-10-56-113-15-118-90-4-57 82-63 122-42 12 7 21 19 24 35" id="bY"/><g id="Q"><use transform="matrix(0.04938271604938272,0,0,0.04938271604938272,0,0)" xlink:href="#bY"/><use transform="matrix(0.04938271604938272,0,0,0.04938271604938272,8.88888888888889,0)" xlink:href="#bL"/><use transform="matrix(0.04938271604938272,0,0,0.04938271604938272,18.765432098765434,0)" xlink:href="#bM"/><use transform="matrix(0.04938271604938272,0,0,0.04938271604938272,28.641975308641978,0)" xlink:href="#bs"/></g><path fill="#fff" d="M115-194c53 0 69 39 70 98 0 66-23 100-70 100C84 3 66-7 56-30L54 0H23l1-261h32v101c10-23 28-34 59-34zm-8 174c40 0 45-34 45-75 0-40-5-75-45-74-42 0-51 32-51 76 0 43 10 73 51 73" id="bZ"/><path fill="#fff" d="M101-234c-31-9-42 10-38 44h38v23H63V0H32v-167H5v-23h27c-7-52 17-82 69-68v24" id="ca"/><path fill="#fff" d="M100-194c62-1 85 37 85 99 1 63-27 99-86 99S16-35 15-95c0-66 28-99 85-99zM99-20c44 1 53-31 53-75 0-43-8-75-51-75s-53 32-53 75 10 74 51 75" id="cb"/><path fill="#fff" d="M33-261c38 41 65 92 65 168S71 34 33 75H2C39 34 66-17 66-93S39-220 2-261h31" id="cc"/><g id="R"><use transform="matrix(0.04938271604938272,0,0,0.04938271604938272,0,0)" xlink:href="#bZ"/><use transform="matrix(0.04938271604938272,0,0,0.04938271604938272,9.876543209876544,0)" xlink:href="#bL"/><use transform="matrix(0.04938271604938272,0,0,0.04938271604938272,19.75308641975309,0)" xlink:href="#ca"/><use transform="matrix(0.04938271604938272,0,0,0.04938271604938272,24.69135802469136,0)" xlink:href="#cb"/><use transform="matrix(0.04938271604938272,0,0,0.04938271604938272,34.567901234567906,0)" xlink:href="#bu"/><use transform="matrix(0.04938271604938272,0,0,0.04938271604938272,40.44444444444445,0)" xlink:href="#bL"/><use transform="matrix(0.04938271604938272,0,0,0.04938271604938272,50.320987654320994,0)" xlink:href="#cc"/></g><g id="S"><use transform="matrix(0.05,0,0,0.05,0,0)" xlink:href="#bt"/><use transform="matrix(0.05,0,0,0.05,10,0)" xlink:href="#bN"/><use transform="matrix(0.05,0,0,0.05,20,0)" xlink:href="#bN"/></g><path fill="#fff" d="M30 0v-248h33v221h125V0H30" id="cd"/><path fill="#fff" d="M33 0v-248h34V0H33" id="ce"/><g id="T"><use transform="matrix(0.05,0,0,0.05,0,0)" xlink:href="#cd"/><use transform="matrix(0.05,0,0,0.05,10,0)" xlink:href="#bG"/><use transform="matrix(0.05,0,0,0.05,13.949999999999998,0)" xlink:href="#bY"/><use transform="matrix(0.05,0,0,0.05,22.95,0)" xlink:href="#bs"/><use transform="matrix(0.05,0,0,0.05,27.950000000000003,0)" xlink:href="#ce"/><use transform="matrix(0.05,0,0,0.05,32.95,0)" xlink:href="#bs"/><use transform="matrix(0.05,0,0,0.05,37.95,0)" xlink:href="#bL"/><use transform="matrix(0.05,0,0,0.05,47.95,0)" xlink:href="#bV"/><use transform="matrix(0.05,0,0,0.05,62.900000000000006,0)" xlink:href="#bE"/><use transform="matrix(0.05,0,0,0.05,74.9,0)" xlink:href="#bX"/><use transform="matrix(0.05,0,0,0.05,83.9,0)" xlink:href="#bL"/><use transform="matrix(0.05,0,0,0.05,93.9,0)" xlink:href="#bM"/><use transform="matrix(0.05,0,0,0.05,103.9,0)" xlink:href="#bs"/></g><path fill="#fff" d="M206 0h-36l-40-164L89 0H53L-1-190h32L70-26l43-164h34l41 164 42-164h31" id="cf"/><path fill="#fff" d="M106-169C34-169 62-67 57 0H25v-261h32l-1 103c12-21 28-36 61-36 89 0 53 116 60 194h-32v-121c2-32-8-49-39-48" id="cg"/><g id="U"><use transform="matrix(0.05,0,0,0.05,0,0)" xlink:href="#cf"/><use transform="matrix(0.05,0,0,0.05,12.950000000000001,0)" xlink:href="#bG"/><use transform="matrix(0.05,0,0,0.05,16.900000000000002,0)" xlink:href="#bs"/><use transform="matrix(0.05,0,0,0.05,21.900000000000002,0)" xlink:href="#cg"/></g><path fill="#fff" d="M84 4C-5 8 30-112 23-190h32v120c0 31 7 50 39 49 72-2 45-101 50-169h31l1 190h-30c-1-10 1-25-2-33-11 22-28 36-60 37" id="ch"/><path fill="#fff" d="M96-169c-40 0-48 33-48 73s9 75 48 75c24 0 41-14 43-38l32 2c-6 37-31 61-74 61-59 0-76-41-82-99-10-93 101-131 147-64 4 7 5 14 7 22l-32 3c-4-21-16-35-41-35" id="ci"/><g id="V"><use transform="matrix(0.05,0,0,0.05,0,0)" xlink:href="#bY"/><use transform="matrix(0.05,0,0,0.05,9,0)" xlink:href="#ch"/><use transform="matrix(0.05,0,0,0.05,19,0)" xlink:href="#ci"/><use transform="matrix(0.05,0,0,0.05,28,0)" xlink:href="#ci"/><use transform="matrix(0.05,0,0,0.05,37,0)" xlink:href="#bL"/><use transform="matrix(0.05,0,0,0.05,47,0)" xlink:href="#bY"/><use transform="matrix(0.05,0,0,0.05,56,0)" xlink:href="#bY"/></g><g id="W"><use transform="matrix(0.04938271604938272,0,0,0.04938271604938272,0,0)" xlink:href="#aZ"/><use transform="matrix(0.04938271604938272,0,0,0.04938271604938272,11.851851851851853,0)" xlink:href="#bm"/><use transform="matrix(0.04938271604938272,0,0,0.04938271604938272,21.7283950617284,0)" xlink:href="#aU"/><use transform="matrix(0.04938271604938272,0,0,0.04938271604938272,30.617283950617285,0)" xlink:href="#aU"/><use transform="matrix(0.04938271604938272,0,0,0.04938271604938272,39.50617283950618,0)" xlink:href="#ba"/><use transform="matrix(0.04938271604938272,0,0,0.04938271604938272,49.38271604938272,0)" xlink:href="#aX"/><use transform="matrix(0.04938271604938272,0,0,0.04938271604938272,58.27160493827161,0)" xlink:href="#aX"/><use transform="matrix(0.04938271604938272,0,0,0.04938271604938272,67.1604938271605,0)" xlink:href="#bI"/></g><path fill="#333" d="M33 0v-248h34V0H33" id="cj"/><g id="X"><use transform="matrix(0.04938271604938272,0,0,0.04938271604938272,0,0)" xlink:href="#cj"/><use transform="matrix(0.04938271604938272,0,0,0.04938271604938272,4.938271604938272,0)" xlink:href="#aX"/></g><g id="Y"><use transform="matrix(0.04938271604938272,0,0,0.04938271604938272,0,0)" xlink:href="#aW"/><use transform="matrix(0.04938271604938272,0,0,0.04938271604938272,9.876543209876544,0)" xlink:href="#aQ"/><use transform="matrix(0.04938271604938272,0,0,0.04938271604938272,19.75308641975309,0)" xlink:href="#aR"/><use transform="matrix(0.04938271604938272,0,0,0.04938271604938272,24.69135802469136,0)" xlink:href="#aS"/><use transform="matrix(0.04938271604938272,0,0,0.04938271604938272,28.592592592592595,0)" xlink:href="#aT"/><use transform="matrix(0.04938271604938272,0,0,0.04938271604938272,33.53086419753087,0)" xlink:href="#aS"/><use transform="matrix(0.04938271604938272,0,0,0.04938271604938272,37.4320987654321,0)" xlink:href="#aU"/><use transform="matrix(0.04938271604938272,0,0,0.04938271604938272,46.32098765432099,0)" xlink:href="#aV"/><use transform="matrix(0.04938271604938272,0,0,0.04938271604938272,56.19753086419754,0)" xlink:href="#aR"/><use transform="matrix(0.04938271604938272,0,0,0.04938271604938272,61.13580246913581,0)" xlink:href="#aS"/><use transform="matrix(0.04938271604938272,0,0,0.04938271604938272,65.03703703703704,0)" xlink:href="#aQ"/><use transform="matrix(0.04938271604938272,0,0,0.04938271604938272,74.91358024691358,0)" xlink:href="#aW"/></g><g id="Z"><use transform="matrix(0.04938271604938272,0,0,0.04938271604938272,0,0)" xlink:href="#aX"/><use transform="matrix(0.04938271604938272,0,0,0.04938271604938272,8.88888888888889,0)" xlink:href="#aR"/><use transform="matrix(0.04938271604938272,0,0,0.04938271604938272,13.827160493827162,0)" xlink:href="#aS"/><use transform="matrix(0.04938271604938272,0,0,0.04938271604938272,17.728395061728396,0)" xlink:href="#bd"/><use transform="matrix(0.04938271604938272,0,0,0.04938271604938272,21.62962962962963,0)" xlink:href="#bd"/></g><g id="aa"><use transform="matrix(0.04938271604938272,0,0,0.04938271604938272,0,0)" xlink:href="#bg"/><use transform="matrix(0.04938271604938272,0,0,0.04938271604938272,5.8765432098765435,0)" xlink:href="#ba"/><use transform="matrix(0.04938271604938272,0,0,0.04938271604938272,15.753086419753087,0)" xlink:href="#bd"/><use transform="matrix(0.04938271604938272,0,0,0.04938271604938272,19.654320987654323,0)" xlink:href="#ba"/><use transform="matrix(0.04938271604938272,0,0,0.04938271604938272,29.530864197530867,0)" xlink:href="#bh"/><use transform="matrix(0.04938271604938272,0,0,0.04938271604938272,38.41975308641976,0)" xlink:href="#aV"/><use transform="matrix(0.04938271604938272,0,0,0.04938271604938272,48.296296296296305,0)" xlink:href="#aW"/><use transform="matrix(0.04938271604938272,0,0,0.04938271604938272,58.17283950617284,0)" xlink:href="#aR"/><use transform="matrix(0.04938271604938272,0,0,0.04938271604938272,63.111111111111114,0)" xlink:href="#bI"/></g><path fill="#fff" d="M24 0v-261h32V0H24" id="ck"/><g id="ab"><use transform="matrix(0.04938271604938272,0,0,0.04938271604938272,0,0)" xlink:href="#bW"/><use transform="matrix(0.04938271604938272,0,0,0.04938271604938272,5.8765432098765435,0)" xlink:href="#ca"/><use transform="matrix(0.04938271604938272,0,0,0.04938271604938272,10.814814814814817,0)" xlink:href="#bt"/><use transform="matrix(0.04938271604938272,0,0,0.04938271604938272,20.69135802469136,0)" xlink:href="#bG"/><use transform="matrix(0.04938271604938272,0,0,0.04938271604938272,24.592592592592595,0)" xlink:href="#ck"/><use transform="matrix(0.04938271604938272,0,0,0.04938271604938272,28.49382716049383,0)" xlink:href="#bL"/><use transform="matrix(0.04938271604938272,0,0,0.04938271604938272,38.370370370370374,0)" xlink:href="#bN"/></g><g id="ac"><use transform="matrix(0.04938271604938272,0,0,0.04938271604938272,0,0)" xlink:href="#bG"/><use transform="matrix(0.04938271604938272,0,0,0.04938271604938272,3.901234567901235,0)" xlink:href="#bs"/><use transform="matrix(0.04938271604938272,0,0,0.04938271604938272,8.839506172839506,0)" xlink:href="#bL"/><use transform="matrix(0.04938271604938272,0,0,0.04938271604938272,18.71604938271605,0)" xlink:href="#bV"/><use transform="matrix(0.04938271604938272,0,0,0.04938271604938272,33.48148148148148,0)" xlink:href="#bY"/><use transform="matrix(0.04938271604938272,0,0,0.04938271604938272,42.37037037037037,0)" xlink:href="#cc"/></g><path fill="#333" d="M153-248C145-148 188 4 80 4 36 3 13-21 6-62l32-5c4 25 16 42 43 43 27 0 39-20 39-49v-147H72v-28h81" id="cl"/><g id="ad"><use transform="matrix(0.05,0,0,0.05,0,0)" xlink:href="#bj"/><use transform="matrix(0.05,0,0,0.05,10,0)" xlink:href="#aS"/><use transform="matrix(0.05,0,0,0.05,13.949999999999998,0)" xlink:href="#aX"/><use transform="matrix(0.05,0,0,0.05,22.95,0)" xlink:href="#aR"/><use transform="matrix(0.05,0,0,0.05,27.950000000000003,0)" xlink:href="#bk"/><use transform="matrix(0.05,0,0,0.05,32.95,0)" xlink:href="#cl"/><use transform="matrix(0.05,0,0,0.05,41.95,0)" xlink:href="#aX"/><use transform="matrix(0.05,0,0,0.05,50.95,0)" xlink:href="#aQ"/><use transform="matrix(0.05,0,0,0.05,60.95,0)" xlink:href="#aW"/><use transform="matrix(0.05,0,0,0.05,70.95,0)" xlink:href="#bq"/><use transform="matrix(0.05,0,0,0.05,83.9,0)" xlink:href="#aV"/><use transform="matrix(0.05,0,0,0.05,93.9,0)" xlink:href="#aR"/><use transform="matrix(0.05,0,0,0.05,98.9,0)" xlink:href="#aV"/><use transform="matrix(0.05,0,0,0.05,108.9,0)" xlink:href="#bk"/><use transform="matrix(0.05,0,0,0.05,113.9,0)" xlink:href="#aU"/><use transform="matrix(0.05,0,0,0.05,122.9,0)" xlink:href="#bm"/><use transform="matrix(0.05,0,0,0.05,132.9,0)" xlink:href="#bg"/><use transform="matrix(0.05,0,0,0.05,138.85,0)" xlink:href="#bg"/><use transform="matrix(0.05,0,0,0.05,144.79999999999998,0)" xlink:href="#ba"/><use transform="matrix(0.05,0,0,0.05,154.79999999999998,0)" xlink:href="#aW"/><use transform="matrix(0.05,0,0,0.05,164.79999999999998,0)" xlink:href="#aR"/><use transform="matrix(0.05,0,0,0.05,169.79999999999998,0)" xlink:href="#bl"/><use transform="matrix(0.05,0,0,0.05,181.79999999999998,0)" xlink:href="#aW"/><use transform="matrix(0.05,0,0,0.05,191.79999999999998,0)" xlink:href="#aW"/><use transform="matrix(0.05,0,0,0.05,201.79999999999998,0)" xlink:href="#bm"/><use transform="matrix(0.05,0,0,0.05,211.79999999999995,0)" xlink:href="#aV"/><use transform="matrix(0.05,0,0,0.05,221.79999999999995,0)" xlink:href="#bd"/><use transform="matrix(0.05,0,0,0.05,225.74999999999997,0)" xlink:href="#bn"/><use transform="matrix(0.05,0,0,0.05,238.69999999999996,0)" xlink:href="#ba"/><use transform="matrix(0.05,0,0,0.05,248.69999999999996,0)" xlink:href="#bh"/><use transform="matrix(0.05,0,0,0.05,257.69999999999993,0)" xlink:href="#aS"/><use transform="matrix(0.05,0,0,0.05,261.6499999999999,0)" xlink:href="#ba"/><use transform="matrix(0.05,0,0,0.05,271.6499999999999,0)" xlink:href="#bo"/><use transform="matrix(0.05,0,0,0.05,283.5999999999999,0)" xlink:href="#bk"/><use transform="matrix(0.05,0,0,0.05,288.5999999999999,0)" xlink:href="#aY"/><use transform="matrix(0.05,0,0,0.05,297.5999999999999,0)" xlink:href="#ba"/><use transform="matrix(0.05,0,0,0.05,307.5999999999999,0)" xlink:href="#bp"/><use transform="matrix(0.05,0,0,0.05,316.5999999999999,0)" xlink:href="#bq"/><use transform="matrix(0.05,0,0,0.05,329.5499999999999,0)" xlink:href="#aV"/><use transform="matrix(0.05,0,0,0.05,339.5499999999999,0)" xlink:href="#aR"/><use transform="matrix(0.05,0,0,0.05,344.5499999999999,0)" xlink:href="#ba"/><use transform="matrix(0.05,0,0,0.05,354.5499999999999,0)" xlink:href="#aX"/></g><g id="ae"><use transform="matrix(0.05,0,0,0.05,0,0)" xlink:href="#bv"/><use transform="matrix(0.05,0,0,0.05,12,0)" xlink:href="#bw"/><use transform="matrix(0.05,0,0,0.05,26,0)" xlink:href="#aZ"/><use transform="matrix(0.05,0,0,0.05,38,0)" xlink:href="#bx"/><use transform="matrix(0.05,0,0,0.05,48.95,0)" xlink:href="#by"/><use transform="matrix(0.05,0,0,0.05,58.95,0)" xlink:href="#bw"/><use transform="matrix(0.05,0,0,0.05,72.95,0)" xlink:href="#aP"/><use transform="matrix(0.05,0,0,0.05,85.9,0)" xlink:href="#bz"/><use transform="matrix(0.05,0,0,0.05,97.9,0)" xlink:href="#by"/><use transform="matrix(0.05,0,0,0.05,107.9,0)" xlink:href="#bA"/><use transform="matrix(0.05,0,0,0.05,122.85000000000001,0)" xlink:href="#bw"/><use transform="matrix(0.05,0,0,0.05,136.85000000000002,0)" xlink:href="#aP"/><use transform="matrix(0.05,0,0,0.05,149.8,0)" xlink:href="#bx"/><use transform="matrix(0.05,0,0,0.05,160.75,0)" xlink:href="#bB"/></g><g id="af"><use transform="matrix(0.05,0,0,0.05,0,0)" xlink:href="#bq"/><use transform="matrix(0.05,0,0,0.05,12.950000000000001,0)" xlink:href="#aV"/><use transform="matrix(0.05,0,0,0.05,22.950000000000003,0)" xlink:href="#aR"/><use transform="matrix(0.05,0,0,0.05,27.950000000000003,0)" xlink:href="#ba"/></g><path fill="#333" d="M266 0h-40l-56-210L115 0H75L2-248h35L96-30l15-64 43-154h32l59 218 59-218h35" id="cm"/><path fill="#333" d="M194 0L95-120 63-95V0H30v-248h33v124l119-124h40L117-140 236 0h-42" id="cn"/><g id="ag"><use transform="matrix(0.05,0,0,0.05,0,0)" xlink:href="#bv"/><use transform="matrix(0.05,0,0,0.05,12,0)" xlink:href="#bw"/><use transform="matrix(0.05,0,0,0.05,26,0)" xlink:href="#aZ"/><use transform="matrix(0.05,0,0,0.05,38,0)" xlink:href="#bx"/><use transform="matrix(0.05,0,0,0.05,48.95,0)" xlink:href="#by"/><use transform="matrix(0.05,0,0,0.05,58.95,0)" xlink:href="#bw"/><use transform="matrix(0.05,0,0,0.05,72.95,0)" xlink:href="#aP"/><use transform="matrix(0.05,0,0,0.05,85.9,0)" xlink:href="#bz"/><use transform="matrix(0.05,0,0,0.05,97.9,0)" xlink:href="#by"/><use transform="matrix(0.05,0,0,0.05,107.9,0)" xlink:href="#cm"/><use transform="matrix(0.05,0,0,0.05,124.85000000000001,0)" xlink:href="#bz"/><use transform="matrix(0.05,0,0,0.05,136.85000000000002,0)" xlink:href="#bz"/><use transform="matrix(0.05,0,0,0.05,148.85000000000002,0)" xlink:href="#cn"/></g><g id="ah"><use transform="matrix(0.05,0,0,0.05,0,0)" xlink:href="#bv"/><use transform="matrix(0.05,0,0,0.05,12,0)" xlink:href="#bw"/><use transform="matrix(0.05,0,0,0.05,26,0)" xlink:href="#aZ"/><use transform="matrix(0.05,0,0,0.05,38,0)" xlink:href="#bx"/><use transform="matrix(0.05,0,0,0.05,48.95,0)" xlink:href="#by"/><use transform="matrix(0.05,0,0,0.05,58.95,0)" xlink:href="#bw"/><use transform="matrix(0.05,0,0,0.05,72.95,0)" xlink:href="#aP"/><use transform="matrix(0.05,0,0,0.05,85.9,0)" xlink:href="#bz"/><use transform="matrix(0.05,0,0,0.05,97.9,0)" xlink:href="#by"/><use transform="matrix(0.05,0,0,0.05,107.9,0)" xlink:href="#bq"/><use transform="matrix(0.05,0,0,0.05,120.85000000000001,0)" xlink:href="#bl"/><use transform="matrix(0.05,0,0,0.05,131.5,0)" xlink:href="#bH"/></g><g id="ai"><use transform="matrix(0.05,0,0,0.05,0,0)" xlink:href="#aZ"/><use transform="matrix(0.05,0,0,0.05,12,0)" xlink:href="#bx"/><use transform="matrix(0.05,0,0,0.05,21.6,0)" xlink:href="#bl"/><use transform="matrix(0.05,0,0,0.05,33.6,0)" xlink:href="#bn"/><use transform="matrix(0.05,0,0,0.05,46.2,0)" xlink:href="#bx"/></g><path fill="#333" d="M232-93c-1 65-40 97-104 97C67 4 28-28 28-90v-158h33c8 89-33 224 67 224 102 0 64-133 71-224h33v155" id="co"/><path fill="#333" d="M160-131c35 5 61 23 61 61C221 17 115-2 30 0v-248c76 3 177-17 177 60 0 33-19 50-47 57zm-97-11c50-1 110 9 110-42 0-47-63-36-110-37v79zm0 115c55-2 124 14 124-45 0-56-70-42-124-44v89" id="cp"/><g id="aj"><use transform="matrix(0.05,0,0,0.05,0,0)" xlink:href="#bw"/><use transform="matrix(0.05,0,0,0.05,14,0)" xlink:href="#aP"/><use transform="matrix(0.05,0,0,0.05,26.950000000000003,0)" xlink:href="#bz"/><use transform="matrix(0.05,0,0,0.05,38.95,0)" xlink:href="#by"/><use transform="matrix(0.05,0,0,0.05,48.95,0)" xlink:href="#bq"/><use transform="matrix(0.05,0,0,0.05,61.900000000000006,0)" xlink:href="#bl"/><use transform="matrix(0.05,0,0,0.05,72.55000000000001,0)" xlink:href="#bH"/><use transform="matrix(0.05,0,0,0.05,84.55000000000001,0)" xlink:href="#by"/><use transform="matrix(0.05,0,0,0.05,94.55000000000001,0)" xlink:href="#co"/><use transform="matrix(0.05,0,0,0.05,107.5,0)" xlink:href="#aP"/><use transform="matrix(0.05,0,0,0.05,120.45,0)" xlink:href="#bx"/><use transform="matrix(0.05,0,0,0.05,131.4,0)" xlink:href="#cj"/><use transform="matrix(0.05,0,0,0.05,136.4,0)" xlink:href="#bj"/><use transform="matrix(0.05,0,0,0.05,146.4,0)" xlink:href="#by"/><use transform="matrix(0.05,0,0,0.05,156.4,0)" xlink:href="#co"/><use transform="matrix(0.05,0,0,0.05,169.35,0)" xlink:href="#aP"/><use transform="matrix(0.05,0,0,0.05,182.29999999999998,0)" xlink:href="#bv"/><use transform="matrix(0.05,0,0,0.05,194.29999999999998,0)" xlink:href="#co"/><use transform="matrix(0.05,0,0,0.05,207.24999999999997,0)" xlink:href="#cp"/><use transform="matrix(0.05,0,0,0.05,219.24999999999997,0)" xlink:href="#bj"/><use transform="matrix(0.05,0,0,0.05,229.24999999999997,0)" xlink:href="#cj"/><use transform="matrix(0.05,0,0,0.05,234.24999999999997,0)" xlink:href="#aZ"/><use transform="matrix(0.05,0,0,0.05,246.24999999999997,0)" xlink:href="#bB"/></g><g id="ak"><use transform="matrix(0.05,0,0,0.05,0,0)" xlink:href="#co"/><use transform="matrix(0.05,0,0,0.05,12.950000000000001,0)" xlink:href="#aP"/><use transform="matrix(0.05,0,0,0.05,25.900000000000002,0)" xlink:href="#bv"/><use transform="matrix(0.05,0,0,0.05,37.900000000000006,0)" xlink:href="#co"/><use transform="matrix(0.05,0,0,0.05,50.85000000000001,0)" xlink:href="#cp"/><use transform="matrix(0.05,0,0,0.05,62.85,0)" xlink:href="#bj"/><use transform="matrix(0.05,0,0,0.05,72.85000000000001,0)" xlink:href="#cj"/><use transform="matrix(0.05,0,0,0.05,77.85000000000001,0)" xlink:href="#aZ"/><use transform="matrix(0.05,0,0,0.05,89.85000000000001,0)" xlink:href="#bB"/></g><g id="al"><use transform="matrix(0.05,0,0,0.05,0,0)" xlink:href="#ca"/><use transform="matrix(0.05,0,0,0.05,5,0)" xlink:href="#bt"/><use transform="matrix(0.05,0,0,0.05,15,0)" xlink:href="#bG"/><use transform="matrix(0.05,0,0,0.05,18.95,0)" xlink:href="#ck"/><use transform="matrix(0.05,0,0,0.05,22.9,0)" xlink:href="#ch"/><use transform="matrix(0.05,0,0,0.05,32.9,0)" xlink:href="#bu"/><use transform="matrix(0.05,0,0,0.05,38.85,0)" xlink:href="#bL"/></g></defs></g></svg>